{
.formatVersion = 3;
axes = (
{
name = Weight;
tag = wght;
}
);
classes = (
{
code = "dollar comma period slash colon semicolon A O a g i l o cent sterling yen Scedilla scedilla Tcedilla tcedilla florin Decyr Zhecyr Kacyr Elcyr becyr vecyr gecyr decyr zhecyr zecyr ishortcyr kacyr elcyr encyr pecyr tecyr tsecyr checyr shacyr shchacyr hardcyr softcyr yucyr comma.tf period.tf zero.numr one.numr two.numr three.numr four.numr five.numr six.numr seven.numr eight.numr nine.numr";
name = aalt;
},
{
code = "dollar.tf comma.tf period.tf fraction colon.tf semicolon.tf ordfeminine ordmasculine ordfeminine g.ss01 idotaccent ordmasculine cent.tf sterling.tf yen.tf Scommaaccent scommaaccent Tcommaaccent tcommaaccent florin.tf Decyr.bgr Zhecyr.bgr Kacyr.bgr Elcyr.bgr becyr.locl vecyr.bgr gecyr.bgr decyr.bgr zhecyr.bgr zecyr.bgr ishortcyr.bgr kacyr.bgr elcyr.bgr encyr.bgr pecyr.bgr tecyr.bgr tsecyr.bgr checyr.bgr shacyr.bgr shchacyr.bgr hardcyr.bgr softcyr.bgr yucyr.bgr colonsign.tf franc.tf lira.tf won.tf dong.tf Euro.tf indianrupee.tf turkishlira.tf comma period zero.dnom one.dnom two.dnom three.dnom four.dnom five.dnom six.dnom seven.dnom eight.dnom nine.dnom";
name = aalt2;
},
{
code = "zero.tf one.tf two.tf three.tf four.tf five.tf six.tf seven.tf eight.tf nine.tf";
name = calt;
},
{
code = "zero one two three four five six seven eight nine";
name = calt_dnom_frac_lnum_numr_onum_ordn_sinf_subs_sups;
},
{
code = "gravecomb acutecomb circumflexcomb tildecomb macroncomb brevecomb dotaccentcomb dieresiscomb ringcomb hungarumlautcomb caroncomb hookabovecomb dblgravecomb breveinvertedcomb";
name = ccmp;
},
{
code = "zero.dnom one.dnom two.dnom three.dnom four.dnom five.dnom six.dnom seven.dnom eight.dnom nine.dnom";
name = dnom_frac;
},
{
code = "zero.numr one.numr two.numr three.numr four.numr five.numr six.numr seven.numr eight.numr nine.numr";
name = frac_numr;
},
{
code = "zero.osf one.osf two.osf three.osf four.osf five.osf six.osf seven.osf eight.osf nine.osf";

glyphs = (
{
glyphname = .notdef;
leftMetricsKey = H;
layers = (
{
layerId = "8DBE427A-3D94-44F6-909C-34E8B708558F";
shapes = (
{
closed = 1;
nodes = (
(568,826,ls),
(568,839,o),
(561,847,o),
(550,847,cs),
(79,847,ls),
(68,847,o),
(60,839,o),
(60,824,cs),
(60,-140,ls),
(60,-157,o),
(66,-165,o),
(87,-165,cs),
(535,-165,ls),
(558,-165,o),
(568,-157,o),
(568,-136,cs)
);
},
{
closed = 1;
nodes = (
(516,-91,ls),
(516,-108,o),
(507,-115,o),
(488,-115,cs),
(135,-115,ls),
(117,-115,o),
(112,-108,o),
(112,-94,cs),
(112,778,ls),
(112,790,o),
(119,797,o),
(128,797,cs),
(501,797,ls),
(510,797,o),
(516,790,o),
(516,779,cs)
);
},
{
closed = 1;
nodes = (
(548,-132,l),
(133,833,l),
(81,806,l),
(488,-137,l)
);
}
);
width = 628;
},
{
layerId = "7F526B41-32D4-4B88-B4BE-8E854E9660E0";
shapes = (
{
closed = 1;
nodes = (
(606,826,ls),
(606,839,o),
(599,847,o),
(588,847,cs),
(117,847,ls),
(106,847,o),
(98,839,o),
(98,824,cs),
(98,-140,ls),
(98,-157,o),
(104,-165,o),
(125,-165,cs),
(573,-165,ls),
(596,-165,o),
(606,-157,o),
(606,-136,cs)
);
},
{
closed = 1;
nodes = (
(554,-91,ls),
(554,-108,o),
(545,-115,o),
(526,-115,cs),
(173,-115,ls),
(155,-115,o),
(150,-108,o),
(150,-94,cs),
(150,778,ls),
(150,790,o),
(157,797,o),
(166,797,cs),
(539,797,ls),
(548,797,o),
(554,790,o),
(554,779,cs)
);
},
{
closed = 1;
nodes = (
(586,-132,l),
(171,833,l),
(119,806,l),
(526,-137,l)
);
}
);
width = 704;
},
{
layerId = "B5FFAA16-DBAD-40DC-8294-46FA18BBC24B";
shapes = (
{
closed = 1;
nodes = (
(623,826,ls),
(623,839,o),
(616,847,o),
(605,847,cs),
(134,847,ls),
(123,847,o),
(115,839,o),
(115,824,cs),
(115,-140,ls),
(115,-157,o),
(121,-165,o),
(142,-165,cs),
(590,-165,ls),
(613,-165,o),
(623,-157,o),
(623,-136,cs)
);
},
{
closed = 1;
nodes = (
(571,-91,ls),
(571,-108,o),
(562,-115,o),
(543,-115,cs),
(190,-115,ls),
(172,-115,o),
(167,-108,o),
(167,-94,cs),
(167,778,ls),
(167,790,o),
(174,797,o),
(183,797,cs),
(556,797,ls),
(565,797,o),
(571,790,o),
(571,779,cs)
);
},
{
closed = 1;
nodes = (
(603,-132,l),
(188,833,l),
(136,806,l),
(543,-137,l)
);
}
);
width = 738;
}
);
},
{
glyphname = exclam;
layers = (
{
layerId = "8DBE427A-3D94-44F6-909C-34E8B708558F";
shapes = (
{
closed = 1;
nodes = (
(31,197,l),
(31,0,l),
(241,0,l),
(241,197,l)
);
},
{
closed = 1;
nodes = (
(21,742,l),
(77,266,l),
(199,266,l),
(252,742,l)
);
}
);
width = 287;
},
{
layerId = "7F526B41-32D4-4B88-B4BE-8E854E9660E0";
shapes = (
{
closed = 1;
nodes = (
(67,117,l),
(67,0,l),
(178,0,l),
(178,117,l)
);
},
{
closed = 1;
nodes = (
(68,742,l),
(92,240,l),
(154,240,l),
(178,742,l)
);
}
);
width = 250;
},
{
guides = (
{
angle = 90;
position = "{183, 0}";
},
{
angle = 90;
position = "{265, 0}";
}
);
layerId = "B5FFAA16-DBAD-40DC-8294-46FA18BBC24B";
shapes = (
{
closed = 1;
nodes = (
(85,79,l),
(85,0,l),
(147,0,l),
(147,79,l)
);
},
{
closed = 1;
nodes = (
(90,742,l),
(99,228,l),
(133,228,l),
(143,742,l)
);
}
);
width = 232;
}
);
unicode = 33;
},
{
glyphname = quotedbl;
layers = (
{
layerId = "8DBE427A-3D94-44F6-909C-34E8B708558F";
shapes = (
{
alignment = -1;
pos = (256,0);
ref = quotesingle;
},
{
alignment = -1;
ref = quotesingle;
}
);
width = 519;
},
{
layerId = "7F526B41-32D4-4B88-B4BE-8E854E9660E0";
shapes = (
{
closed = 1;
nodes = (
(239,742,l),
(268,507,l),
(321,507,l),
(351,742,l)
);
},
{
closed = 1;
nodes = (
(65,742,l),
(94,507,l),
(147,507,l),
(177,742,l)
);
}
);
width = 417;
},
{
layerId = "B5FFAA16-DBAD-40DC-8294-46FA18BBC24B";
shapes = (
{
alignment = -1;
pos = (132,0);
ref = quotesingle;
},
{
alignment = -1;
pos = (-4,0);
ref = quotesingle;
}
);
width = 371;
}
);
leftKerningGroup = quotedbl2;
rightKerningGroup = quotedbl;
unicode = 34;
},
{
glyphname = numbersign;
layers = (
{
layerId = "8DBE427A-3D94-44F6-909C-34E8B708558F";
shapes = (
{
closed = 1;
nodes = (
(196,744,l),
(88,9,l),
(185,-3,l),
(292,734,l)
);
},
{
closed = 1;
nodes = (
(420,744,l),
(312,9,l),
(409,-3,l),
(516,734,l)
);
},
{
closed = 1;
nodes = (
(5,318,l),
(5,222,l),
(565,222,l),
(565,318,l)
);
},
{
closed = 1;
nodes = (
(38,528,l),
(38,432,l),
(598,432,l),
(598,528,l)
);
}
);
width = 613;
},
{
layerId = "7F526B41-32D4-4B88-B4BE-8E854E9660E0";
shapes = (
{
closed = 1;
nodes = (
(229,743,l),
(117,6,l),
(173,-2,l),
(285,736,l)
);
},
{
closed = 1;
nodes = (
(439,743,l),
(326,6,l),
(383,-2,l),
(495,736,l)
);
},
{
closed = 1;
nodes = (
(33,297,l),
(33,241,l),
(538,241,l),
(538,297,l)
);
},
{
closed = 1;
nodes = (
(66,507,l),
(66,451,l),
(571,451,l),
(571,507,l)
);
}
);
width = 606;
},
{
layerId = "B5FFAA16-DBAD-40DC-8294-46FA18BBC24B";
shapes = (
{
closed = 1;
nodes = (
(244,743,l),
(130,5,l),
(168,-1,l),
(282,737,l)
);
},
{
closed = 1;
nodes = (
(447,743,l),
(333,5,l),
(371,-1,l),
(485,737,l)
);
},
{
closed = 1;
nodes = (
(45,288,l),
(45,250,l),
(525,250,l),
(525,288,l)
);
},
{
closed = 1;
nodes = (
(78,498,l),
(78,460,l),
(558,460,l),
(558,498,l)
);
}
);
width = 603;
}
);
unicode = 35;
},
{
glyphname = dollar;
layers = (
{
layerId = "8DBE427A-3D94-44F6-909C-34E8B708558F";
shapes = (
{
closed = 1;
nodes = (
(655,337,o),
(581,418,o),
(482,442,cs),
(402,461,l),
(402,600,l),
(440,584,o),
(487,554,o),
(509,532,c),
(602,657,l),
(548,691,o),
(482,717,o),
(403,740,c),
(403,802,l),
(281,802,l),
(281,740,l),
(136,709,o),
(38,619,o),
(38,515,cs),
(38,409,o),
(99,312,o),
(281,287,c),
(280,134,l),
(217,149,o),
(162,183,o),
(119,223,c),
(9,99,l),
(87,41,o),
(168,7,o),
(278,-3,c),
(278,-73,l),
(403,-73,l),
(403,-3,l),
(545,15,o),
(655,109,o),
(655,234,cs)
);
},
{
closed = 1;
nodes = (
(281,475,l),
(232,480,o),
(200,496,o),
(200,539,cs),
(200,577,o),
(251,600,o),
(281,600,c)
);
},
{
closed = 1;
nodes = (
(402,271,l),
(466,262,o),
(491,235,o),
(491,200,cs),
(491,170,o),
(460,144,o),
(402,134,c)
);
}
);
width = 697;
},
{
layerId = "7F526B41-32D4-4B88-B4BE-8E854E9660E0";
shapes = (
{
closed = 1;
nodes = (
(572,284,o),
(507,347,o),
(398,389,c),
(347,407,l),
(347,674,l),
(405,663,o),
(467,631,o),
(497,593,c),
(551,651,l),
(496,701,o),
(433,736,o),
(347,748,c),
(347,816,l),
(283,816,l),
(283,748,l),
(154,732,o),
(58,653,o),
(58,545,cs),
(58,443,o),
(116,384,o),
(284,329,c),
(283,65,l),
(192,69,o),
(137,107,o),
(85,169,c),
(28,116,l),
(88,37,o),
(163,-5,o),
(283,-8,c),
(283,-87,l),
(348,-87,l),
(348,-8,l),
(475,-2,o),
(572,79,o),
(572,187,cs)
);
},
{
closed = 1;
nodes = (
(283,421,l),
(229,440,o),
(142,470,o),
(142,551,cs),
(142,633,o),
(228,674,o),
(283,674,c)
);
},
{
closed = 1;
nodes = (
(348,314,l),
(447,280,o),
(487,241,o),
(487,179,cs),
(487,116,o),
(433,68,o),
(348,65,c)
);
}
);
width = 612;
},
{
layerId = "B5FFAA16-DBAD-40DC-8294-46FA18BBC24B";
shapes = (
{
closed = 1;
nodes = (
(534,260,o),
(473,314,o),
(360,365,cs),
(322,382,l),
(322,708,l),
(389,699,o),
(458,666,o),
(491,621,c),
(528,648,l),
(473,706,o),
(410,744,o),
(322,752,c),
(322,822,l),
(284,822,l),
(284,752,l),
(162,743,o),
(67,668,o),
(67,559,cs),
(67,459,o),
(123,417,o),
(285,348,c),
(285,33,l),
(181,33,o),
(125,72,o),
(70,144,c),
(36,123,l),
(89,35,o),
(161,-10,o),
(285,-10,c),
(285,-93,l),
(323,-93,l),
(323,-10,l),
(443,-10,o),
(534,65,o),
(534,165,cs)
);
},
{
closed = 1;
nodes = (
(284,396,l),
(227,422,o),
(116,458,o),
(116,556,cs),
(116,659,o),
(217,708,o),
(284,708,c)
);
},
{
closed = 1;
nodes = (
(323,334,l),
(438,288,o),
(485,244,o),
(485,169,cs),
(485,91,o),
(421,33,o),
(323,33,c)
);
}
);
width = 574;
}
);
unicode = 36;
},
{
glyphname = percent;
layers = (
{
layerId = "8DBE427A-3D94-44F6-909C-34E8B708558F";
shapes = (
{
closed = 1;
nodes = (
(118,753,o),
(30,650,o),
(30,541,cs),
(30,433,o),
(116,334,o),
(229,334,cs),
(341,334,o),
(426,433,o),
(426,541,cs),
(426,650,o),
(339,753,o),
(229,753,cs)
);
},
{
closed = 1;
nodes = (
(187,432,o),
(175,469,o),
(175,540,cs),
(175,615,o),
(188,656,o),
(228,656,cs),
(268,656,o),
(281,616,o),
(281,540,cs),
(281,469,o),
(270,432,o),
(228,432,cs)
);
},
{
closed = 1;
nodes = (
(625,409,o),
(537,306,o),
(537,197,cs),
(537,89,o),
(623,-10,o),
(736,-10,cs),
(848,-10,o),
(933,89,o),
(933,197,cs),
(933,306,o),
(846,409,o),
(736,409,cs)
);
},
{
closed = 1;
nodes = (
(694,88,o),
(682,125,o),
(682,196,cs),
(682,271,o),
(695,312,o),
(735,312,cs),
(775,312,o),
(788,272,o),
(788,196,cs),
(788,125,o),
(777,88,o),
(735,88,cs)
);
},
{
alignment = -1;
pos = (360,0);
ref = fraction;
}
);
width = 973;
},
{
layerId = "7F526B41-32D4-4B88-B4BE-8E854E9660E0";
shapes = (
{
closed = 1;
nodes = (
(128,753,o),
(54,671,o),
(54,541,cs),
(54,410,o),
(128,329,o),
(229,329,cs),
(329,329,o),
(402,410,o),
(402,541,cs),
(402,671,o),
(329,753,o),
(229,753,cs)
);
},
{
closed = 1;
nodes = (
(162,380,o),
(123,446,o),
(123,540,cs),
(123,636,o),
(162,702,o),
(228,702,cs),
(294,702,o),
(333,637,o),
(333,540,cs),
(333,445,o),
(295,380,o),
(228,380,cs)
);
},
{
closed = 1;
nodes = (
(591,414,o),
(516,331,o),
(516,202,cs),
(516,71,o),
(590,-10,o),
(691,-10,cs),
(792,-10,o),
(864,71,o),
(864,202,cs),
(864,331,o),
(791,414,o),
(691,414,cs)
);
},
{
closed = 1;
nodes = (
(626,41,o),
(586,109,o),
(586,201,cs),
(586,294,o),
(626,363,o),
(690,363,cs),
(754,363,o),
(795,295,o),
(795,201,cs),
(795,108,o),
(755,41,o),
(690,41,cs)
);
},
{
alignment = -1;
pos = (337,0);
ref = fraction;
}
);
width = 921;
},
{
layerId = "B5FFAA16-DBAD-40DC-8294-46FA18BBC24B";
shapes = (
{
closed = 1;
nodes = (
(133,753,o),
(65,680,o),
(65,541,cs),
(65,400,o),
(133,327,o),
(229,327,cs),
(324,327,o),
(391,400,o),
(391,541,cs),
(391,680,o),
(324,753,o),
(229,753,cs)
);
},
{
closed = 1;
nodes = (
(150,357,o),
(100,435,o),
(100,540,cs),
(100,645,o),
(150,723,o),
(228,723,cs),
(306,723,o),
(356,646,o),
(356,540,cs),
(356,434,o),
(306,357,o),
(228,357,cs)
);
},
{
closed = 1;
nodes = (
(575,416,o),
(507,343,o),
(507,204,cs),
(507,63,o),
(575,-10,o),
(671,-10,cs),
(766,-10,o),
(833,63,o),
(833,204,cs),
(833,343,o),
(766,416,o),
(671,416,cs)
);
},
{
closed = 1;
nodes = (
(595,20,o),
(542,101,o),
(542,203,cs),
(542,305,o),
(595,386,o),
(670,386,cs),
(745,386,o),
(798,306,o),
(798,203,cs),
(798,100,o),
(745,20,o),
(670,20,cs)
);
},
{
alignment = -1;
pos = (327,0);
ref = fraction;
}
);
width = 898;
}
);
unicode = 37;
},
{
glyphname = ampersand;
layers = (
{
layerId = "8DBE427A-3D94-44F6-909C-34E8B708558F";
shapes = (
{
closed = 1;
nodes = (
(531,-10,o),
(723,181,o),
(814,381,c),
(664,429,l),
(628,338,o),
(452,135,o),
(319,135,cs),
(272,135,o),
(242,161,o),
(242,207,cs),
(242,272,o),
(304,301,o),
(344,321,cs),
(443,371,ls),
(525,413,o),
(648,484,o),
(648,590,cs),
(648,686,o),
(546,753,o),
(407,753,cs),
(259,753,o),
(156,676,o),
(156,578,cs),
(156,521,o),
(190,462,o),
(326,309,cs),
(354,277,o),
(433,187,o),
(447,171,cs),
(576,26,o),
(683,-10,o),
(839,-10,cs),
(839,-10,l),
(839,156,l),
(839,156,ls),
(766,156,o),
(685,185,o),
(571,306,cs),
(566,311,o),
(496,385,o),
(474,408,cs),
(371,516,o),
(352,550,o),
(352,582,cs),
(352,617,o),
(374,638,o),
(411,638,cs),
(450,638,o),
(477,614,o),
(477,578,cs),
(477,531,o),
(432,501,o),
(368,473,cs),
(260,426,ls),
(163,384,o),
(39,318,o),
(39,183,cs),
(39,67,o),
(132,-10,o),
(287,-10,cs)
);
}
);
width = 888;
},
{
layerId = "7F526B41-32D4-4B88-B4BE-8E854E9660E0";
shapes = (
{
closed = 1;
nodes = (
(477,-11,o),
(620,168,o),
(693,358,c),
(613,384,l),
(572,238,o),
(423,64,o),
(288,64,cs),
(202,64,o),
(146,121,o),
(146,208,cs),
(146,292,o),
(221,332,o),
(292,363,c),
(344,388,l),
(434,429,o),
(536,483,o),
(536,600,cs),
(536,706,o),
(452,752,o),
(362,752,cs),
(251,752,o),
(180,681,o),
(180,589,cs),
(180,533,o),
(205,467,o),
(275,365,c),
(318,286,o),
(398,178,o),
(455,121,c),
(540,31,o),
(618,-8,o),
(705,-8,cs),
(735,-8,l),
(735,74,l),
(708,74,ls),
(653,74,o),
(587,105,o),
(507,189,cs),
(462,236,o),
(388,337,o),
(351,407,c),
(291,494,o),
(273,551,o),
(273,589,cs),
(273,652,o),
(320,687,o),
(368,687,cs),
(409,687,o),
(451,661,o),
(451,589,cs),
(451,524,o),
(415,492,o),
(306,445,cs),
(250,421,ls),
(153,379,o),
(50,321,o),
(50,194,cs),
(50,75,o),
(138,-11,o),
(276,-11,cs)
);
}
);
width = 767;
},
{
layerId = "B5FFAA16-DBAD-40DC-8294-46FA18BBC24B";
shapes = (
{
closed = 1;
nodes = (
(448,-12,o),
(566,161,o),
(630,346,c),
(587,360,l),
(542,186,o),
(408,27,o),
(272,27,cs),
(166,27,o),
(95,100,o),
(95,209,cs),
(95,303,o),
(177,348,o),
(264,385,cs),
(292,397,ls),
(386,437,o),
(477,482,o),
(477,605,cs),
(477,716,o),
(403,751,o),
(338,751,cs),
(247,751,o),
(192,683,o),
(192,594,cs),
(192,539,o),
(213,470,o),
(249,395,cs),
(299,291,o),
(379,174,o),
(459,95,cs),
(521,33,o),
(584,-7,o),
(635,-7,cs),
(681,-7,l),
(681,31,l),
(639,31,ls),
(594,31,o),
(535,63,o),
(473,128,cs),
(408,197,o),
(331,312,o),
(286,406,cs),
(249,483,o),
(231,551,o),
(231,593,cs),
(231,670,o),
(291,713,o),
(345,713,cs),
(387,713,o),
(438,686,o),
(438,594,cs),
(438,521,o),
(406,488,o),
(274,431,cs),
(244,418,ls),
(147,376,o),
(55,323,o),
(55,199,cs),
(55,79,o),
(141,-12,o),
(270,-12,cs)
);
}
);
width = 704;
}
);
unicode = 38;
},
{
glyphname = quotesingle;
layers = (
{
layerId = "8DBE427A-3D94-44F6-909C-34E8B708558F";
shapes = (
{
closed = 1;
nodes = (
(30,742,l),
(77,411,l),
(171,411,l),
(218,742,l)
);
}
);
width = 248;
},
{
layerId = "7F526B41-32D4-4B88-B4BE-8E854E9660E0";
shapes = (
{
closed = 1;
nodes = (
(68,742,l),
(97,507,l),
(150,507,l),
(180,742,l)
);
}
);
width = 247;
},
{
layerId = "B5FFAA16-DBAD-40DC-8294-46FA18BBC24B";
shapes = (
{
closed = 1;
nodes = (
(85,742,l),
(106,550,l),
(140,550,l),
(162,742,l)
);
}
);
width = 247;
}
);
leftKerningGroup = quotedbl2;
rightKerningGroup = quotedbl;
unicode = 39;
},
{
glyphname = parenleft;
layers = (
{
layerId = "8DBE427A-3D94-44F6-909C-34E8B708558F";
shapes = (
{
closed = 1;
nodes = (
(181,742,l),
(93,613,o),
(35,456,o),
(35,285,cs),
(35,109,o),
(95,-20,o),
(182,-165,c),
(323,-165,l),
(248,-9,o),
(207,127,o),
(207,284,cs),
(207,448,o),
(252,607,o),
(323,742,c)
);
}
);
width = 342;
},
{
layerId = "7F526B41-32D4-4B88-B4BE-8E854E9660E0";
shapes = (
{
closed = 1;
nodes = (
(216,742,l),
(130,614,o),
(69,454,o),
(69,285,cs),
(69,111,o),
(123,-21,o),
(208,-165,c),
(269,-165,l),
(196,-12,o),
(157,130,o),
(157,284,cs),
(157,446,o),
(208,608,o),
(277,742,c)
);
}
);
width = 300;
},
{
layerId = "B5FFAA16-DBAD-40DC-8294-46FA18BBC24B";
shapes = (
{
closed = 1;
nodes = (
(232,742,l),
(147,615,o),
(85,453,o),
(85,285,cs),
(85,112,o),
(136,-22,o),
(220,-165,c),
(244,-165,l),
(172,-13,o),
(134,131,o),
(134,284,cs),
(134,445,o),
(188,609,o),
(256,742,c)
);
}
);
width = 281;
}
);
unicode = 40;
},
{
glyphname = asterisk;
layers = (
{
layerId = "8DBE427A-3D94-44F6-909C-34E8B708558F";
shapes = (
{
closed = 1;
nodes = (
(453,352,l),
(341,483,l),
(501,526,l),
(465,639,l),
(307,568,l),
(324,742,l),
(201,742,l),
(215,569,l),
(60,640,l),
(19,528,l),
(184,483,l),
(70,351,l),
(172,279,l),
(261,431,l),
(350,281,l)
);
}
);
width = 531;
},
{
layerId = "7F526B41-32D4-4B88-B4BE-8E854E9660E0";
shapes = (
{
closed = 1;
nodes = (
(333,440,l),
(239,555,l),
(370,597,l),
(352,654,l),
(222,598,l),
(231,742,l),
(164,742,l),
(173,599,l),
(46,650,l),
(25,593,l),
(159,555,l),
(62,435,l),
(116,397,l),
(198,529,l),
(278,401,l)
);
}
);
width = 391;
},
{
layerId = "B5FFAA16-DBAD-40DC-8294-46FA18BBC24B";
shapes = (
{
closed = 1;
nodes = (
(278,480,l),
(193,588,l),
(310,629,l),
(300,661,l),
(184,612,l),
(189,742,l),
(147,742,l),
(154,612,l),
(39,654,l),
(28,622,l),
(147,587,l),
(59,473,l),
(91,451,l),
(170,574,l),
(245,455,l)
);
}
);
width = 327;
}
);
unicode = 42;
},
{
glyphname = plus;
layers = (
{
layerId = "8DBE427A-3D94-44F6-909C-34E8B708558F";
shapes = (
{
closed = 1;
nodes = (
(40,444,l),
(40,303,l),
(562,303,l),
(562,444,l)
);
},
{
closed = 1;
nodes = (
(372,635,l),
(231,635,l),
(231,113,l),
(372,113,l)
);
}
);
width = 610;
},
{
layerId = "7F526B41-32D4-4B88-B4BE-8E854E9660E0";
shapes = (
{
closed = 1;
nodes = (
(61,408,l),
(61,337,l),
(499,338,l),
(499,408,l)
);
},
{
closed = 1;
nodes = (
(315,592,l),
(245,592,l),
(245,154,l),
(316,154,l)
);
}
);
width = 563;
},
{
layerId = "B5FFAA16-DBAD-40DC-8294-46FA18BBC24B";
shapes = (
{
closed = 1;
nodes = (
(70,391,l),
(70,353,l),
(471,354,l),
(471,392,l)
);
},
{
closed = 1;
nodes = (
(289,573,l),
(251,573,l),
(252,172,l),
(290,172,l)
);
}
);
width = 541;
}
);
unicode = 43;
},
{
glyphname = comma;
layers = (
{
layerId = "8DBE427A-3D94-44F6-909C-34E8B708558F";
shapes = (
{
closed = 1;
nodes = (
(103,-157,l),
(221,21,l),
(221,174,l),
(39,174,l),
(39,0,l),
(102,2,l),
(37,-157,l)
);
}
);
width = 289;
},
{
layerId = "7F526B41-32D4-4B88-B4BE-8E854E9660E0";
shapes = (
{
closed = 1;
nodes = (
(82,-127,l),
(168,15,l),
(168,111,l),
(53,111,l),
(53,0,l),
(97,1,l),
(39,-127,l)
);
}
);
width = 234;
},
{
guides = (
{
angle = 66.56;
position = "{97, 0}";
}
);
layerId = "B5FFAA16-DBAD-40DC-8294-46FA18BBC24B";
shapes = (
{
closed = 1;
nodes = (
(73,-114,l),
(144,12,l),
(144,82,l),
(59,82,l),
(59,0,l),
(95,0,l),
(40,-114,l)
);
}
);
width = 209;
}
);
leftKerningGroup = comma2;
rightKerningGroup = comma;
unicode = 44;
},
{
glyphname = hyphen;
layers = (
{
layerId = "8DBE427A-3D94-44F6-909C-34E8B708558F";
shapes = (
{
closed = 1;
nodes = (
(41,333,l),
(41,193,l),
(339,193,l),
(339,333,l)
);
}
);
width = 390;
},
{
layerId = "7F526B41-32D4-4B88-B4BE-8E854E9660E0";
shapes = (
{
closed = 1;
nodes = (
(61,300,l),
(61,229,l),
(320,229,l),
(320,301,l)
);
}
);
width = 384;
},
{
layerId = "B5FFAA16-DBAD-40DC-8294-46FA18BBC24B";
shapes = (
{
closed = 1;
nodes = (
(70,285,l),
(70,245,l),
(311,246,l),
(311,286,l)
);
}
);
width = 381;
}
);
leftKerningGroup = hyphen2;
rightKerningGroup = hyphen;
unicode = 45;
},
{
glyphname = period;
layers = (
{
layerId = "8DBE427A-3D94-44F6-909C-34E8B708558F";
shapes = (
{
closed = 1;
nodes = (
(32,201,l),
(32,0,l),
(242,0,l),
(242,201,l)
);
}
);
width = 289;
},
{
layerId = "7F526B41-32D4-4B88-B4BE-8E854E9660E0";
shapes = (
{
closed = 1;
nodes = (
(55,117,l),
(55,0,l),
(163,0,l),
(163,117,l)
);
}
);
width = 222;
},
{
layerId = "B5FFAA16-DBAD-40DC-8294-46FA18BBC24B";
shapes = (
{
closed = 1;
nodes = (
(65,79,l),
(65,0,l),
(127,0,l),
(127,79,l)
);
}
);
width = 192;
}
);
leftKerningGroup = comma2;
rightKerningGroup = comma;
unicode = 46;
},
{
glyphname = slash;
layers = (
{
layerId = "8DBE427A-3D94-44F6-909C-34E8B708558F";
shapes = (
{
closed = 1;
nodes = (
(126,0,l),
(388,742,l),
(256,742,l),
(-6,0,l)
);
}
);
width = 390;
},
{
layerId = "7F526B41-32D4-4B88-B4BE-8E854E9660E0";
shapes = (
{
closed = 1;
nodes = (
(80,-41,l),
(336,742,l),
(266,742,l),
(8,-41,l)
);
}
);
width = 347;
},
{
guides = (
{
position = "{0, 695}";
showMeasurement = 1;
}
);
layerId = "B5FFAA16-DBAD-40DC-8294-46FA18BBC24B";
shapes = (
{
closed = 1;
nodes = (
(59,-60,l),
(313,742,l),
(270,742,l),
(15,-60,l)
);
}
);
width = 328;
}
);
unicode = 47;
},
{
glyphname = zero;
layers = (
{
layerId = "8DBE427A-3D94-44F6-909C-34E8B708558F";
shapes = (
{
closed = 1;
nodes = (
(516,-12,o),
(638,143,o),
(638,371,cs),
(638,599,o),
(516,754,o),
(336,754,cs),
(156,754,o),
(34,599,o),
(34,371,cs),
(34,143,o),
(156,-12,o),
(336,-12,cs)
);
},
{
closed = 1;
nodes = (
(262,139,o),
(235,202,o),
(235,371,cs),
(235,540,o),
(262,603,o),
(336,603,cs),
(410,603,o),
(437,540,o),
(437,371,cs),
(437,202,o),
(410,139,o),
(336,139,cs)
);
}
);
width = 672;
},
{
layerId = "7F526B41-32D4-4B88-B4BE-8E854E9660E0";
shapes = (
{
closed = 1;
nodes = (
(478,-12,o),
(590,144,o),
(590,371,cs),
(590,598,o),
(478,754,o),
(314,754,cs),
(149,754,o),
(37,598,o),
(37,371,cs),
(37,144,o),
(149,-12,o),
(314,-12,cs)
);
},
{
closed = 1;
nodes = (
(193,64,o),
(128,173,o),
(128,372,cs),
(128,570,o),
(193,678,o),
(314,678,cs),
(435,678,o),
(500,570,o),
(500,372,cs),
(500,173,o),
(435,64,o),
(314,64,cs)
);
}
);
width = 628;
},
{
layerId = "B5FFAA16-DBAD-40DC-8294-46FA18BBC24B";
shapes = (
{
closed = 1;
nodes = (
(461,-12,o),
(568,144,o),
(568,371,cs),
(568,598,o),
(461,754,o),
(304,754,cs),
(146,754,o),
(39,598,o),
(39,371,cs),
(39,144,o),
(146,-12,o),
(304,-12,cs)
);
},
{
closed = 1;
nodes = (
(162,30,o),
(79,160,o),
(79,372,cs),
(79,583,o),
(162,712,o),
(304,712,cs),
(446,712,o),
(529,583,o),
(529,372,cs),
(529,160,o),
(446,30,o),
(304,30,cs)
);
}
);
width = 608;
}
);
leftKerningGroup = six2;
rightKerningGroup = six;
unicode = 48;
},
{
glyphname = one;
layers = (
{
background = {
shapes = (
{
closed = 1;
nodes = (
(396,164,ls),
(389,164,o),
(385,168,o),
(385,176,cs),
(385,721,ls),
(385,734,o),
(378,742,o),
(367,742,cs),
(282,742,ls),
(263,742,o),
(253,738,o),
(232,728,cs),
(52,638,ls),
(38,631,o),
(34,626,o),
(34,609,cs),
(34,525,ls),
(34,505,o),
(43,498,o),
(61,502,cs),
(141,520,ls),
(154,523,o),
(158,519,o),
(158,507,cs),
(158,173,ls),
(158,167,o),
(152,164,o),
(146,164,cs),
(57,164,ls),
(43,164,o),
(35,159,o),
(35,145,cs),
(35,21,ls),
(35,8,o),
(42,0,o),
(59,0,cs),
(484,0,ls),
(501,0,o),
(509,10,o),
(509,22,cs),
(509,145,ls),
(509,159,o),
(500,164,o),
(486,164,cs)
);
}
);
};
layerId = "8DBE427A-3D94-44F6-909C-34E8B708558F";
shapes = (
{
closed = 1;
nodes = (
(370,0,l),
(370,742,l),
(266,742,l),
(40,629,l),
(40,496,l),
(170,524,l),
(170,0,l)
);
},
{
closed = 1;
nodes = (
(35,164,l),
(35,0,l),
(509,0,l),
(509,164,l)
);
}
);
width = 537;
},
{
layerId = "7F526B41-32D4-4B88-B4BE-8E854E9660E0";
shapes = (
{
closed = 1;
nodes = (
(288,0,l),
(288,742,l),
(228,742,l),
(50,654,l),
(50,589,l),
(198,640,l),
(198,0,l)
);
},
{
closed = 1;
nodes = (
(49,80,l),
(49,0,l),
(428,0,l),
(428,80,l)
);
}
);
width = 469;
},
{
background = {
shapes = (
{
closed = 1;
nodes = (
(260,42,ls),
(257,42,o),
(255,44,o),
(255,48,cs),
(255,733,ls),
(255,739,o),
(252,742,o),
(247,742,cs),
(220,742,ls),
(212,742,o),
(207,741,o),
(198,736,cs),
(61,668,ls),
(56,665,o),
(55,665,o),
(55,659,cs),
(55,635,ls),
(55,629,o),
(58,626,o),
(63,628,cs),
(203,684,ls),
(208,686,o),
(209,683,o),
(209,678,cs),
(209,46,ls),
(209,43,o),
(206,42,o),
(203,42,cs),
(62,42,ls),
(58,42,o),
(56,40,o),
(56,36,cs),
(56,6,ls),
(56,3,o),
(58,0,o),
(62,0,cs),
(384,0,ls),
(389,0,o),
(391,4,o),
(391,6,cs),
(391,36,ls),
(391,40,o),
(389,42,o),
(384,42,cs)
);
}
);
};
layerId = "B5FFAA16-DBAD-40DC-8294-46FA18BBC24B";
shapes = (
{
closed = 1;
nodes = (
(251,0,l),
(251,742,l),
(210,742,l),
(55,665,l),
(55,631,l),
(211,692,l),
(211,0,l)
);
},
{
closed = 1;
nodes = (
(56,42,l),
(56,0,l),
(391,0,l),
(391,42,l)
);
}
);
width = 438;
}
);
leftKerningGroup = one2;
rightKerningGroup = one;
unicode = 49;
},
{
glyphname = two;
leftMetricsKey = "=44";
rightMetricsKey = "=45";
layers = (
{
layerId = "8DBE427A-3D94-44F6-909C-34E8B708558F";
shapes = (
{
closed = 1;
nodes = (
(606,0,l),
(606,180,l),
(288,180,l),
(291,172,l),
(479,312,l),
(568,381,o),
(600,441,o),
(600,517,cs),
(600,657,o),
(505,754,o),
(341,754,cs),
(180,754,o),
(66,658,o),
(44,511,c),
(197,465,l),
(214,545,o),
(268,604,o),
(323,604,cs),
(370,604,o),
(399,562,o),
(399,515,cs),
(399,465,o),
(382,440,o),
(260,326,cs),
(55,135,l),
(55,0,l)
);
}
);
width = 651;
},
{
layerId = "7F526B41-32D4-4B88-B4BE-8E854E9660E0";
shapes = (
{
closed = 1;
nodes = (
(560,0,l),
(560,85,l),
(162,85,l),
(166,76,l),
(391,283,l),
(508,392,o),
(552,456,o),
(552,542,cs),
(552,676,o),
(455,754,o),
(321,754,cs),
(183,754,o),
(82,672,o),
(44,534,c),
(123,513,l),
(146,608,o),
(222,676,o),
(313,676,cs),
(380,676,o),
(460,637,o),
(460,543,cs),
(460,470,o),
(419,417,o),
(308,311,c),
(68,77,l),
(68,0,l)
);
}
);
width = 605;
},
{
guides = (
{
angle = 90;
position = "{655, 0}";
}
);
layerId = "B5FFAA16-DBAD-40DC-8294-46FA18BBC24B";
shapes = (
{
closed = 1;
nodes = (
(540,0,l),
(540,42,l),
(106,42,l),
(110,32,l),
(353,270,ls),
(482,397,o),
(532,463,o),
(532,554,cs),
(532,684,o),
(433,754,o),
(313,754,cs),
(186,754,o),
(91,679,o),
(46,545,c),
(91,535,l),
(117,637,o),
(202,712,o),
(310,712,cs),
(386,712,o),
(489,671,o),
(489,555,cs),
(489,472,o),
(437,407,o),
(331,304,cs),
(76,51,l),
(76,0,l)
);
}
);
width = 594;
}
);
leftKerningGroup = two2;
rightKerningGroup = two;
unicode = 50;
},
{
glyphname = three;
layers = (
{
layerId = "8DBE427A-3D94-44F6-909C-34E8B708558F";
shapes = (
{
closed = 1;
nodes = (
(450,-12,o),
(611,30,o),
(611,209,cs),
(611,371,o),
(454,407,o),
(401,407,c),
(401,384,l),
(454,384,o),
(588,442,o),
(588,561,cs),
(588,689,o),
(450,754,o),
(329,754,cs),
(201,754,o),
(117,696,o),
(40,629,c),
(160,512,l),
(198,555,o),
(236,602,o),
(301,602,cs),
(354,602,o),
(374,564,o),
(374,534,cs),
(374,481,o),
(332,448,o),
(269,448,cs),
(213,448,l),
(213,299,l),
(282,299,l),
(281,299,o),
(397,309,o),
(397,216,cs),
(397,153,o),
(350,143,o),
(303,143,cs),
(275,143,o),
(195,154,o),
(153,250,c),
(20,141,l),
(61,74,o),
(177,-12,o),
(316,-12,cs)
);
}
);
width = 644;
},
{
layerId = "7F526B41-32D4-4B88-B4BE-8E854E9660E0";
shapes = (
{
closed = 1;
nodes = (
(436,-12,o),
(569,66,o),
(569,209,cs),
(569,374,o),
(409,403,o),
(337,403,c),
(337,380,l),
(413,380,o),
(543,434,o),
(543,561,cs),
(543,689,o),
(434,754,o),
(302,754,cs),
(203,754,o),
(140,709,o),
(71,642,c),
(130,585,l),
(182,642,o),
(222,677,o),
(301,677,cs),
(386,677,o),
(450,627,o),
(450,559,cs),
(450,473,o),
(386,424,o),
(260,424,cs),
(204,424,l),
(204,349,l),
(263,349,ls),
(422,349,o),
(475,286,o),
(475,204,cs),
(475,138,o),
(405,65,o),
(290,65,cs),
(224,65,o),
(153,102,o),
(99,181,c),
(34,128,l),
(102,43,o),
(185,-12,o),
(294,-12,cs)
);
}
);
width = 608;
},
{
layerId = "B5FFAA16-DBAD-40DC-8294-46FA18BBC24B";
shapes = (
{
closed = 1;
nodes = (
(429,-12,o),
(550,83,o),
(550,209,cs),
(550,375,o),
(389,401,o),
(308,401,c),
(308,378,l),
(394,378,o),
(523,431,o),
(523,561,cs),
(523,689,o),
(426,754,o),
(289,754,cs),
(204,754,o),
(151,715,o),
(85,648,c),
(117,618,l),
(175,681,o),
(215,712,o),
(301,712,cs),
(401,712,o),
(484,656,o),
(484,571,cs),
(484,470,o),
(411,413,o),
(256,413,cs),
(200,413,l),
(200,371,l),
(255,371,ls),
(486,371,o),
(510,276,o),
(510,198,cs),
(510,131,o),
(430,30,o),
(284,30,cs),
(201,30,o),
(134,78,o),
(75,149,c),
(40,122,l),
(121,29,o),
(188,-12,o),
(284,-12,cs)
);
}
);
width = 591;
}
);
leftKerningGroup = six2;
rightKerningGroup = six;
unicode = 51;
},
{
glyphname = four;
layers = (
{
layerId = "8DBE427A-3D94-44F6-909C-34E8B708558F";
shapes = (
{
closed = 1;
nodes = (
(546,0,l),
(546,742,l),
(353,742,l),
(44,311,l),
(44,160,l),
(656,160,l),
(656,309,l),
(164,309,l),
(164,261,l),
(375,578,l),
(339,578,l),
(339,0,l)
);
}
);
width = 700;
},
{
layerId = "7F526B41-32D4-4B88-B4BE-8E854E9660E0";
shapes = (
{
closed = 1;
nodes = (
(488,0,l),
(488,742,l),
(392,742,l),
(50,240,l),
(50,177,l),
(616,177,l),
(616,253,l),
(117,253,l),
(117,221,l),
(416,670,l),
(397,670,l),
(397,0,l)
);
}
);
width = 666;
},
{
layerId = "B5FFAA16-DBAD-40DC-8294-46FA18BBC24B";
shapes = (
{
closed = 1;
nodes = (
(462,0,l),
(462,742,l),
(409,742,l),
(53,208,l),
(53,185,l),
(598,185,l),
(598,227,l),
(96,227,l),
(96,203,l),
(435,712,l),
(423,712,l),
(423,0,l)
);
}
);
width = 651;
}
);
leftKerningGroup = four2;
rightKerningGroup = four;
unicode = 52;
},
{
glyphname = five;
layers = (
{
layerId = "8DBE427A-3D94-44F6-909C-34E8B708558F";
shapes = (
{
closed = 1;
nodes = (
(489,-10,o),
(604,80,o),
(604,241,cs),
(604,397,o),
(494,478,o),
(352,478,cs),
(290,478,o),
(258,470,o),
(200,446,c),
(218,434,l),
(228,576,l),
(548,576,l),
(555,742,l),
(97,742,l),
(66,377,l),
(198,300,l),
(237,316,o),
(268,332,o),
(307,332,cs),
(374,332,o),
(412,291,o),
(412,236,cs),
(412,179,o),
(374,134,o),
(297,134,cs),
(224,134,o),
(190,179,o),
(147,233,c),
(19,139,l),
(70,52,o),
(184,-10,o),
(318,-10,cs)
);
}
);
width = 644;
},
{
layerId = "7F526B41-32D4-4B88-B4BE-8E854E9660E0";
shapes = (
{
closed = 1;
nodes = (
(456,-11,o),
(569,104,o),
(569,248,cs),
(569,389,o),
(473,495,o),
(331,495,cs),
(249,495,o),
(191,471,o),
(130,414,c),
(142,408,l),
(163,663,l),
(518,663,l),
(521,743,l),
(94,743,l),
(62,356,l),
(132,324,l),
(169,381,o),
(240,419,o),
(308,419,cs),
(418,419,o),
(481,342,o),
(481,239,cs),
(481,139,o),
(395,64,o),
(292,64,cs),
(212,64,o),
(143,115,o),
(101,182,c),
(33,132,l),
(100,40,o),
(179,-11,o),
(306,-11,cs)
);
}
);
width = 610;
},
{
layerId = "B5FFAA16-DBAD-40DC-8294-46FA18BBC24B";
shapes = (
{
closed = 1;
nodes = (
(441,-12,o),
(552,114,o),
(552,250,cs),
(552,386,o),
(464,502,o),
(322,502,cs),
(231,502,o),
(160,472,o),
(98,399,c),
(108,396,l),
(134,702,l),
(503,702,l),
(504,742,l),
(92,742,l),
(60,345,l),
(102,334,l),
(138,410,o),
(227,458,o),
(309,458,cs),
(438,458,o),
(511,363,o),
(511,240,cs),
(511,121,o),
(404,32,o),
(290,32,cs),
(206,32,o),
(122,86,o),
(80,158,c),
(40,129,l),
(114,34,o),
(177,-12,o),
(301,-12,cs)
);
}
);
width = 594;
}
);
leftKerningGroup = five2;
rightKerningGroup = five;
unicode = 53;
},
{
glyphname = six;
layers = (
{
layerId = "8DBE427A-3D94-44F6-909C-34E8B708558F";
shapes = (
{
closed = 1;
nodes = (
(168,754,o),
(31,587,o),
(32,364,c),
(32,143,o),
(167,-12,o),
(344,-12,cs),
(497,-12,o),
(621,103,o),
(621,244,cs),
(621,369,o),
(523,464,o),
(406,464,cs),
(348,464,o),
(266,441,o),
(203,406,c),
(201,271,l),
(244,297,o),
(294,315,o),
(327,315,cs),
(375,315,o),
(415,279,o),
(415,230,cs),
(415,179,o),
(374,136,o),
(330,136,cs),
(270,136,o),
(238,214,o),
(238,364,cs),
(238,524,o),
(272,604,o),
(338,604,cs),
(384,604,o),
(430,585,o),
(461,540,c),
(588,664,l),
(528,733,o),
(434,754,o),
(349,754,cs)
);
}
);
width = 654;
},
{
layerId = "7F526B41-32D4-4B88-B4BE-8E854E9660E0";
shapes = (
{
closed = 1;
nodes = (
(173,754,o),
(37,582,o),
(38,339,c),
(38,122,o),
(147,-12,o),
(323,-12,cs),
(476,-12,o),
(580,88,o),
(580,236,cs),
(580,377,o),
(489,464,o),
(358,464,cs),
(251,464,o),
(153,407,o),
(114,322,c),
(122,243,l),
(153,330,o),
(236,388,o),
(333,388,cs),
(429,388,o),
(489,331,o),
(489,233,cs),
(489,129,o),
(422,64,o),
(318,64,cs),
(195,64,o),
(129,158,o),
(129,334,cs),
(129,541,o),
(221,678,o),
(353,678,cs),
(405,678,o),
(459,658,o),
(492,623,c),
(550,688,l),
(506,732,o),
(431,754,o),
(361,754,cs)
);
}
);
width = 618;
},
{
layerId = "B5FFAA16-DBAD-40DC-8294-46FA18BBC24B";
shapes = (
{
closed = 1;
nodes = (
(175,754,o),
(40,579,o),
(40,327,cs),
(40,112,o),
(138,-12,o),
(314,-12,cs),
(466,-12,o),
(562,81,o),
(562,233,cs),
(562,380,o),
(473,464,o),
(336,464,cs),
(207,464,o),
(102,392,o),
(73,284,c),
(86,230,l),
(111,345,o),
(209,421,o),
(335,421,cs),
(454,421,o),
(522,354,o),
(522,234,cs),
(522,106,o),
(444,31,o),
(313,31,cs),
(161,31,o),
(80,132,o),
(80,320,cs),
(80,548,o),
(198,711,o),
(360,711,cs),
(414,711,o),
(472,691,o),
(506,661,c),
(532,699,l),
(496,732,o),
(430,754,o),
(367,754,cs)
);
}
);
width = 601;
}
);
leftKerningGroup = six2;
rightKerningGroup = six;
unicode = 54;
},
{
glyphname = seven;
layers = (
{
layerId = "8DBE427A-3D94-44F6-909C-34E8B708558F";
shapes = (
{
closed = 1;
nodes = (
(369,0,l),
(373,188,o),
(455,413,o),
(605,641,c),
(605,742,l),
(48,742,l),
(36,576,l),
(400,576,l),
(385,610,l),
(248,399,o),
(153,153,o),
(149,0,c)
);
}
);
width = 618;
},
{
layerId = "7F526B41-32D4-4B88-B4BE-8E854E9660E0";
shapes = (
{
closed = 1;
nodes = (
(273,0,l),
(292,153,o),
(415,467,o),
(558,681,c),
(558,742,l),
(50,742,l),
(43,660,l),
(468,660,l),
(459,680,l),
(303,443,o),
(194,152,o),
(169,0,c)
);
}
);
width = 601;
},
{
layerId = "B5FFAA16-DBAD-40DC-8294-46FA18BBC24B";
shapes = (
{
closed = 1;
nodes = (
(227,0,l),
(253,136,o),
(395,493,o),
(536,700,c),
(536,742,l),
(51,742,l),
(46,700,l),
(500,700,l),
(494,714,l),
(329,464,o),
(213,151,o),
(178,0,c)
);
}
);
width = 593;
}
);
leftKerningGroup = seven2;
rightKerningGroup = seven;
unicode = 55;
},
{
glyphname = eight;
layers = (
{
layerId = "8DBE427A-3D94-44F6-909C-34E8B708558F";
shapes = (
{
closed = 1;
nodes = (
(432,-12,o),
(619,43,o),
(619,227,cs),
(619,373,o),
(500,408,o),
(448,431,c),
(448,396,l),
(496,418,o),
(585,462,o),
(585,553,cs),
(585,645,o),
(496,754,o),
(327,754,cs),
(157,754,o),
(43,659,o),
(43,514,cs),
(43,389,o),
(126,354,o),
(182,331,c),
(182,354,l),
(137,333,o),
(33,314,o),
(33,188,cs),
(33,82,o),
(108,-12,o),
(326,-12,cs)
);
},
{
closed = 1;
nodes = (
(279,138,o),
(227,156,o),
(227,207,cs),
(227,239,o),
(249,271,o),
(266,293,c),
(285,284,o),
(405,264,o),
(405,196,cs),
(405,162,o),
(373,138,o),
(326,138,cs)
);
},
{
closed = 1;
nodes = (
(322,483,o),
(242,506,o),
(242,551,cs),
(242,577,o),
(271,604,o),
(318,604,cs),
(366,604,o),
(403,572,o),
(403,533,cs),
(403,510,o),
(392,491,o),
(361,469,c)
);
}
);
width = 651;
},
{
layerId = "7F526B41-32D4-4B88-B4BE-8E854E9660E0";
shapes = (
{
closed = 1;
nodes = (
(469,-12,o),
(596,62,o),
(596,204,cs),
(596,358,o),
(452,392,o),
(369,415,c),
(369,380,l),
(476,410,o),
(564,477,o),
(564,573,cs),
(564,670,o),
(473,754,o),
(316,754,cs),
(160,754,o),
(60,676,o),
(60,557,cs),
(60,427,o),
(184,392,o),
(239,368,c),
(239,392,l),
(116,352,o),
(37,304,o),
(37,197,cs),
(37,75,o),
(136,-12,o),
(321,-12,cs)
);
},
{
closed = 1;
nodes = (
(208,64,o),
(126,120,o),
(126,210,cs),
(126,269,o),
(162,302,o),
(287,351,c),
(329,338,o),
(503,314,o),
(503,194,cs),
(503,118,o),
(431,64,o),
(321,64,cs)
);
},
{
closed = 1;
nodes = (
(240,445,o),
(150,498,o),
(150,570,cs),
(150,628,o),
(209,678,o),
(317,678,cs),
(420,678,o),
(479,630,o),
(479,568,cs),
(479,510,o),
(428,461,o),
(340,432,c)
);
}
);
width = 635;
},
{
layerId = "B5FFAA16-DBAD-40DC-8294-46FA18BBC24B";
shapes = (
{
closed = 1;
nodes = (
(486,-12,o),
(586,70,o),
(586,194,cs),
(586,351,o),
(430,384,o),
(333,408,c),
(333,373,l),
(467,406,o),
(554,484,o),
(554,582,cs),
(554,682,o),
(463,754,o),
(311,754,cs),
(161,754,o),
(67,683,o),
(67,577,cs),
(67,444,o),
(211,409,o),
(265,385,c),
(265,409,l),
(106,361,o),
(39,300,o),
(39,201,cs),
(39,72,o),
(148,-12,o),
(319,-12,cs)
);
},
{
closed = 1;
nodes = (
(176,31,o),
(80,103,o),
(80,211,cs),
(80,282,o),
(123,316,o),
(296,378,c),
(349,362,o),
(547,336,o),
(547,193,cs),
(547,98,o),
(458,31,o),
(319,31,cs)
);
},
{
closed = 1;
nodes = (
(203,428,o),
(108,494,o),
(108,578,cs),
(108,651,o),
(181,711,o),
(317,711,cs),
(445,711,o),
(513,657,o),
(513,584,cs),
(513,510,o),
(445,447,o),
(331,415,c)
);
}
);
width = 627;
}
);
leftKerningGroup = six2;
rightKerningGroup = six;
unicode = 56;
},
{
glyphname = nine;
layers = (
{
layerId = "8DBE427A-3D94-44F6-909C-34E8B708558F";
shapes = (
{
closed = 1;
nodes = (
(486,-12,o),
(623,155,o),
(622,378,c),
(622,599,o),
(487,754,o),
(310,754,cs),
(157,754,o),
(33,639,o),
(33,498,cs),
(33,373,o),
(131,278,o),
(248,278,cs),
(306,278,o),
(388,301,o),
(452,336,c),
(453,471,l),
(410,445,o),
(360,427,o),
(327,427,cs),
(279,427,o),
(240,463,o),
(240,512,cs),
(240,563,o),
(280,606,o),
(325,606,cs),
(385,606,o),
(416,528,o),
(416,378,cs),
(416,218,o),
(382,138,o),
(316,138,cs),
(270,138,o),
(224,157,o),
(194,202,c),
(66,78,l),
(126,9,o),
(220,-12,o),
(305,-12,cs)
);
}
);
width = 654;
},
{
layerId = "7F526B41-32D4-4B88-B4BE-8E854E9660E0";
shapes = (
{
closed = 1;
nodes = (
(445,-12,o),
(580,161,o),
(580,403,c),
(580,620,o),
(471,754,o),
(294,754,cs),
(142,754,o),
(37,654,o),
(37,506,cs),
(37,365,o),
(129,278,o),
(260,278,cs),
(367,278,o),
(464,335,o),
(504,420,c),
(496,499,l),
(465,412,o),
(382,354,o),
(285,354,cs),
(188,354,o),
(129,411,o),
(129,509,cs),
(129,613,o),
(195,678,o),
(300,678,cs),
(423,678,o),
(488,584,o),
(488,408,cs),
(488,202,o),
(396,64,o),
(264,64,cs),
(213,64,o),
(159,84,o),
(126,119,c),
(68,54,l),
(112,10,o),
(186,-12,o),
(256,-12,cs)
);
}
);
width = 618;
},
{
layerId = "B5FFAA16-DBAD-40DC-8294-46FA18BBC24B";
shapes = (
{
closed = 1;
nodes = (
(426,-12,o),
(561,163,o),
(561,415,cs),
(561,630,o),
(463,754,o),
(287,754,cs),
(135,754,o),
(39,661,o),
(39,509,cs),
(39,362,o),
(128,278,o),
(265,278,cs),
(394,278,o),
(499,350,o),
(528,458,c),
(515,512,l),
(490,397,o),
(392,321,o),
(266,321,cs),
(147,321,o),
(79,388,o),
(79,508,cs),
(79,636,o),
(157,711,o),
(288,711,cs),
(440,711,o),
(521,610,o),
(521,422,cs),
(521,194,o),
(403,31,o),
(241,31,cs),
(187,31,o),
(129,51,o),
(95,81,c),
(69,43,l),
(105,10,o),
(171,-12,o),
(234,-12,cs)
);
}
);
width = 601;
}
);
leftKerningGroup = six2;
rightKerningGroup = six;
unicode = 57;
},
{
glyphname = colon;
layers = (
{
layerId = "8DBE427A-3D94-44F6-909C-34E8B708558F";
shapes = (
{
closed = 1;
nodes = (
(32,525,l),
(32,328,l),
(242,328,l),
(242,525,l)
);
},
{
closed = 1;
nodes = (
(32,200,l),
(32,3,l),
(242,3,l),
(242,200,l)
);
}
);
width = 289;
},
{
layerId = "7F526B41-32D4-4B88-B4BE-8E854E9660E0";
shapes = (
{
closed = 1;
nodes = (
(55,508,l),
(55,392,l),
(163,392,l),
(163,508,l)
);
},
{
closed = 1;
nodes = (
(55,119,l),
(55,3,l),
(163,3,l),
(163,119,l)
);
}
);
width = 222;
},
{
layerId = "B5FFAA16-DBAD-40DC-8294-46FA18BBC24B";
shapes = (
{
closed = 1;
nodes = (
(65,500,l),
(65,421,l),
(127,421,l),
(127,500,l)
);
},
{
closed = 1;
nodes = (
(65,82,l),
(65,3,l),
(127,3,l),
(127,82,l)
);
}
);
width = 192;
}
);
rightKerningGroup = comma;
unicode = 58;
},
{
glyphname = semicolon;
layers = (
{
layerId = "8DBE427A-3D94-44F6-909C-34E8B708558F";
shapes = (
{
closed = 1;
nodes = (
(108,-169,l),
(242,23,l),
(242,198,l),
(32,198,l),
(32,0,l),
(104,0,l),
(29,-169,l)
);
},
{
closed = 1;
nodes = (
(242,321,l),
(242,522,l),
(32,522,l),
(32,321,l)
);
}
);
width = 289;
},
{
layerId = "7F526B41-32D4-4B88-B4BE-8E854E9660E0";
shapes = (
{
closed = 1;
nodes = (
(83,-145,l),
(168,13,l),
(168,116,l),
(60,116,l),
(60,0,l),
(102,0,l),
(43,-145,l)
);
},
{
closed = 1;
nodes = (
(164,390,l),
(164,507,l),
(56,507,l),
(56,390,l)
);
}
);
width = 244;
},
{
layerId = "B5FFAA16-DBAD-40DC-8294-46FA18BBC24B";
shapes = (
{
closed = 1;
nodes = (
(72,-134,l),
(134,9,l),
(134,79,l),
(72,79,l),
(72,0,l),
(101,0,l),
(50,-134,l)
);
},
{
closed = 1;
nodes = (
(129,421,l),
(129,500,l),
(67,500,l),
(67,421,l)
);
}
);
width = 224;
}
);
unicode = 59;
},
{
glyphname = less;
layers = (
{
layerId = "8DBE427A-3D94-44F6-909C-34E8B708558F";
shapes = (
{
closed = 1;
nodes = (
(246,348,l),
(544,460,l),
(544,625,l),
(35,429,l),
(35,270,l),
(544,74,l),
(544,240,l)
);
}
);
width = 609;
},
{
layerId = "7F526B41-32D4-4B88-B4BE-8E854E9660E0";
shapes = (
{
closed = 1;
nodes = (
(164,355,l),
(485,481,l),
(485,567,l),
(56,397,l),
(56,313,l),
(484,146,l),
(484,230,l)
);
}
);
width = 557;
},
{
layerId = "B5FFAA16-DBAD-40DC-8294-46FA18BBC24B";
shapes = (
{
closed = 1;
nodes = (
(126,358,l),
(458,490,l),
(458,540,l),
(65,382,l),
(65,333,l),
(457,178,l),
(457,225,l)
);
}
);
width = 533;
}
);
unicode = 60;
},
{
glyphname = equal;
layers = (
{
layerId = "8DBE427A-3D94-44F6-909C-34E8B708558F";
shapes = (
{
closed = 1;
nodes = (
(40,540,l),
(40,399,l),
(562,399,l),
(562,540,l)
);
},
{
closed = 1;
nodes = (
(40,299,l),
(40,158,l),
(562,158,l),
(562,299,l)
);
}
);
width = 610;
},
{
layerId = "7F526B41-32D4-4B88-B4BE-8E854E9660E0";
shapes = (
{
closed = 1;
nodes = (
(61,506,l),
(61,436,l),
(499,436,l),
(499,506,l)
);
},
{
closed = 1;
nodes = (
(61,280,l),
(61,210,l),
(499,210,l),
(499,280,l)
);
}
);
width = 563;
},
{
layerId = "B5FFAA16-DBAD-40DC-8294-46FA18BBC24B";
shapes = (
{
closed = 1;
nodes = (
(70,491,l),
(70,453,l),
(471,453,l),
(471,491,l)
);
},
{
closed = 1;
nodes = (
(70,271,l),
(70,233,l),
(471,233,l),
(471,271,l)
);
}
);
width = 541;
}
);
unicode = 61;
},
{
glyphname = greater;
layers = (
{
layerId = "8DBE427A-3D94-44F6-909C-34E8B708558F";
shapes = (
{
closed = 1;
nodes = (
(55,74,l),
(564,270,l),
(564,429,l),
(55,625,l),
(55,460,l),
(353,348,l),
(55,240,l)
);
}
);
width = 609;
},
{
layerId = "7F526B41-32D4-4B88-B4BE-8E854E9660E0";
shapes = (
{
closed = 1;
nodes = (
(69,146,l),
(498,313,l),
(498,397,l),
(69,567,l),
(69,481,l),
(390,355,l),
(69,230,l)
);
}
);
width = 557;
},
{
layerId = "B5FFAA16-DBAD-40DC-8294-46FA18BBC24B";
shapes = (
{
closed = 1;
nodes = (
(76,178,l),
(468,333,l),
(468,382,l),
(75,540,l),
(75,490,l),
(407,358,l),
(76,225,l)
);
}
);
width = 533;
}
);
unicode = 62;
},
{
glyphname = question;
layers = (
{
layerId = "8DBE427A-3D94-44F6-909C-34E8B708558F";
shapes = (
{
closed = 1;
nodes = (
(331,269,l),
(331,279,ls),
(331,318,o),
(346,349,o),
(373,373,cs),
(461,450,ls),
(496,481,o),
(522,521,o),
(522,580,cs),
(522,671,o),
(419,752,o),
(264,752,cs),
(125,752,o),
(31,687,o),
(-13,565,c),
(153,529,l),
(176,589,o),
(217,622,o),
(262,622,cs),
(297,622,o),
(327,601,o),
(327,569,cs),
(327,545,o),
(310,524,o),
(290,502,cs),
(219,424,ls),
(190,392,o),
(175,345,o),
(175,283,cs),
(175,269,l)
);
},
{
closed = 1;
nodes = (
(148,197,l),
(148,0,l),
(358,0,l),
(358,197,l)
);
}
);
width = 537;
},
{
layerId = "7F526B41-32D4-4B88-B4BE-8E854E9660E0";
shapes = (
{
closed = 1;
nodes = (
(235,242,l),
(235,289,ls),
(235,327,o),
(256,358,o),
(287,385,cs),
(365,453,ls),
(402,486,o),
(429,530,o),
(429,591,cs),
(429,683,o),
(344,752,o),
(231,752,cs),
(138,752,o),
(72,706,o),
(26,612,c),
(110,586,l),
(139,651,o),
(179,681,o),
(231,681,cs),
(288,681,o),
(335,639,o),
(335,587,cs),
(335,548,o),
(315,519,o),
(287,493,cs),
(214,425,ls),
(178,392,o),
(151,348,o),
(151,282,cs),
(151,242,l)
);
},
{
closed = 1;
nodes = (
(134,131,l),
(134,0,l),
(252,0,l),
(252,131,l)
);
}
);
width = 460;
},
{
layerId = "B5FFAA16-DBAD-40DC-8294-46FA18BBC24B";
shapes = (
{
closed = 1;
nodes = (
(184,228,l),
(184,294,ls),
(184,332,o),
(209,362,o),
(242,391,cs),
(314,455,ls),
(353,489,o),
(381,535,o),
(381,594,cs),
(381,690,o),
(305,752,o),
(214,752,cs),
(145,752,o),
(93,716,o),
(46,636,c),
(87,616,l),
(119,683,o),
(159,712,o),
(212,712,cs),
(284,712,o),
(339,659,o),
(339,592,cs),
(339,550,o),
(318,516,o),
(286,489,cs),
(212,426,ls),
(172,392,o),
(139,349,o),
(139,282,cs),
(139,228,l)
);
},
{
closed = 1;
nodes = (
(127,96,l),
(127,0,l),
(197,0,l),
(197,96,l)
);
}
);
width = 420;
}
);
leftKerningGroup = question;
unicode = 63;
},
{
glyphname = at;
layers = (
{
layerId = "8DBE427A-3D94-44F6-909C-34E8B708558F";
shapes = (
{
closed = 1;
nodes = (
(630,38,l),
(581,5,o),
(539,-21,o),
(445,-21,cs),
(266,-21,o),
(146,74,o),
(146,265,cs),
(146,424,o),
(229,560,o),
(450,560,cs),
(586,560,o),
(708,508,o),
(708,332,cs),
(708,228,o),
(666,185,o),
(631,185,cs),
(614,185,o),
(600,196,o),
(607,235,cs),
(643,449,l),
(537,449,l),
(535,437,l),
(533,430,o),
(529,429,o),
(525,433,cs),
(502,454,o),
(478,475,o),
(422,475,cs),
(292,475,o),
(213,363,o),
(213,244,c),
(212,136,o),
(280,67,o),
(372,67,cs),
(426,67,o),
(472,90,o),
(502,123,cs),
(508,130,o),
(509,131,o),
(515,124,cs),
(527,110,o),
(554,81,o),
(617,81,cs),
(737,81,o),
(817,187,o),
(817,338,cs),
(817,565,o),
(636,661,o),
(450,661,cs),
(191,661,o),
(33,477,o),
(33,262,cs),
(33,55,o),
(180,-113,o),
(428,-113,cs),
(546,-113,o),
(639,-74,o),
(684,-35,c)
);
},
{
closed = 1;
nodes = (
(345,318,o),
(387,364,o),
(432,364,cs),
(475,364,o),
(497,323,o),
(497,283,cs),
(497,232,o),
(460,178,o),
(408,178,cs),
(364,178,o),
(345,218,o),
(345,258,cs)
);
}
);
width = 844;
},
{
layerId = "7F526B41-32D4-4B88-B4BE-8E854E9660E0";
shapes = (
{
closed = 1;
nodes = (
(636,11,l),
(584,-25,o),
(540,-54,o),
(448,-54,cs),
(232,-54,o),
(116,82,o),
(116,260,cs),
(116,445,o),
(234,600,o),
(449,600,cs),
(587,600,o),
(735,527,o),
(735,333,cs),
(735,214,o),
(678,143,o),
(615,143,cs),
(581,143,o),
(566,162,o),
(575,221,cs),
(613,449,l),
(551,449,l),
(543,416,ls),
(542,410,o),
(538,410,o),
(536,412,c),
(513,449,o),
(476,475,o),
(421,475,cs),
(306,475,o),
(227,370,o),
(227,243,c),
(226,136,o),
(292,67,o),
(369,67,cs),
(434,67,o),
(478,96,o),
(508,135,cs),
(514,142,o),
(516,143,o),
(519,134,cs),
(529,99,o),
(557,81,o),
(609,81,cs),
(721,81,o),
(803,187,o),
(803,339,cs),
(803,564,o),
(623,661,o),
(449,661,cs),
(208,661,o),
(47,477,o),
(47,261,cs),
(47,55,o),
(191,-113,o),
(434,-113,cs),
(529,-113,o),
(611,-82,o),
(671,-36,c)
);
},
{
closed = 1;
nodes = (
(302,338,o),
(353,410,o),
(426,410,cs),
(478,410,o),
(527,362,o),
(514,271,cs),
(505,196,o),
(449,132,o),
(383,132,cs),
(332,132,o),
(302,178,o),
(302,248,cs)
);
}
);
width = 837;
},
{
layerId = "B5FFAA16-DBAD-40DC-8294-46FA18BBC24B";
shapes = (
{
closed = 1;
nodes = (
(638,-1,l),
(585,-38,o),
(541,-69,o),
(449,-69,cs),
(216,-69,o),
(102,86,o),
(102,258,cs),
(102,454,o),
(236,618,o),
(448,618,cs),
(587,618,o),
(747,536,o),
(747,334,cs),
(747,208,o),
(684,124,o),
(607,124,cs),
(566,124,o),
(550,147,o),
(561,214,cs),
(600,449,l),
(558,449,l),
(547,406,ls),
(546,401,o),
(542,401,o),
(541,403,cs),
(518,447,o),
(475,475,o),
(421,475,cs),
(313,475,o),
(233,373,o),
(233,243,cs),
(233,136,o),
(297,67,o),
(367,67,cs),
(437,67,o),
(480,98,o),
(510,140,cs),
(516,148,o),
(519,148,o),
(521,138,cs),
(530,94,o),
(558,81,o),
(606,81,cs),
(713,81,o),
(797,187,o),
(797,340,cs),
(797,564,o),
(617,661,o),
(449,661,cs),
(215,661,o),
(53,477,o),
(53,261,cs),
(53,55,o),
(196,-113,o),
(437,-113,cs),
(521,-113,o),
(598,-85,o),
(665,-36,c)
);
},
{
closed = 1;
nodes = (
(283,347,o),
(337,431,o),
(423,431,cs),
(480,431,o),
(540,380,o),
(522,266,cs),
(508,180,o),
(444,111,o),
(372,111,cs),
(317,111,o),
(283,160,o),
(283,244,cs)
);
}
);
width = 834;
}
);
leftKerningGroup = c;
rightKerningGroup = b;
unicode = 64;
},
{
glyphname = A;
layers = (
{
anchors = (
{
name = ogonek;
position = "{741, 9}";
},
{
name = top;
position = "{375, 742}";
},
{
name = bottom;
position = "{375, 0}";
}
);
guides = (
{
angle = 90;
position = "{-1029, 0}";
}
);
layerId = "8DBE427A-3D94-44F6-909C-34E8B708558F";
shapes = (
{
closed = 1;
nodes = (
(209,0,l),
(259,144,l),
(493,144,l),
(542,0,l),
(739,0,l),
(477,742,l),
(273,742,l),
(10,0,l)
);
},
{
closed = 1;
nodes = (
(375,551,l),
(448,314,l),
(301,314,l)
);
}
);
width = 739;
},
{
anchors = (
{
name = ogonek;
position = "{657, 10}";
},
{
name = top;
position = "{344, 742}";
},
{
name = bottom;
position = "{344, 0}";
}
);
guides = (
{
angle = 90;
position = "{-1029, 0}";
}
);
layerId = "7F526B41-32D4-4B88-B4BE-8E854E9660E0";
shapes = (
{
closed = 1;
nodes = (
(116,0,l),
(192,206,l),
(498,206,l),
(572,0,l),
(663,0,l),
(396,742,l),
(293,742,l),
(24,0,l)
);
},
{
closed = 1;
nodes = (
(345,652,l),
(473,289,l),
(214,289,l)
);
}
);
width = 684;
},
{
anchors = (
{
name = ogonek;
position = "{619, 11}";
},
{
name = top;
position = "{330, 742}";
},
{
name = bottom;
position = "{330, 0}";
}
);
guides = (
{
angle = 69.497;
position = "{118, 119}";
},
{
angle = 110.08;
position = "{542, 119}";
},
{
angle = 90;
position = "{-1029, 0}";
}
);
layerId = "B5FFAA16-DBAD-40DC-8294-46FA18BBC24B";
shapes = (
{
closed = 1;
nodes = (
(73,0,l),
(161,234,l),
(500,234,l),
(585,0,l),
(629,0,l),
(359,742,l),
(302,742,l),
(30,0,l)
);
},
{
closed = 1;
nodes = (
(331,698,l),
(485,278,l),
(175,278,l)
);
}
);
width = 659;
}
);
leftKerningGroup = A2;
rightKerningGroup = A;
unicode = 65;
},
{
glyphname = B;
leftMetricsKey = N;
layers = (
{
layerId = "8DBE427A-3D94-44F6-909C-34E8B708558F";
shapes = (
{
closed = 1;
nodes = (
(372,0,ls),
(588,0,o),
(671,64,o),
(671,202,cs),
(671,257,o),
(664,343,o),
(533,382,c),
(625,427,o),
(653,477,o),
(653,546,cs),
(653,672,o),
(563,742,o),
(356,742,cs),
(60,742,l),
(60,0,l)
);
},
{
closed = 1;
nodes = (
(260,298,l),
(385,298,ls),
(435,298,o),
(468,268,o),
(468,227,cs),
(468,188,o),
(438,150,o),
(380,150,cs),
(260,150,l)
);
},
{
closed = 1;
nodes = (
(260,592,l),
(378,592,ls),
(425,592,o),
(462,564,o),
(462,520,cs),
(462,481,o),
(432,452,o),
(385,452,cs),
(260,452,l)
);
}
);
width = 691;
},
{
layerId = "7F526B41-32D4-4B88-B4BE-8E854E9660E0";
shapes = (
{
closed = 1;
nodes = (
(340,0,ls),
(528,0,o),
(625,65,o),
(625,199,cs),
(625,284,o),
(585,353,o),
(468,378,c),
(571,413,o),
(607,469,o),
(607,549,cs),
(607,673,o),
(512,742,o),
(333,742,cs),
(98,742,l),
(98,0,l)
);
},
{
closed = 1;
nodes = (
(188,337,l),
(351,337,ls),
(452,337,o),
(534,298,o),
(534,203,cs),
(534,116,o),
(466,76,o),
(339,76,cs),
(188,76,l)
);
},
{
closed = 1;
nodes = (
(188,666,l),
(337,666,ls),
(445,666,o),
(520,625,o),
(520,537,cs),
(520,441,o),
(429,414,o),
(351,414,cs),
(188,414,l)
);
}
);
width = 679;
},
{
layerId = "B5FFAA16-DBAD-40DC-8294-46FA18BBC24B";
shapes = (
{
closed = 1;
nodes = (
(326,0,ls),
(501,0,o),
(604,66,o),
(604,198,cs),
(604,296,o),
(549,358,o),
(439,376,c),
(546,407,o),
(586,466,o),
(586,550,cs),
(586,674,o),
(489,742,o),
(323,742,cs),
(115,742,l),
(115,0,l)
);
},
{
closed = 1;
nodes = (
(155,354,l),
(335,354,ls),
(460,354,o),
(564,312,o),
(564,192,cs),
(564,83,o),
(479,42,o),
(321,42,cs),
(155,42,l)
);
},
{
closed = 1;
nodes = (
(155,700,l),
(319,700,ls),
(454,700,o),
(546,653,o),
(546,545,cs),
(546,423,o),
(428,396,o),
(335,396,cs),
(155,396,l)
);
}
);
width = 674;
}
);
leftKerningGroup = B;
unicode = 66;
},
{
glyphname = C;
layers = (
{
anchors = (
{
name = bottom;
position = "{375, 0}";
},
{
name = top;
position = "{375, 742}";
}
);
guides = (
{
angle = 176.441;
position = "{500, 331}";
}
);
layerId = "8DBE427A-3D94-44F6-909C-34E8B708558F";
shapes = (
{
closed = 1;
nodes = (
(158,752,o),
(20,606,o),
(20,381,cs),
(20,155,o),
(160,-10,o),
(375,-10,cs),
(612,-10,o),
(676,110,o),
(697,264,c),
(499,277,l),
(487,208,o),
(449,150,o),
(381,150,cs),
(306,150,o),
(238,212,o),
(238,377,cs),
(238,540,o),
(306,592,o),
(381,592,cs),
(449,592,o),
(487,544,o),
(499,475,c),
(697,488,l),
(680,648,o),
(551,752,o),
(375,752,cs)
);
}
);
width = 707;
},
{
anchors = (
{
name = bottom;
position = "{363, 0}";
},
{
name = top;
position = "{363, 742}";
}
);
guides = (
{
angle = 176.441;
position = "{500, 331}";
}
);
layerId = "7F526B41-32D4-4B88-B4BE-8E854E9660E0";
shapes = (
{
closed = 1;
nodes = (
(161,752,o),
(48,609,o),
(48,372,cs),
(48,136,o),
(163,-10,o),
(363,-10,cs),
(521,-10,o),
(622,83,o),
(636,204,c),
(544,217,l),
(525,126,o),
(457,69,o),
(366,69,cs),
(224,69,o),
(147,171,o),
(147,371,cs),
(147,575,o),
(225,673,o),
(360,673,cs),
(469,673,o),
(530,609,o),
(546,522,c),
(639,531,l),
(625,654,o),
(517,752,o),
(357,752,cs)
);
}
);
width = 683;
},
{
anchors = (
{
name = bottom;
position = "{357, 0}";
},
{
name = top;
position = "{357, 742}";
}
);
guides = (
{
angle = 90;
position = "{726, 0}";
}
);
layerId = "B5FFAA16-DBAD-40DC-8294-46FA18BBC24B";
shapes = (
{
closed = 1;
nodes = (
(162,752,o),
(60,610,o),
(60,368,cs),
(60,127,o),
(164,-10,o),
(357,-10,cs),
(479,-10,o),
(597,71,o),
(608,177,c),
(565,189,l),
(542,89,o),
(461,32,o),
(359,32,cs),
(186,32,o),
(105,153,o),
(105,368,cs),
(105,591,o),
(188,710,o),
(351,710,cs),
(478,710,o),
(549,639,o),
(568,543,c),
(612,550,l),
(600,656,o),
(501,752,o),
(349,752,cs)
);
}
);
width = 672;
}
);
leftKerningGroup = C2;
rightKerningGroup = C;
unicode = 67;
},
{
glyphname = D;
leftMetricsKey = N;
layers = (
{
anchors = (
{
name = center;
position = "{371, 371}";
},
{
name = top;
position = "{371, 742}";
}
);
layerId = "8DBE427A-3D94-44F6-909C-34E8B708558F";
shapes = (
{
closed = 1;
nodes = (
(60,0,l),
(325,0,ls),
(588,0,o),
(710,157,o),
(710,373,cs),
(710,584,o),
(594,731,o),
(326,741,cs),
(262,743,o),
(81,742,o),
(60,742,c)
);
},
{
closed = 1;
nodes = (
(331,585,ls),
(433,585,o),
(502,513,o),
(502,376,cs),
(502,215,o),
(407,157,o),
(331,157,cs),
(260,157,l),
(260,585,l)
);
}
);
width = 735;
},
{
anchors = (
{
name = center;
position = "{350, 371}";
},
{
name = top;
position = "{346, 742}";
}
);
layerId = "7F526B41-32D4-4B88-B4BE-8E854E9660E0";
shapes = (
{
closed = 1;
nodes = (
(98,0,l),
(256,0,ls),
(525,0,o),
(652,128,o),
(652,375,cs),
(652,612,o),
(538,737,o),
(266,741,cs),
(203,742,o),
(106,742,o),
(98,742,c)
);
},
{
closed = 1;
nodes = (
(260,663,ls),
(447,663,o),
(556,592,o),
(556,373,cs),
(556,157,o),
(443,78,o),
(255,78,cs),
(191,78,l),
(191,663,l)
);
}
);
width = 711;
},
{
anchors = (
{
name = center;
position = "{341, 371}";
},
{
name = top;
position = "{335, 742}";
}
);
layerId = "B5FFAA16-DBAD-40DC-8294-46FA18BBC24B";
shapes = (
{
closed = 1;
nodes = (
(115,0,l),
(224,0,ls),
(496,0,o),
(625,115,o),
(625,376,cs),
(625,624,o),
(513,739,o),
(238,741,cs),
(176,741,o),
(117,742,o),
(115,742,c)
);
},
{
closed = 1;
nodes = (
(227,699,ls),
(453,699,o),
(581,628,o),
(581,372,cs),
(581,130,o),
(460,42,o),
(220,42,cs),
(159,42,l),
(159,699,l)
);
}
);
width = 700;
}
);
leftKerningGroup = B;
rightKerningGroup = D;
unicode = 68;
},
{
glyphname = E;
leftMetricsKey = N;
layers = (
{
anchors = (
{
name = bottom;
position = "{333, 0}";
},
{
name = ogonek;
position = "{607, 10}";
},
{
name = top;
position = "{333, 742}";
}
);
layerId = "8DBE427A-3D94-44F6-909C-34E8B708558F";
shapes = (
{
closed = 1;
nodes = (
(608,0,l),
(608,166,l),
(260,166,l),
(260,292,l),
(550,292,l),
(550,453,l),
(261,453,l),
(261,576,l),
(606,576,l),
(607,742,l),
(60,742,l),
(60,0,l)
);
}
);
width = 648;
},
{
anchors = (
{
name = bottom;
position = "{352, 0}";
},
{
name = ogonek;
position = "{565, 10}";
},
{
name = top;
position = "{339, 742}";
}
);
layerId = "7F526B41-32D4-4B88-B4BE-8E854E9660E0";
shapes = (
{
closed = 1;
nodes = (
(572,0,l),
(572,81,l),
(188,81,l),
(188,335,l),
(525,335,l),
(525,414,l),
(188,414,l),
(188,661,l),
(561,661,l),
(561,742,l),
(98,742,l),
(98,0,l)
);
}
);
width = 632;
},
{
anchors = (
{
name = bottom;
position = "{361, 0}";
},
{
name = ogonek;
position = "{546, 10}";
},
{
name = top;
position = "{342, 742}";
}
);
layerId = "B5FFAA16-DBAD-40DC-8294-46FA18BBC24B";
shapes = (
{
closed = 1;
nodes = (
(555,0,l),
(555,42,l),
(155,43,l),
(155,354,l),
(514,354,l),
(514,396,l),
(155,396,l),
(155,700,l),
(540,700,l),
(540,742,l),
(115,742,l),
(115,0,l)
);
}
);
width = 625;
}
);
leftKerningGroup = B;
rightKerningGroup = E;
unicode = 69;
},
{
glyphname = F;
leftMetricsKey = N;
layers = (
{
layerId = "8DBE427A-3D94-44F6-909C-34E8B708558F";
shapes = (
{
closed = 1;
nodes = (
(60,0,l),
(260,0,l),
(260,286,l),
(546,286,l),
(546,445,l),
(260,445,l),
(260,578,l),
(602,578,l),
(603,742,l),
(60,742,l)
);
}
);
width = 623;
},
{
layerId = "7F526B41-32D4-4B88-B4BE-8E854E9660E0";
shapes = (
{
closed = 1;
nodes = (
(98,0,l),
(191,0,l),
(191,333,l),
(520,333,l),
(520,412,l),
(191,412,l),
(191,662,l),
(555,662,l),
(556,742,l),
(98,742,l)
);
}
);
width = 596;
},
{
layerId = "B5FFAA16-DBAD-40DC-8294-46FA18BBC24B";
shapes = (
{
closed = 1;
nodes = (
(115,0,l),
(159,0,l),
(159,355,l),
(508,355,l),
(508,397,l),
(159,397,l),
(159,700,l),
(534,700,l),
(534,742,l),
(115,742,l)
);
}
);
width = 584;
}
);
leftKerningGroup = B;
rightKerningGroup = F;
unicode = 70;
},
{
glyphname = G;
layers = (
{
anchors = (
{
name = bottom;
position = "{372, 0}";
},
{
name = top;
position = "{372, 742}";
}
);
layerId = "8DBE427A-3D94-44F6-909C-34E8B708558F";
shapes = (
{
closed = 1;
nodes = (
(492,-10,o),
(545,44,o),
(582,82,c),
(582,0,l),
(713,0,l),
(713,392,l),
(374,394,l),
(374,259,l),
(503,259,l),
(494,233,l),
(476,187,o),
(442,163,o),
(386,163,cs),
(322,163,o),
(237,193,o),
(237,374,cs),
(237,534,o),
(304,587,o),
(378,587,cs),
(447,587,o),
(479,541,o),
(499,470,c),
(707,501,l),
(683,624,o),
(582,752,o),
(383,752,cs),
(169,752,o),
(20,599,o),
(20,368,cs),
(20,145,o),
(159,-10,o),
(370,-10,cs)
);
}
);
width = 753;
},
{
anchors = (
{
name = bottom;
position = "{364, 0}";
},
{
name = top;
position = "{361, 742}";
}
);
layerId = "7F526B41-32D4-4B88-B4BE-8E854E9660E0";
shapes = (
{
closed = 1;
nodes = (
(477,-10,o),
(546,49,o),
(585,114,c),
(585,0,l),
(653,0,l),
(653,382,l),
(377,382,l),
(377,316,l),
(560,316,l),
(557,248,l),
(552,169,o),
(492,72,o),
(365,72,cs),
(233,72,o),
(144,166,o),
(144,374,cs),
(144,568,o),
(229,672,o),
(363,672,cs),
(458,672,o),
(526,607,o),
(544,521,c),
(641,536,l),
(625,649,o),
(511,752,o),
(364,752,cs),
(173,752,o),
(48,609,o),
(48,368,cs),
(48,134,o),
(167,-10,o),
(360,-10,cs)
);
}
);
width = 717;
},
{
anchors = (
{
name = bottom;
position = "{361, 0}";
},
{
name = top;
position = "{356, 742}";
}
);
layerId = "B5FFAA16-DBAD-40DC-8294-46FA18BBC24B";
shapes = (
{
closed = 1;
nodes = (
(470,-10,o),
(546,51,o),
(586,129,c),
(586,0,l),
(626,0,l),
(626,377,l),
(379,377,l),
(379,342,l),
(586,342,l),
(586,255,ls),
(586,161,o),
(514,30,o),
(356,30,cs),
(193,30,o),
(102,153,o),
(102,374,cs),
(102,584,o),
(195,710,o),
(356,710,cs),
(463,710,o),
(548,637,o),
(564,544,c),
(611,552,l),
(599,660,o),
(479,752,o),
(356,752,cs),
(175,752,o),
(60,614,o),
(60,368,cs),
(60,129,o),
(170,-10,o),
(355,-10,cs)
);
}
);
width = 701;
}
);
leftKerningGroup = C2;
rightKerningGroup = G;
unicode = 71;
},
{
glyphname = H;
leftMetricsKey = N;
layers = (
{
anchors = (
{
name = bottom;
position = "{367, 0}";
},
{
name = top;
position = "{369, 742}";
}
);
layerId = "8DBE427A-3D94-44F6-909C-34E8B708558F";
shapes = (
{
closed = 1;
nodes = (
(484,0,l),
(684,0,l),
(684,742,l),
(484,742,l),
(484,461,l),
(260,461,l),
(260,742,l),
(60,742,l),
(60,0,l),
(260,0,l),
(260,297,l),
(484,297,l)
);
}
);
width = 744;
},
{
anchors = (
{
name = bottom;
position = "{362, 0}";
},
{
name = top;
position = "{363, 742}";
}
);
layerId = "7F526B41-32D4-4B88-B4BE-8E854E9660E0";
shapes = (
{
closed = 1;
nodes = (
(539,0,l),
(629,0,l),
(629,742,l),
(539,742,l),
(539,424,l),
(188,424,l),
(188,742,l),
(98,742,l),
(98,0,l),
(188,0,l),
(188,344,l),
(539,344,l)
);
}
);
width = 727;
},
{
anchors = (
{
name = bottom;
position = "{360, 0}";
},
{
name = top;
position = "{360, 742}";
}
);
layerId = "B5FFAA16-DBAD-40DC-8294-46FA18BBC24B";
shapes = (
{
closed = 1;
nodes = (
(564,0,l),
(604,0,l),
(604,742,l),
(564,742,l),
(564,407,l),
(155,407,l),
(155,742,l),
(115,742,l),
(115,0,l),
(155,0,l),
(155,365,l),
(564,365,l)
);
}
);
width = 719;
}
);
leftKerningGroup = B;
rightKerningGroup = H;
unicode = 72;
},
{
glyphname = I;
layers = (
{
anchors = (
{
name = bottom;
position = "{170, 0}";
},
{
name = ogonek;
position = "{235, 3}";
},
{
name = top;
position = "{160, 742}";
}
);
layerId = "8DBE427A-3D94-44F6-909C-34E8B708558F";
shapes = (
{
closed = 1;
nodes = (
(60,0,l),
(260,0,l),
(260,742,l),
(60,742,l)
);
}
);
width = 320;
},
{
anchors = (
{
name = bottom;
position = "{147, 0}";
},
{
name = ogonek;
position = "{175, 8}";
},
{
name = top;
position = "{146, 742}";
}
);
layerId = "7F526B41-32D4-4B88-B4BE-8E854E9660E0";
shapes = (
{
closed = 1;
nodes = (
(98,0,l),
(188,0,l),
(188,742,l),
(98,742,l)
);
}
);
width = 286;
},
{
anchors = (
{
name = bottom;
position = "{136, 0}";
},
{
name = ogonek;
position = "{148, 10}";
},
{
name = top;
position = "{139, 742}";
}
);
layerId = "B5FFAA16-DBAD-40DC-8294-46FA18BBC24B";
shapes = (
{
closed = 1;
nodes = (
(115,0,l),
(155,0,l),
(155,742,l),
(115,742,l)
);
}
);
width = 270;
}
);
leftKerningGroup = B;
rightKerningGroup = H;
unicode = 73;
},
{
glyphname = J;
layers = (
{
anchors = (
{
name = top;
position = "{218, 742}";
}
);
layerId = "8DBE427A-3D94-44F6-909C-34E8B708558F";
shapes = (
{
closed = 1;
nodes = (
(368,742,l),
(168,742,l),
(168,286,ls),
(168,209,o),
(151,174,o),
(80,174,cs),
(59,174,o),
(33,177,o),
(15,179,c),
(15,0,l),
(45,-6,o),
(107,-10,o),
(149,-10,cs),
(328,-10,o),
(368,71,o),
(368,235,cs)
);
}
);
width = 418;
},
{
anchors = (
{
name = top;
position = "{233, 742}";
}
);
layerId = "7F526B41-32D4-4B88-B4BE-8E854E9660E0";
shapes = (
{
closed = 1;
nodes = (
(292,742,l),
(202,742,l),
(202,198,ls),
(202,110,o),
(181,76,o),
(114,76,cs),
(72,76,o),
(46,92,o),
(25,100,c),
(18,13,l),
(33,7,o),
(84,-10,o),
(137,-10,cs),
(260,-10,o),
(292,56,o),
(292,172,cs)
);
}
);
width = 377;
},
{
anchors = (
{
name = top;
position = "{240, 742}";
}
);
layerId = "B5FFAA16-DBAD-40DC-8294-46FA18BBC24B";
shapes = (
{
closed = 1;
nodes = (
(258,742,l),
(218,742,l),
(218,158,ls),
(218,65,o),
(195,32,o),
(130,32,cs),
(78,32,o),
(52,53,o),
(30,64,c),
(20,19,l),
(27,13,o),
(74,-10,o),
(132,-10,cs),
(229,-10,o),
(258,49,o),
(258,144,cs)
);
}
);
width = 358;
}
);
leftKerningGroup = J2;
rightKerningGroup = J;
unicode = 74;
},
{
glyphname = K;
leftMetricsKey = N;
layers = (
{
anchors = (
{
name = bottom;
position = "{359, 0}";
},
{
name = top;
position = "{359, 742}";
}
);
guides = (
{
angle = 54.499;
position = "{706, 742}";
},
{
angle = 297.12;
position = "{359, 313}";
}
);
hints = (
{
horizontal = 1;
place = (0,21);
target = up;
type = BottomGhost;
},
{
horizontal = 1;
place = (742,-20);
target = down;
type = TopGhost;
},
{
place = (52,207);
type = Stem;
}
);
layerId = "8DBE427A-3D94-44F6-909C-34E8B708558F";
shapes = (
{
closed = 1;
nodes = (
(502,458,l),
(706,742,l),
(481,742,l),
(267,442,l),
(267,742,l),
(60,742,l),
(60,0,l),
(267,0,l),
(267,194,l),
(359,313,l),
(524,0,l),
(739,0,l)
);
}
);
width = 749;
},
{
anchors = (
{
name = bottom;
position = "{347, 0}";
},
{
name = top;
position = "{368, 742}";
}
);
guides = (
{
angle = 54.499;
position = "{706, 742}";
},
{
angle = 297.12;
position = "{359, 313}";
}
);
hints = (
{
horizontal = 1;
place = (0,21);
target = up;
type = BottomGhost;
},
{
horizontal = 1;
place = (742,-20);
target = down;
type = TopGhost;
}
);
layerId = "7F526B41-32D4-4B88-B4BE-8E854E9660E0";
shapes = (
{
closed = 1;
nodes = (
(389,452,l),
(637,742,l),
(529,742,l),
(191,354,l),
(191,742,l),
(98,742,l),
(98,0,l),
(191,0,l),
(191,235,l),
(321,385,l),
(556,0,l),
(660,0,l)
);
}
);
width = 691;
},
{
anchors = (
{
name = bottom;
position = "{342, 0}";
},
{
name = top;
position = "{372, 742}";
}
);
layerId = "B5FFAA16-DBAD-40DC-8294-46FA18BBC24B";
shapes = (
{
closed = 1;
nodes = (
(338,449,l),
(606,742,l),
(551,742,l),
(157,314,l),
(157,742,l),
(115,742,l),
(115,0,l),
(157,0,l),
(157,254,l),
(304,417,l),
(570,0,l),
(624,0,l)
);
}
);
width = 664;
}
);
leftKerningGroup = B;
rightKerningGroup = K;
unicode = 75;
},
{
glyphname = L;
leftMetricsKey = N;
layers = (
{
anchors = (
{
name = bottom;
position = "{305, 0}";
},
{
name = top;
position = "{149, 742}";
},
{
name = topright;
position = "{491, 742}";
}
);
layerId = "8DBE427A-3D94-44F6-909C-34E8B708558F";
shapes = (
{
closed = 1;
nodes = (
(60,0,l),
(556,0,l),
(556,164,l),
(260,164,l),
(260,742,l),
(60,742,l)
);
}
);
width = 571;
},
{
anchors = (
{
name = bottom;
position = "{315, 0}";
},
{
name = top;
position = "{143, 742}";
},
{
name = topright;
position = "{444, 742}";
}
);
layerId = "7F526B41-32D4-4B88-B4BE-8E854E9660E0";
shapes = (
{
closed = 1;
nodes = (
(98,0,l),
(543,0,l),
(543,82,l),
(191,82,l),
(191,742,l),
(98,742,l)
);
}
);
width = 568;
},
{
anchors = (
{
name = bottom;
position = "{320, 0}";
},
{
name = top;
position = "{140, 742}";
},
{
name = topright;
position = "{422, 742}";
}
);
layerId = "B5FFAA16-DBAD-40DC-8294-46FA18BBC24B";
shapes = (
{
closed = 1;
nodes = (
(115,0,l),
(537,0,l),
(537,44,l),
(159,44,l),
(159,742,l),
(115,742,l)
);
}
);
width = 567;
}
);
leftKerningGroup = B;
rightKerningGroup = L;
unicode = 76;
},
{
glyphname = M;
leftMetricsKey = N;
layers = (
{
guides = (
{
angle = 255.;
position = "{476, 289}";
},
{
angle = 105.;
position = "{476, 289}";
}
);
layerId = "8DBE427A-3D94-44F6-909C-34E8B708558F";
shapes = (
{
closed = 1;
nodes = (
(260,0,l),
(260,537,l),
(404,0,l),
(548,0,l),
(692,537,l),
(692,0,l),
(892,0,l),
(892,742,l),
(597,742,l),
(476,289,l),
(356,742,l),
(60,742,l),
(60,0,l)
);
}
);
width = 952;
},
{
guides = (
{
angle = 255.;
position = "{476, 289}";
},
{
angle = 105.;
position = "{476, 289}";
}
);
layerId = "7F526B41-32D4-4B88-B4BE-8E854E9660E0";
shapes = (
{
closed = 1;
nodes = (
(191,0,l),
(191,597,l),
(407,0,l),
(493,0,l),
(711,602,l),
(711,0,l),
(804,0,l),
(804,742,l),
(682,742,l),
(450,121,l),
(221,742,l),
(98,742,l),
(98,0,l)
);
}
);
width = 902;
},
{
guides = (
{
position = "{0, 566}";
showMeasurement = 1;
},
{
angle = 68.255;
position = "{468, 0}";
}
);
layerId = "B5FFAA16-DBAD-40DC-8294-46FA18BBC24B";
shapes = (
{
closed = 1;
nodes = (
(159,0,l),
(159,624,l),
(408,0,l),
(468,0,l),
(720,632,l),
(720,0,l),
(764,0,l),
(764,742,l),
(720,742,l),
(438,45,l),
(160,742,l),
(115,742,l),
(115,0,l)
);
}
);
width = 879;
}
);
leftKerningGroup = B;
rightKerningGroup = H;
unicode = 77;
},
{
glyphname = N;
layers = (
{
anchors = (
{
name = bottom;
position = "{404, 0}";
},
{
name = top;
position = "{404, 742}";
}
);
guides = (
{
angle = 125.047;
position = "{550, 328}";
}
);
layerId = "8DBE427A-3D94-44F6-909C-34E8B708558F";
shapes = (
{
closed = 1;
nodes = (
(550,328,l),
(261,742,l),
(60,742,l),
(60,0,l),
(260,0,l),
(260,442,l),
(569,0,l),
(750,0,l),
(750,742,l),
(550,742,l)
);
}
);
width = 810;
},
{
anchors = (
{
name = bottom;
position = "{367, 0}";
},
{
name = top;
position = "{394, 742}";
}
);
guides = (
{
angle = 125.047;
position = "{550, 328}";
}
);
layerId = "7F526B41-32D4-4B88-B4BE-8E854E9660E0";
shapes = (
{
closed = 1;
nodes = (
(580,158,l),
(183,742,l),
(98,742,l),
(98,0,l),
(188,0,l),
(188,591,l),
(590,0,l),
(670,0,l),
(670,742,l),
(580,742,l)
);
}
);
width = 768;
},
{
anchors = (
{
name = bottom;
position = "{350, 0}";
},
{
name = top;
position = "{389, 742}";
}
);
guides = (
{
position = "{0, 576}";
showMeasurement = 1;
},
{
angle = 123.969;
position = "{155, 659}";
}
);
layerId = "B5FFAA16-DBAD-40DC-8294-46FA18BBC24B";
shapes = (
{
closed = 1;
nodes = (
(594,80,l),
(148,742,l),
(115,742,l),
(115,0,l),
(155,0,l),
(155,659,l),
(599,0,l),
(634,0,l),
(634,742,l),
(594,742,l)
);
}
);
width = 749;
}
);
leftKerningGroup = B;
rightKerningGroup = H;
unicode = 78;
},
{
glyphname = O;
layers = (
{
anchors = (
{
name = bottom;
position = "{381, 0}";
},
{
name = ogonek;
position = "{472, 10}";
},
{
name = top;
position = "{379, 742}";
}
);
guides = (
{
angle = 90;
position = "{-617, 0}";
}
);
layerId = "8DBE427A-3D94-44F6-909C-34E8B708558F";
shapes = (
{
closed = 1;
nodes = (
(598,-10,o),
(738,139,o),
(738,369,cs),
(738,601,o),
(595,752,o),
(380,752,cs),
(163,752,o),
(20,601,o),
(20,369,cs),
(20,138,o),
(159,-10,o),
(380,-10,cs)
);
},
{
closed = 1;
nodes = (
(298,150,o),
(237,206,o),
(237,366,cs),
(237,531,o),
(298,592,o),
(380,592,cs),
(462,592,o),
(521,531,o),
(521,366,cs),
(521,206,o),
(462,150,o),
(380,150,cs)
);
}
);
width = 758;
},
{
anchors = (
{
name = bottom;
position = "{369, 0}";
},
{
name = ogonek;
position = "{445, 9}";
},
{
name = top;
position = "{368, 742}";
}
);
guides = (
{
angle = 90;
position = "{-617, 0}";
}
);
layerId = "7F526B41-32D4-4B88-B4BE-8E854E9660E0";
shapes = (
{
closed = 1;
nodes = (
(564,-10,o),
(686,127,o),
(686,369,cs),
(686,613,o),
(563,752,o),
(368,752,cs),
(171,752,o),
(48,612,o),
(48,368,cs),
(48,126,o),
(168,-10,o),
(367,-10,cs)
);
},
{
closed = 1;
nodes = (
(229,69,o),
(146,163,o),
(146,368,cs),
(146,576,o),
(229,673,o),
(368,673,cs),
(506,673,o),
(587,577,o),
(587,368,cs),
(587,162,o),
(507,69,o),
(368,69,cs)
);
}
);
width = 733;
},
{
anchors = (
{
name = bottom;
position = "{363, 0}";
},
{
name = ogonek;
position = "{433, 9}";
},
{
name = top;
position = "{363, 742}";
}
);
guides = (
{
angle = 90;
position = "{-486, 0}";
},
{
angle = 90;
position = "{471, 0}";
}
);
layerId = "B5FFAA16-DBAD-40DC-8294-46FA18BBC24B";
shapes = (
{
closed = 1;
nodes = (
(549,-10,o),
(662,122,o),
(662,369,cs),
(662,618,o),
(549,752,o),
(362,752,cs),
(174,752,o),
(60,617,o),
(60,367,cs),
(60,121,o),
(172,-10,o),
(361,-10,cs)
);
},
{
closed = 1;
nodes = (
(197,32,o),
(105,143,o),
(105,369,cs),
(105,597,o),
(197,710,o),
(362,710,cs),
(526,710,o),
(617,598,o),
(617,369,cs),
(617,142,o),
(528,32,o),
(363,32,cs)
);
}
);
width = 722;
}
);
leftKerningGroup = C2;
rightKerningGroup = O;
unicode = 79;
},
{
glyphname = P;
layers = (
{
layerId = "8DBE427A-3D94-44F6-909C-34E8B708558F";
shapes = (
{
closed = 1;
nodes = (
(260,0,l),
(260,255,l),
(379,255,ls),
(542,255,o),
(644,344,o),
(644,490,cs),
(644,651,o),
(517,742,o),
(353,742,cs),
(60,742,l),
(60,0,l)
);
},
{
closed = 1;
nodes = (
(258,594,l),
(372,594,ls),
(417,594,o),
(461,552,o),
(461,500,cs),
(461,452,o),
(423,404,o),
(372,404,cs),
(258,404,l)
);
}
);
width = 654;
},
{
layerId = "7F526B41-32D4-4B88-B4BE-8E854E9660E0";
shapes = (
{
closed = 1;
nodes = (
(191,0,l),
(191,303,l),
(359,303,ls),
(514,303,o),
(621,374,o),
(621,522,cs),
(621,674,o),
(505,742,o),
(347,742,cs),
(98,742,l),
(98,0,l)
);
},
{
closed = 1;
nodes = (
(190,666,l),
(352,666,ls),
(459,666,o),
(533,628,o),
(533,527,cs),
(533,427,o),
(461,380,o),
(357,380,cs),
(190,380,l)
);
}
);
width = 644;
},
{
layerId = "B5FFAA16-DBAD-40DC-8294-46FA18BBC24B";
shapes = (
{
closed = 1;
nodes = (
(159,0,l),
(159,325,l),
(350,325,ls),
(501,325,o),
(610,388,o),
(610,536,cs),
(610,685,o),
(499,742,o),
(344,742,cs),
(115,742,l),
(115,0,l)
);
},
{
closed = 1;
nodes = (
(159,698,l),
(343,698,ls),
(478,698,o),
(565,663,o),
(565,539,cs),
(565,416,o),
(478,369,o),
(350,369,cs),
(159,369,l)
);
}
);
width = 640;
}
);
leftKerningGroup = B;
rightKerningGroup = P;
unicode = 80;
},
{
glyphname = Q;
layers = (
{
layerId = "8DBE427A-3D94-44F6-909C-34E8B708558F";
shapes = (
{
closed = 1;
nodes = (
(20,138,o),
(159,-10,o),
(380,-10,cs),
(405,-10,o),
(426,-9,o),
(462,-5,c),
(550,-116,o),
(620,-128,o),
(739,-128,c),
(739,28,l),
(688,28,o),
(642,53,o),
(634,82,c),
(701,154,o),
(739,249,o),
(739,369,cs),
(739,601,o),
(596,752,o),
(380,752,cs),
(163,752,o),
(20,601,o),
(20,369,cs)
);
},
{
closed = 1;
nodes = (
(238,532,o),
(293,592,o),
(380,592,cs),
(466,592,o),
(521,532,o),
(521,367,cs),
(521,206,o),
(468,150,o),
(380,150,cs),
(291,150,o),
(238,206,o),
(238,367,cs)
);
}
);
width = 759;
},
{
layerId = "7F526B41-32D4-4B88-B4BE-8E854E9660E0";
shapes = (
{
closed = 1;
nodes = (
(48,123,o),
(171,-10,o),
(367,-10,cs),
(395,-10,o),
(421,-7,o),
(454,-1,c),
(518,-106,o),
(608,-124,o),
(679,-124,c),
(679,-47,l),
(619,-45,o),
(564,-19,o),
(538,38,c),
(642,104,o),
(686,215,o),
(686,369,cs),
(686,614,o),
(564,752,o),
(367,752,cs),
(170,752,o),
(48,614,o),
(48,369,cs)
);
},
{
closed = 1;
nodes = (
(147,573,o),
(225,673,o),
(367,673,cs),
(509,673,o),
(587,573,o),
(587,368,cs),
(587,161,o),
(507,69,o),
(367,69,cs),
(226,69,o),
(147,161,o),
(147,367,cs)
);
}
);
width = 734;
},
{
layerId = "B5FFAA16-DBAD-40DC-8294-46FA18BBC24B";
shapes = (
{
closed = 1;
nodes = (
(60,116,o),
(177,-10,o),
(361,-10,cs),
(390,-10,o),
(419,-6,o),
(451,1,c),
(504,-101,o),
(603,-122,o),
(652,-122,c),
(652,-81,l),
(587,-78,o),
(529,-51,o),
(495,18,c),
(615,81,o),
(662,199,o),
(662,369,cs),
(662,620,o),
(549,752,o),
(361,752,cs),
(173,752,o),
(60,620,o),
(60,369,cs)
);
},
{
closed = 1;
nodes = (
(105,592,o),
(194,710,o),
(361,710,cs),
(528,710,o),
(617,592,o),
(617,369,cs),
(617,141,o),
(525,32,o),
(361,32,cs),
(197,32,o),
(105,141,o),
(105,367,cs)
);
}
);
width = 722;
}
);
leftKerningGroup = C2;
rightKerningGroup = O;
unicode = 81;
},
{
glyphname = R;
leftMetricsKey = N;
layers = (
{
anchors = (
{
name = bottom;
position = "{359, 0}";
},
{
name = top;
position = "{349, 742}";
}
);
layerId = "8DBE427A-3D94-44F6-909C-34E8B708558F";
shapes = (
{
closed = 1;
nodes = (
(546,287,l),
(615,329,o),
(664,389,o),
(664,503,cs),
(664,637,o),
(589,742,o),
(396,742,cs),
(60,742,l),
(60,0,l),
(260,0,l),
(260,255,l),
(364,255,l),
(472,0,l),
(676,0,l)
);
},
{
closed = 1;
nodes = (
(260,404,l),
(260,594,l),
(374,594,ls),
(419,594,o),
(463,552,o),
(463,500,cs),
(463,452,o),
(425,404,o),
(374,404,cs)
);
}
);
width = 696;
},
{
anchors = (
{
name = bottom;
position = "{343, 0}";
},
{
name = top;
position = "{335, 742}";
}
);
layerId = "7F526B41-32D4-4B88-B4BE-8E854E9660E0";
shapes = (
{
closed = 1;
nodes = (
(477,339,l),
(548,365,o),
(623,420,o),
(623,541,cs),
(623,667,o),
(542,742,o),
(382,742,cs),
(98,742,l),
(98,0,l),
(188,0,l),
(188,322,l),
(392,322,l),
(528,0,l),
(624,0,l)
);
},
{
closed = 1;
nodes = (
(188,398,l),
(188,667,l),
(375,667,ls),
(472,667,o),
(530,624,o),
(530,535,cs),
(530,443,o),
(466,398,o),
(351,398,cs)
);
}
);
width = 677;
},
{
anchors = (
{
name = bottom;
position = "{336, 0}";
},
{
name = top;
position = "{329, 742}";
}
);
layerId = "B5FFAA16-DBAD-40DC-8294-46FA18BBC24B";
shapes = (
{
closed = 1;
nodes = (
(446,362,l),
(518,381,o),
(604,434,o),
(604,558,cs),
(604,680,o),
(520,742,o),
(376,742,cs),
(115,742,l),
(115,0,l),
(155,0,l),
(155,353,l),
(404,353,l),
(554,0,l),
(600,0,l)
);
},
{
closed = 1;
nodes = (
(155,395,l),
(155,700,l),
(375,700,ls),
(496,700,o),
(561,656,o),
(561,551,cs),
(561,439,o),
(484,395,o),
(341,395,cs)
);
}
);
width = 669;
}
);
leftKerningGroup = B;
rightKerningGroup = R;
unicode = 82;
},
{
glyphname = S;
layers = (
{
anchors = (
{
name = bottom;
position = "{351, 0}";
},
{
name = top;
position = "{351, 742}";
}
);
guides = (
{
angle = 214.324;
position = "{631, 426}";
}
);
layerId = "8DBE427A-3D94-44F6-909C-34E8B708558F";
shapes = (
{
closed = 1;
nodes = (
(547,-10,o),
(670,86,o),
(670,235,cs),
(670,337,o),
(612,410,o),
(487,442,cs),
(321,485,ls),
(257,502,o),
(257,528,o),
(257,528,c),
(257,571,o),
(284,597,o),
(359,597,cs),
(447,597,o),
(493,552,o),
(506,525,c),
(643,619,l),
(595,707,o),
(476,752,o),
(352,752,cs),
(162,752,o),
(43,645,o),
(43,516,cs),
(43,410,o),
(123,333,o),
(239,303,cs),
(404,261,ls),
(450,249,o),
(455,227,o),
(455,213,cs),
(455,165,o),
(396,154,o),
(334,154,cs),
(235,154,o),
(185,182,o),
(149,237,c),
(12,143,l),
(61,51,o),
(199,-10,o),
(353,-10,cs)
);
}
);
width = 690;
},
{
guides = (
{
angle = 214.324;
position = "{631, 426}";
}
);
layerId = "7F526B41-32D4-4B88-B4BE-8E854E9660E0";
shapes = (
{
closed = 1;
nodes = (
(481,-12,o),
(603,60,o),
(603,199,cs),
(603,305,o),
(544,367,o),
(436,397,cs),
(279,440,ls),
(205,460,o),
(165,494,o),
(165,553,cs),
(165,631,o),
(241,674,o),
(322,674,cs),
(416,674,o),
(483,618,o),
(508,544,c),
(583,586,l),
(542,687,o),
(447,751,o),
(324,751,cs),
(192,751,o),
(66,675,o),
(66,551,cs),
(66,441,o),
(140,383,o),
(244,354,cs),
(401,310,ls),
(468,291,o),
(504,255,o),
(504,192,cs),
(504,110,o),
(414,68,o),
(333,68,cs),
(230,68,o),
(148,127,o),
(114,210,c),
(38,170,l),
(80,60,o),
(206,-12,o),
(339,-12,cs)
);
}
);
width = 659;
},
{
layerId = "B5FFAA16-DBAD-40DC-8294-46FA18BBC24B";
shapes = (
{
closed = 1;
nodes = (
(451,-12,o),
(573,48,o),
(573,183,cs),
(573,291,o),
(513,349,o),
(414,376,cs),
(259,419,ls),
(182,441,o),
(123,478,o),
(123,566,cs),
(123,658,o),
(221,710,o),
(304,710,cs),
(403,710,o),
(479,649,o),
(509,554,c),
(556,573,l),
(519,679,o),
(435,751,o),
(310,751,cs),
(206,751,o),
(77,689,o),
(77,568,cs),
(77,455,o),
(148,405,o),
(245,377,cs),
(400,333,ls),
(477,311,o),
(527,268,o),
(527,184,cs),
(527,85,o),
(422,30,o),
(332,30,cs),
(228,30,o),
(131,103,o),
(98,198,c),
(50,182,l),
(89,64,o),
(209,-12,o),
(331,-12,cs)
);
}
);
width = 645;
}
);
leftKerningGroup = S2;
rightKerningGroup = S;
unicode = 83;
},
{
glyphname = T;
layers = (
{
anchors = (
{
name = bottom;
position = "{325, 0}";
},
{
name = top;
position = "{325, 742}";
}
);
layerId = "8DBE427A-3D94-44F6-909C-34E8B708558F";
shapes = (
{
closed = 1;
nodes = (
(216,566,l),
(216,0,l),
(416,0,l),
(416,566,l),
(628,566,l),
(628,742,l),
(5,742,l),
(5,566,l)
);
}
);
width = 633;
},
{
anchors = (
{
name = bottom;
position = "{302, 0}";
},
{
name = top;
position = "{302, 742}";
}
);
layerId = "7F526B41-32D4-4B88-B4BE-8E854E9660E0";
shapes = (
{
closed = 1;
nodes = (
(253,658,l),
(253,0,l),
(343,0,l),
(343,658,l),
(570,658,l),
(570,742,l),
(12,742,l),
(12,658,l)
);
}
);
width = 582;
},
{
anchors = (
{
name = bottom;
position = "{291, 0}";
},
{
name = top;
position = "{291, 742}";
}
);
layerId = "B5FFAA16-DBAD-40DC-8294-46FA18BBC24B";
shapes = (
{
closed = 1;
nodes = (
(270,700,l),
(270,0,l),
(310,0,l),
(310,700,l),
(544,700,l),
(544,742,l),
(15,742,l),
(15,700,l)
);
}
);
width = 559;
}
);
leftKerningGroup = T2;
rightKerningGroup = T;
unicode = 84;
},
{
glyphname = U;
layers = (
{
anchors = (
{
name = ogonek;
position = "{461, 12}";
},
{
name = top;
position = "{362, 742}";
}
);
layerId = "8DBE427A-3D94-44F6-909C-34E8B708558F";
shapes = (
{
closed = 1;
nodes = (
(700,742,l),
(498,742,l),
(498,298,ls),
(498,196,o),
(442,157,o),
(380,157,cs),
(318,157,o),
(262,196,o),
(262,298,cs),
(262,742,l),
(60,742,l),
(60,307,ls),
(60,118,o),
(141,-10,o),
(380,-10,cs),
(619,-10,o),
(700,118,o),
(700,307,cs)
);
}
);
width = 750;
},
{
anchors = (
{
name = ogonek;
position = "{431, 10}";
},
{
name = top;
position = "{353, 742}";
}
);
layerId = "7F526B41-32D4-4B88-B4BE-8E854E9660E0";
shapes = (
{
closed = 1;
nodes = (
(626,742,l),
(535,742,l),
(535,250,ls),
(535,127,o),
(470,69,o),
(356,69,cs),
(243,69,o),
(181,129,o),
(181,250,cs),
(181,742,l),
(88,742,l),
(88,264,ls),
(88,86,o),
(166,-10,o),
(356,-10,cs),
(545,-10,o),
(626,84,o),
(626,254,cs)
);
}
);
width = 710;
},
{
anchors = (
{
name = ogonek;
position = "{417, 9}";
},
{
name = top;
position = "{349, 742}";
}
);
layerId = "B5FFAA16-DBAD-40DC-8294-46FA18BBC24B";
shapes = (
{
closed = 1;
nodes = (
(592,742,l),
(552,742,l),
(552,228,ls),
(552,96,o),
(483,29,o),
(345,29,cs),
(209,29,o),
(144,98,o),
(144,228,cs),
(144,742,l),
(100,742,l),
(100,245,ls),
(100,71,o),
(177,-10,o),
(345,-10,cs),
(511,-10,o),
(592,69,o),
(592,230,cs)
);
}
);
width = 692;
}
);
leftKerningGroup = U;
rightKerningGroup = J;
unicode = 85;
},
{
glyphname = V;
layers = (
{
guides = (
{
angle = 251.38;
position = "{360, 234}";
}
);
layerId = "8DBE427A-3D94-44F6-909C-34E8B708558F";
shapes = (
{
closed = 1;
nodes = (
(531,742,l),
(360,234,l),
(188,742,l),
(0,742,l),
(250,0,l),
(470,0,l),
(720,742,l)
);
}
);
width = 720;
},
{
guides = (
{
angle = 251.38;
position = "{360, 234}";
}
);
layerId = "7F526B41-32D4-4B88-B4BE-8E854E9660E0";
shapes = (
{
closed = 1;
nodes = (
(550,742,l),
(321,102,l),
(97,742,l),
(7,742,l),
(266,0,l),
(375,0,l),
(638,742,l)
);
}
);
width = 645;
},
{
layerId = "B5FFAA16-DBAD-40DC-8294-46FA18BBC24B";
shapes = (
{
closed = 1;
nodes = (
(558,742,l),
(303,42,l),
(55,742,l),
(10,742,l),
(273,0,l),
(332,0,l),
(601,742,l)
);
}
);
width = 611;
}
);
leftKerningGroup = V2;
rightKerningGroup = V;
unicode = 86;
},
{
glyphname = W;
layers = (
{
anchors = (
{
name = top;
position = "{503, 742}";
}
);
guides = (
{
angle = 286.06;
position = "{208, 742}";
},
{
angle = 74.383;
position = "{434, 742}";
}
);
layerId = "8DBE427A-3D94-44F6-909C-34E8B708558F";
shapes = (
{
closed = 1;
nodes = (
(799,742,l),
(688,344,l),
(573,742,l),
(434,742,l),
(323,344,l),
(208,742,l),
(15,742,l),
(239,0,l),
(386,0,l),
(504,403,l),
(621,0,l),
(770,0,l),
(992,742,l)
);
}
);
width = 1007;
},
{
anchors = (
{
name = top;
position = "{493, 742}";
}
);
guides = (
{
angle = 286.06;
position = "{208, 742}";
},
{
angle = 74.383;
position = "{434, 742}";
}
);
layerId = "7F526B41-32D4-4B88-B4BE-8E854E9660E0";
shapes = (
{
closed = 1;
nodes = (
(863,742,l),
(693,142,l),
(524,742,l),
(453,742,l),
(283,142,l),
(117,742,l),
(25,742,l),
(238,0,l),
(321,0,l),
(488,583,l),
(653,0,l),
(738,0,l),
(954,742,l)
);
}
);
width = 979;
},
{
anchors = (
{
name = top;
position = "{488, 742}";
}
);
guides = (
{
position = "{0, 125}";
showMeasurement = 1;
}
);
layerId = "B5FFAA16-DBAD-40DC-8294-46FA18BBC24B";
shapes = (
{
closed = 1;
nodes = (
(892,742,l),
(695,50,l),
(502,742,l),
(462,742,l),
(265,50,l),
(75,742,l),
(30,742,l),
(238,0,l),
(291,0,l),
(481,665,l),
(667,0,l),
(723,0,l),
(936,742,l)
);
}
);
width = 966;
}
);
leftKerningGroup = V2;
rightKerningGroup = V;
unicode = 87;
},
{
glyphname = X;
layers = (
{
layerId = "8DBE427A-3D94-44F6-909C-34E8B708558F";
shapes = (
{
closed = 1;
nodes = (
(475,403,l),
(697,742,l),
(487,742,l),
(373,541,l),
(259,742,l),
(11,742,l),
(247,374,l),
(5,0,l),
(218,0,l),
(351,233,l),
(487,0,l),
(737,0,l)
);
}
);
width = 742;
},
{
layerId = "7F526B41-32D4-4B88-B4BE-8E854E9660E0";
shapes = (
{
closed = 1;
nodes = (
(375,388,l),
(612,742,l),
(510,742,l),
(324,456,l),
(139,742,l),
(25,742,l),
(267,378,l),
(15,0,l),
(117,0,l),
(318,307,l),
(520,0,l),
(633,0,l)
);
}
);
width = 649;
},
{
guides = (
{
angle = 90;
position = "{140, 0}";
},
{
angle = 90;
position = "{651, 0}";
},
{
position = "{0, 716}";
showMeasurement = 1;
},
{
position = "{0, 32}";
showMeasurement = 1;
},
{
position = "{0, 454}";
showMeasurement = 1;
},
{
position = "{0, 290}";
showMeasurement = 1;
},
{
angle = 236.602;
position = "{383, 374}";
},
{
angle = 123.344;
position = "{440, 374}";
},
{
angle = 56.582;
position = "{428, 370}";
},
{
angle = 123.4;
position = "{393, 370}";
}
);
layerId = "B5FFAA16-DBAD-40DC-8294-46FA18BBC24B";
shapes = (
{
closed = 1;
nodes = (
(329,381,l),
(573,742,l),
(521,742,l),
(302,418,l),
(84,742,l),
(31,742,l),
(276,380,l),
(20,0,l),
(71,0,l),
(303,341,l),
(535,0,l),
(586,0,l)
);
}
);
width = 606;
}
);
unicode = 88;
},
{
glyphname = Y;
layers = (
{
anchors = (
{
name = top;
position = "{382, 742}";
}
);
guides = (
{
angle = 58.823;
position = "{502, 742}";
}
);
layerId = "8DBE427A-3D94-44F6-909C-34E8B708558F";
shapes = (
{
closed = 1;
nodes = (
(502,742,l),
(356,478,l),
(209,742,l),
(-6,742,l),
(256,309,l),
(256,0,l),
(456,0,l),
(456,309,l),
(719,742,l)
);
}
);
width = 714;
},
{
anchors = (
{
name = top;
position = "{307, 742}";
}
);
guides = (
{
angle = 58.823;
position = "{502, 742}";
}
);
layerId = "7F526B41-32D4-4B88-B4BE-8E854E9660E0";
shapes = (
{
closed = 1;
nodes = (
(503,742,l),
(303,393,l),
(100,742,l),
(5,742,l),
(257,317,l),
(257,0,l),
(347,0,l),
(347,316,l),
(598,742,l)
);
}
);
width = 603;
},
{
anchors = (
{
name = top;
position = "{273, 742}";
}
);
guides = (
{
angle = 239.891;
position = "{298, 319}";
},
{
angle = 300.44;
position = "{151, 503}";
}
);
layerId = "B5FFAA16-DBAD-40DC-8294-46FA18BBC24B";
shapes = (
{
closed = 1;
nodes = (
(504,742,l),
(279,354,l),
(51,742,l),
(10,742,l),
(258,320,l),
(258,0,l),
(298,0,l),
(298,319,l),
(543,742,l)
);
}
);
width = 553;
}
);
leftKerningGroup = Y2;
rightKerningGroup = Y;
unicode = 89;
},
{
glyphname = Z;
layers = (
{
anchors = (
{
name = bottom;
position = "{356, 0}";
},
{
name = top;
position = "{380, 742}";
}
);
layerId = "8DBE427A-3D94-44F6-909C-34E8B708558F";
shapes = (
{
closed = 1;
nodes = (
(666,0,l),
(666,166,l),
(315,166,l),
(672,654,l),
(672,742,l),
(68,742,l),
(68,577,l),
(385,577,l),
(35,91,l),
(35,0,l)
);
}
);
width = 697;
},
{
anchors = (
{
name = bottom;
position = "{315, 0}";
},
{
name = top;
position = "{318, 742}";
}
);
layerId = "7F526B41-32D4-4B88-B4BE-8E854E9660E0";
shapes = (
{
closed = 1;
nodes = (
(572,0,l),
(572,79,l),
(161,79,l),
(574,693,l),
(574,742,l),
(56,742,l),
(56,663,l),
(448,663,l),
(38,50,l),
(38,0,l)
);
}
);
width = 602;
},
{
anchors = (
{
name = bottom;
position = "{297, 0}";
},
{
name = top;
position = "{290, 742}";
}
);
guides = (
{
angle = 237.13;
position = "{529, 711}";
}
);
layerId = "B5FFAA16-DBAD-40DC-8294-46FA18BBC24B";
shapes = (
{
closed = 1;
nodes = (
(529,0,l),
(529,40,l),
(91,40,l),
(529,711,l),
(529,742,l),
(50,742,l),
(50,702,l),
(476,702,l),
(40,32,l),
(40,0,l)
);
}
);
width = 559;
}
);
leftKerningGroup = Z2;
rightKerningGroup = Z;
unicode = 90;
},
{
glyphname = bracketleft;
layers = (
{
layerId = "8DBE427A-3D94-44F6-909C-34E8B708558F";
shapes = (
{
closed = 1;
nodes = (
(46,-165,l),
(321,-165,l),
(321,-58,l),
(205,-58,l),
(205,635,l),
(321,635,l),
(321,742,l),
(46,742,l)
);
}
);
width = 346;
},
{
layerId = "7F526B41-32D4-4B88-B4BE-8E854E9660E0";
shapes = (
{
closed = 1;
nodes = (
(91,-165,l),
(276,-165,l),
(276,-106,l),
(169,-106,l),
(170,683,l),
(277,683,l),
(277,742,l),
(90,742,l)
);
}
);
width = 299;
},
{
layerId = "B5FFAA16-DBAD-40DC-8294-46FA18BBC24B";
shapes = (
{
closed = 1;
nodes = (
(111,-165,l),
(256,-165,l),
(256,-128,l),
(153,-128,l),
(154,705,l),
(257,705,l),
(257,742,l),
(110,742,l)
);
}
);
width = 277;
}
);
unicode = 91;
},
{
glyphname = backslash;
layers = (
{
layerId = "8DBE427A-3D94-44F6-909C-34E8B708558F";
shapes = (
{
closed = 1;
nodes = (
(385,0,l),
(123,742,l),
(-9,742,l),
(253,0,l)
);
}
);
width = 390;
},
{
layerId = "7F526B41-32D4-4B88-B4BE-8E854E9660E0";
shapes = (
{
closed = 1;
nodes = (
(335,-41,l),
(78,742,l),
(7,742,l),
(263,-41,l)
);
}
);
width = 347;
},
{
guides = (
{
position = "{0, 657}";
showMeasurement = 1;
}
);
layerId = "B5FFAA16-DBAD-40DC-8294-46FA18BBC24B";
shapes = (
{
closed = 1;
nodes = (
(312,-60,l),
(57,742,l),
(14,742,l),
(268,-60,l)
);
}
);
width = 328;
}
);
unicode = 92;
},
{
glyphname = asciicircum;
layers = (
{
layerId = "8DBE427A-3D94-44F6-909C-34E8B708558F";
shapes = (
{
closed = 1;
nodes = (
(456,120,l),
(291,505,ls),
(270,553,o),
(202,550,o),
(182,504,cs),
(16,120,l),
(142,120,l),
(236,348,l),
(330,120,l)
);
}
);
width = 485;
},
{
layerId = "7F526B41-32D4-4B88-B4BE-8E854E9660E0";
shapes = (
{
closed = 1;
nodes = (
(431,132,l),
(277,504,ls),
(257,554,o),
(215,550,o),
(196,504,cs),
(44,133,l),
(116,133,l),
(237,435,l),
(357,132,l)
);
}
);
width = 479;
},
{
layerId = "B5FFAA16-DBAD-40DC-8294-46FA18BBC24B";
shapes = (
{
closed = 1;
nodes = (
(419,137,l),
(271,504,ls),
(251,554,o),
(221,550,o),
(203,504,cs),
(57,139,l),
(104,139,l),
(237,475,l),
(369,137,l)
);
}
);
width = 476;
}
);
unicode = 94;
},
{
glyphname = underscore;
layers = (
{
layerId = "8DBE427A-3D94-44F6-909C-34E8B708558F";
shapes = (
{
closed = 1;
nodes = (
(40,-20,l),
(40,-160,l),
(522,-160,l),
(522,-20,l)
);
}
);
width = 572;
},
{
layerId = "7F526B41-32D4-4B88-B4BE-8E854E9660E0";
shapes = (
{
closed = 1;
nodes = (
(61,-49,l),
(61,-120,l),
(459,-119,l),
(459,-48,l)
);
}
);
width = 523;
},
{
layerId = "B5FFAA16-DBAD-40DC-8294-46FA18BBC24B";
shapes = (
{
closed = 1;
nodes = (
(70,-62,l),
(70,-102,l),
(431,-101,l),
(431,-61,l)
);
}
);
width = 501;
}
);
leftKerningGroup = comma2;
rightKerningGroup = comma;
unicode = 95;
},
{
glyphname = a;
layers = (
{
layerId = "8DBE427A-3D94-44F6-909C-34E8B708558F";
shapes = (
{
closed = 1;
nodes = (
(267,-10,o),
(352,27,o),
(396,79,c),
(396,164,l),
(362,133,o),
(322,114,o),
(288,114,cs),
(249,114,o),
(228,128,o),
(228,153,cs),
(228,210,o),
(283,240,o),
(396,240,c),
(396,332,l),
(157,332,o),
(36,266,o),
(36,137,cs),
(36,54,o),
(110,-10,o),
(204,-10,cs)
);
},
{
closed = 1;
nodes = (
(564,0,l),
(554,28,o),
(552,42,o),
(552,68,cs),
(552,378,ls),
(552,484,o),
(476,540,o),
(324,540,cs),
(180,540,o),
(99,496,o),
(60,401,c),
(221,359,l),
(233,407,o),
(255,421,o),
(300,421,cs),
(348,422,o),
(371,404,o),
(371,365,cs),
(371,68,ls),
(371,42,o),
(374,28,o),
(384,0,c)
);
}
);
width = 600;
},
{
layerId = "7F526B41-32D4-4B88-B4BE-8E854E9660E0";
shapes = (
{
closed = 1;
nodes = (
(299,-10,o),
(354,18,o),
(430,97,c),
(430,163,l),
(375,103,o),
(319,58,o),
(248,58,cs),
(193,58,o),
(152,90,o),
(152,133,cs),
(152,228,o),
(285,254,o),
(430,287,c),
(430,344,l),
(247,310,o),
(57,269,o),
(57,132,cs),
(57,51,o),
(131,-10,o),
(222,-10,cs)
);
},
{
closed = 1;
nodes = (
(517,0,l),
(505,27,o),
(504,42,o),
(504,68,cs),
(504,371,ls),
(504,477,o),
(431,540,o),
(305,540,cs),
(193,540,o),
(117,493,o),
(79,415,c),
(155,386,l),
(188,448,o),
(229,475,o),
(298,475,c),
(370,476,o),
(413,437,o),
(413,370,cs),
(413,68,ls),
(413,42,o),
(413,30,o),
(426,0,c)
);
}
);
width = 574;
},
{
layerId = "B5FFAA16-DBAD-40DC-8294-46FA18BBC24B";
shapes = (
{
closed = 1;
nodes = (
(315,-10,o),
(355,13,o),
(448,106,c),
(448,163,l),
(382,87,o),
(318,29,o),
(227,29,cs),
(163,29,o),
(112,70,o),
(112,123,cs),
(112,238,o),
(286,261,o),
(448,311,c),
(448,350,l),
(294,298,o),
(68,271,o),
(68,129,cs),
(68,50,o),
(142,-10,o),
(232,-10,cs)
);
},
{
closed = 1;
nodes = (
(493,0,l),
(479,27,o),
(479,42,o),
(479,68,cs),
(479,367,ls),
(479,474,o),
(407,540,o),
(295,540,cs),
(200,540,o),
(127,492,o),
(89,423,c),
(121,400,l),
(165,470,o),
(216,504,o),
(297,504,cs),
(381,504,o),
(435,455,o),
(435,373,cs),
(435,68,ls),
(435,42,o),
(434,31,o),
(448,0,c)
);
}
);
width = 561;
}
);
leftKerningGroup = a2;
rightKerningGroup = a;
unicode = 97;
},
{
glyphname = b;
leftMetricsKey = h;
layers = (
{
layerId = "8DBE427A-3D94-44F6-909C-34E8B708558F";
shapes = (
{
closed = 1;
nodes = (
(521,-10,o),
(602,99,o),
(602,269,cs),
(602,436,o),
(526,540,o),
(396,540,cs),
(344,540,o),
(286,515,o),
(250,450,c),
(250,762,l),
(50,762,l),
(50,0,l),
(191,0,l),
(211,74,l),
(240,16,o),
(309,-10,o),
(375,-10,cs)
);
},
{
closed = 1;
nodes = (
(277,129,o),
(250,172,o),
(250,271,c),
(250,271,l),
(250,362,o),
(279,400,o),
(324,400,cs),
(365,400,o),
(400,377,o),
(400,271,cs),
(400,164,o),
(368,129,o),
(321,129,cs)
);
}
);
width = 622;
},
{
layerId = "7F526B41-32D4-4B88-B4BE-8E854E9660E0";
shapes = (
{
closed = 1;
nodes = (
(481,-10,o),
(564,97,o),
(564,268,cs),
(564,422,o),
(496,540,o),
(351,540,cs),
(256,540,o),
(197,485,o),
(178,458,c),
(178,762,l),
(88,762,l),
(88,0,l),
(157,0,l),
(166,78,l),
(183,46,o),
(241,-10,o),
(337,-10,cs)
);
},
{
closed = 1;
nodes = (
(245,60,o),
(178,120,o),
(178,206,cs),
(178,370,l),
(205,431,o),
(258,470,o),
(323,470,cs),
(417,470,o),
(472,399,o),
(472,268,cs),
(472,122,o),
(403,60,o),
(317,60,cs)
);
}
);
width = 601;
},
{
layerId = "B5FFAA16-DBAD-40DC-8294-46FA18BBC24B";
shapes = (
{
closed = 1;
nodes = (
(463,-10,o),
(547,96,o),
(547,267,cs),
(547,416,o),
(483,540,o),
(330,540,cs),
(216,540,o),
(156,472,o),
(145,461,c),
(145,762,l),
(105,762,l),
(105,0,l),
(141,0,l),
(145,80,l),
(157,60,o),
(210,-10,o),
(319,-10,cs)
);
},
{
closed = 1;
nodes = (
(231,28,o),
(145,96,o),
(145,177,cs),
(145,415,l),
(185,463,o),
(249,502,o),
(323,502,cs),
(441,502,o),
(504,409,o),
(504,267,cs),
(504,103,o),
(419,28,o),
(315,28,cs)
);
}
);
width = 592;
}
);
leftKerningGroup = b2;
rightKerningGroup = b;
unicode = 98;
},
{
glyphname = c;
leftMetricsKey = e;
layers = (
{
anchors = (
{
name = bottom;
position = "{281, 0}";
},
{
name = top;
position = "{282, 530}";
}
);
guides = (
{
angle = 359.442;
position = "{-608, 185}";
},
{
position = "{0, 136}";
},
{
angle = 3.769;
position = "{439, 340}";
}
);
layerId = "8DBE427A-3D94-44F6-909C-34E8B708558F";
shapes = (
{
closed = 1;
nodes = (
(128,540,o),
(15,427,o),
(15,263,cs),
(15,100,o),
(130,-10,o),
(282,-10,cs),
(427,-10,o),
(507,91,o),
(512,184,c),
(355,205,l),
(350,174,o),
(338,127,o),
(287,127,cs),
(236,127,o),
(198,177,o),
(198,265,cs),
(198,350,o),
(232,393,o),
(283,393,cs),
(335,393,o),
(347,352,o),
(353,314,c),
(515,335,l),
(512,434,o),
(432,540,o),
(282,540,cs)
);
}
);
width = 530;
},
{
anchors = (
{
name = bottom;
position = "{284, 0}";
},
{
name = top;
position = "{283, 530}";
}
);
guides = (
{
angle = 359.442;
position = "{-608, 185}";
},
{
position = "{0, 136}";
},
{
angle = 3.769;
position = "{439, 340}";
}
);
layerId = "7F526B41-32D4-4B88-B4BE-8E854E9660E0";
shapes = (
{
closed = 1;
nodes = (
(138,540,o),
(43,426,o),
(43,263,cs),
(43,101,o),
(138,-10,o),
(284,-10,cs),
(389,-10,o),
(458,50,o),
(493,135,c),
(420,157,l),
(388,97,o),
(354,59,o),
(288,59,cs),
(190,59,o),
(129,139,o),
(129,265,cs),
(129,389,o),
(190,468,o),
(288,468,cs),
(347,468,o),
(373,437,o),
(414,376,c),
(488,398,l),
(455,477,o),
(392,540,o),
(284,540,cs)
);
}
);
width = 536;
},
{
anchors = (
{
name = bottom;
position = "{286, 0}";
},
{
name = top;
position = "{284, 530}";
}
);
layerId = "B5FFAA16-DBAD-40DC-8294-46FA18BBC24B";
shapes = (
{
closed = 1;
nodes = (
(142,540,o),
(55,426,o),
(55,263,cs),
(55,101,o),
(142,-10,o),
(285,-10,cs),
(372,-10,o),
(435,31,o),
(484,113,c),
(450,135,l),
(405,62,o),
(361,28,o),
(289,28,cs),
(169,28,o),
(97,122,o),
(97,265,cs),
(97,406,o),
(171,502,o),
(290,502,cs),
(352,502,o),
(385,476,o),
(442,404,c),
(476,426,l),
(429,496,o),
(374,540,o),
(285,540,cs)
);
}
);
width = 539;
}
);
leftKerningGroup = c;
rightKerningGroup = b;
unicode = 99;
},
{
glyphname = d;
layers = (
{
anchors = (
{
name = bottom;
position = "{300, 0}";
},
{
name = center;
position = "{300, 265}";
},
{
name = topright;
position = "{586, 530}";
}
);
layerId = "8DBE427A-3D94-44F6-909C-34E8B708558F";
shapes = (
{
closed = 1;
nodes = (
(333,-10,o),
(390,28,o),
(416,70,c),
(431,0,l),
(572,0,l),
(572,762,l),
(372,762,l),
(372,470,l),
(340,524,o),
(278,540,o),
(226,540,cs),
(96,540,o),
(20,436,o),
(20,269,cs),
(20,99,o),
(101,-10,o),
(247,-10,cs)
);
},
{
closed = 1;
nodes = (
(249,129,o),
(212,164,o),
(212,271,cs),
(212,377,o),
(252,400,o),
(293,400,cs),
(338,400,o),
(372,373,o),
(372,291,cs),
(372,245,ls),
(372,166,o),
(340,129,o),
(296,129,cs)
);
}
);
width = 632;
},
{
anchors = (
{
name = bottom;
position = "{290, 0}";
},
{
name = center;
position = "{298, 265}";
},
{
name = topright;
position = "{603, 676}";
}
);
layerId = "7F526B41-32D4-4B88-B4BE-8E854E9660E0";
shapes = (
{
closed = 1;
nodes = (
(361,-10,o),
(417,49,o),
(437,76,c),
(441,0,l),
(512,0,l),
(512,762,l),
(422,762,l),
(422,473,l),
(376,519,o),
(325,540,o),
(265,540,cs),
(124,540,o),
(44,428,o),
(44,259,cs),
(44,85,o),
(130,-10,o),
(264,-10,cs)
);
},
{
closed = 1;
nodes = (
(197,60,o),
(133,120,o),
(133,263,cs),
(133,400,o),
(194,470,o),
(287,470,cs),
(343,470,o),
(388,442,o),
(422,384,c),
(422,193,ls),
(422,128,o),
(362,60,o),
(282,60,cs)
);
}
);
width = 602;
},
{
anchors = (
{
name = bottom;
position = "{285, 0}";
},
{
name = center;
position = "{297, 265}";
},
{
name = topright;
position = "{610, 742}";
}
);
layerId = "B5FFAA16-DBAD-40DC-8294-46FA18BBC24B";
shapes = (
{
closed = 1;
nodes = (
(374,-10,o),
(429,59,o),
(446,79,c),
(446,0,l),
(484,0,l),
(484,762,l),
(444,762,l),
(444,475,l),
(392,517,o),
(347,540,o),
(283,540,cs),
(136,540,o),
(55,425,o),
(55,255,cs),
(55,78,o),
(143,-10,o),
(271,-10,cs)
);
},
{
closed = 1;
nodes = (
(174,28,o),
(97,100,o),
(97,259,cs),
(97,411,o),
(167,502,o),
(284,502,cs),
(345,502,o),
(395,474,o),
(444,426,c),
(444,170,ls),
(444,110,o),
(372,28,o),
(276,28,cs)
);
}
);
width = 589;
}
);
leftKerningGroup = c;
rightKerningGroup = d;
unicode = 100;
},
{
glyphname = e;
layers = (
{
anchors = (
{
name = bottom;
position = "{288, 0}";
},
{
name = ogonek;
position = "{417, 26}";
},
{
name = top;
position = "{285, 530}";
}
);
layerId = "8DBE427A-3D94-44F6-909C-34E8B708558F";
shapes = (
{
closed = 1;
nodes = (
(545,208,l),
(545,255,ls),
(545,412,o),
(458,540,o),
(284,540,cs),
(114,540,o),
(15,410,o),
(15,258,cs),
(15,97,o),
(127,-10,o),
(293,-10,cs),
(410,-10,o),
(491,42,o),
(533,138,c),
(390,173,l),
(368,139,o),
(327,124,o),
(290,124,cs),
(247,124,o),
(212,145,o),
(213,208,c)
);
},
{
closed = 1;
nodes = (
(213,335,l),
(213,375,o),
(244,415,o),
(285,415,cs),
(336,415,o),
(357,375,o),
(357,335,c)
);
}
);
width = 560;
},
{
anchors = (
{
name = bottom;
position = "{278, 0}";
},
{
name = ogonek;
position = "{390, 21}";
},
{
name = top;
position = "{283, 530}";
}
);
layerId = "7F526B41-32D4-4B88-B4BE-8E854E9660E0";
shapes = (
{
closed = 1;
nodes = (
(513,240,l),
(513,275,ls),
(513,436,o),
(431,540,o),
(283,540,cs),
(131,540,o),
(43,428,o),
(43,260,cs),
(43,90,o),
(146,-10,o),
(293,-10,cs),
(388,-10,o),
(462,32,o),
(501,118,c),
(429,139,l),
(401,88,o),
(360,59,o),
(292,59,cs),
(187,59,o),
(134,137,o),
(134,240,c)
);
},
{
closed = 1;
nodes = (
(135,307,l),
(134,388,o),
(181,473,o),
(282,473,cs),
(380,473,o),
(425,400,o),
(425,307,c)
);
}
);
width = 559;
},
{
anchors = (
{
name = bottom;
position = "{273, 0}";
},
{
name = ogonek;
position = "{378, 18}";
},
{
name = top;
position = "{282, 530}";
}
);
guides = (
{
angle = 88.493;
position = "{284, 521}";
}
);
layerId = "B5FFAA16-DBAD-40DC-8294-46FA18BBC24B";
shapes = (
{
closed = 1;
nodes = (
(498,254,l),
(498,284,ls),
(498,447,o),
(418,540,o),
(282,540,cs),
(138,540,o),
(55,436,o),
(55,261,cs),
(55,87,o),
(154,-10,o),
(293,-10,cs),
(378,-10,o),
(449,28,o),
(486,109,c),
(447,123,l),
(416,65,o),
(375,30,o),
(293,30,cs),
(159,30,o),
(98,134,o),
(98,254,c)
);
},
{
closed = 1;
nodes = (
(99,294,l),
(98,394,o),
(152,500,o),
(281,500,cs),
(400,500,o),
(456,412,o),
(456,294,c)
);
}
);
width = 558;
}
);
leftKerningGroup = c;
rightKerningGroup = b;
unicode = 101;
},
{
glyphname = f;
layers = (
{
layerId = "8DBE427A-3D94-44F6-909C-34E8B708558F";
shapes = (
{
closed = 1;
nodes = (
(296,530,l),
(296,581,ls),
(296,620,o),
(308,632,o),
(341,632,cs),
(402,632,l),
(401,762,l),
(259,762,ls),
(162,762,o),
(101,708,o),
(101,621,cs),
(101,530,l),
(15,530,l),
(15,395,l),
(101,395,l),
(101,0,l),
(301,0,l),
(301,395,l),
(397,395,l),
(397,530,l)
);
}
);
width = 417;
},
{
layerId = "7F526B41-32D4-4B88-B4BE-8E854E9660E0";
shapes = (
{
closed = 1;
nodes = (
(231,530,l),
(231,626,ls),
(231,674,o),
(243,697,o),
(288,697,cs),
(368,697,l),
(367,762,l),
(269,762,ls),
(184,762,o),
(142,716,o),
(142,633,cs),
(142,530,l),
(29,530,l),
(29,464,l),
(142,464,l),
(142,0,l),
(232,0,l),
(232,464,l),
(363,464,l),
(363,530,l)
);
}
);
width = 396;
},
{
layerId = "B5FFAA16-DBAD-40DC-8294-46FA18BBC24B";
shapes = (
{
closed = 1;
nodes = (
(201,530,l),
(201,647,ls),
(201,698,o),
(214,727,o),
(264,727,cs),
(352,727,l),
(352,762,l),
(274,762,ls),
(194,762,o),
(161,720,o),
(161,638,cs),
(161,530,l),
(35,530,l),
(35,495,l),
(161,495,l),
(161,0,l),
(201,0,l),
(201,495,l),
(347,495,l),
(347,530,l)
);
}
);
width = 387;
}
);
unicode = 102;
},
{
glyphname = g;
layers = (
{
anchors = (
{
name = top;
position = "{315, 530}";
}
);
layerId = "8DBE427A-3D94-44F6-909C-34E8B708558F";
shapes = (
{
closed = 1;
nodes = (
(517,-175,o),
(619,-99,o),
(619,3,cs),
(619,85,o),
(554,152,o),
(407,162,cs),
(376,164,o),
(217,165,o),
(217,186,cs),
(217,191,o),
(221,193,o),
(231,195,c),
(249,193,o),
(285,192,o),
(302,192,cs),
(470,192,o),
(559,284,o),
(559,374,cs),
(559,392,o),
(555,402,o),
(549,419,c),
(643,428,l),
(644,569,l),
(472,500,l),
(433,520,o),
(390,538,o),
(314,538,cs),
(170,538,o),
(44,480,o),
(44,373,cs),
(44,317,o),
(81,249,o),
(158,215,c),
(75,204,o),
(36,164,o),
(36,122,cs),
(36,76,o),
(79,48,o),
(117,33,c),
(75,19,o),
(5,4,o),
(5,-53,cs),
(5,-121,o),
(107,-175,o),
(316,-175,cs)
);
},
{
closed = 1;
nodes = (
(270,296,o),
(244,326,o),
(244,366,cs),
(244,406,o),
(270,441,o),
(308,441,cs),
(346,441,o),
(372,406,o),
(372,366,cs),
(372,326,o),
(346,296,o),
(308,296,cs)
);
},
{
closed = 1;
nodes = (
(245,-71,o),
(199,-64,o),
(199,-30,cs),
(199,-12,o),
(213,11,o),
(268,8,cs),
(300,6,o),
(332,4,o),
(364,2,cs),
(405,-1,o),
(430,-15,o),
(430,-38,cs),
(430,-57,o),
(417,-71,o),
(347,-71,cs)
);
}
);
width = 652;
},
{
layerId = "7F526B41-32D4-4B88-B4BE-8E854E9660E0";
shapes = (
{
closed = 1;
nodes = (
(491,-175,o),
(590,-116,o),
(590,-26,cs),
(590,40,o),
(534,111,o),
(367,116,cs),
(297,117,o),
(172,124,o),
(172,156,cs),
(172,178,o),
(187,196,o),
(218,198,c),
(244,189,o),
(279,183,o),
(311,183,cs),
(451,183,o),
(539,262,o),
(539,362,cs),
(539,398,o),
(528,428,o),
(508,453,c),
(607,471,l),
(607,547,l),
(465,495,l),
(428,521,o),
(380,538,o),
(315,538,cs),
(183,538,o),
(82,470,o),
(82,363,cs),
(82,304,o),
(113,249,o),
(170,216,c),
(108,203,o),
(81,172,o),
(81,134,cs),
(81,98,o),
(109,74,o),
(154,60,c),
(91,41,o),
(38,8,o),
(38,-54,cs),
(38,-124,o),
(143,-175,o),
(315,-175,cs)
);
},
{
closed = 1;
nodes = (
(234,245,o),
(180,293,o),
(180,360,cs),
(180,428,o),
(234,476,o),
(313,476,cs),
(393,476,o),
(446,428,o),
(446,360,cs),
(446,293,o),
(393,245,o),
(313,245,cs)
);
},
{
closed = 1;
nodes = (
(202,-112,o),
(135,-89,o),
(135,-41,cs),
(135,4,o),
(180,33,o),
(254,43,c),
(284,39,o),
(319,37,o),
(357,35,cs),
(448,31,o),
(495,9,o),
(495,-39,cs),
(495,-87,o),
(442,-112,o),
(325,-112,cs)
);
}
);
width = 647;
},
{
layerId = "B5FFAA16-DBAD-40DC-8294-46FA18BBC24B";
shapes = (
{
closed = 1;
nodes = (
(477,-175,o),
(575,-125,o),
(575,-41,cs),
(575,17,o),
(524,90,o),
(346,92,cs),
(255,93,o),
(149,102,o),
(149,141,cs),
(149,171,o),
(169,197,o),
(211,199,c),
(241,187,o),
(276,179,o),
(315,179,cs),
(441,179,o),
(529,251,o),
(529,355,cs),
(529,401,o),
(514,441,o),
(486,471,c),
(588,494,l),
(588,535,l),
(462,493,l),
(425,522,o),
(374,538,o),
(315,538,cs),
(190,538,o),
(102,465,o),
(102,357,cs),
(102,297,o),
(129,249,o),
(176,217,c),
(126,202,o),
(104,176,o),
(104,141,cs),
(104,110,o),
(124,88,o),
(174,74,c),
(100,53,o),
(56,10,o),
(56,-54,cs),
(56,-125,o),
(162,-175,o),
(315,-175,cs)
);
},
{
closed = 1;
nodes = (
(215,219,o),
(147,276,o),
(147,357,cs),
(147,440,o),
(215,495,o),
(315,495,cs),
(417,495,o),
(484,439,o),
(484,357,cs),
(484,276,o),
(417,219,o),
(315,219,cs)
);
},
{
closed = 1;
nodes = (
(180,-133,o),
(102,-102,o),
(102,-47,cs),
(102,13,o),
(162,45,o),
(246,61,c),
(276,57,o),
(312,54,o),
(354,52,cs),
(470,47,o),
(529,21,o),
(529,-40,cs),
(529,-102,o),
(455,-133,o),
(314,-133,cs)
);
}
);
width = 644;
}
);
leftKerningGroup = g2;
rightKerningGroup = g;
unicode = 103;
},
{
glyphname = h;
layers = (
{
anchors = (
{
name = bottom;
position = "{314, 0}";
},
{
name = top;
position = "{453, 530}";
}
);
layerId = "8DBE427A-3D94-44F6-909C-34E8B708558F";
shapes = (
{
closed = 1;
nodes = (
(250,0,l),
(250,329,ls),
(250,359,o),
(283,379,o),
(313,379,cs),
(343,379,o),
(376,361,o),
(376,331,cs),
(376,0,l),
(576,0,l),
(576,355,ls),
(576,461,o),
(489,530,o),
(390,530,cs),
(307,530,o),
(280,499,o),
(247,465,c),
(247,762,l),
(50,762,l),
(50,0,l)
);
}
);
width = 626;
},
{
anchors = (
{
name = bottom;
position = "{316, 0}";
},
{
name = top;
position = "{375, 530}";
}
);
layerId = "7F526B41-32D4-4B88-B4BE-8E854E9660E0";
shapes = (
{
closed = 1;
nodes = (
(178,0,l),
(178,385,l),
(233,436,o),
(275,464,o),
(334,464,cs),
(403,464,o),
(438,426,o),
(438,363,cs),
(438,0,l),
(528,0,l),
(528,381,ls),
(528,474,o),
(463,537,o),
(358,537,cs),
(280,537,o),
(239,506,o),
(175,455,c),
(175,762,l),
(88,762,l),
(88,0,l)
);
}
);
width = 605;
},
{
anchors = (
{
name = bottom;
position = "{317, 0}";
},
{
name = top;
position = "{339, 530}";
}
);
layerId = "B5FFAA16-DBAD-40DC-8294-46FA18BBC24B";
shapes = (
{
closed = 1;
nodes = (
(145,0,l),
(145,410,l),
(225,471,o),
(272,502,o),
(343,502,cs),
(430,502,o),
(466,455,o),
(466,377,cs),
(466,0,l),
(506,0,l),
(506,393,ls),
(506,480,o),
(451,540,o),
(344,540,cs),
(268,540,o),
(221,509,o),
(142,451,c),
(142,762,l),
(105,762,l),
(105,0,l)
);
}
);
width = 596;
}
);
leftKerningGroup = b2;
rightKerningGroup = a;
unicode = 104;
},
{
glyphname = i;
layers = (
{
layerId = "8DBE427A-3D94-44F6-909C-34E8B708558F";
shapes = (
{
closed = 1;
nodes = (
(50,530,l),
(50,0,l),
(250,0,l),
(250,530,l)
);
},
{
closed = 1;
nodes = (
(50,762,l),
(50,594,l),
(250,594,l),
(250,762,l)
);
}
);
width = 305;
},
{
layerId = "7F526B41-32D4-4B88-B4BE-8E854E9660E0";
shapes = (
{
closed = 1;
nodes = (
(91,530,l),
(91,0,l),
(181,0,l),
(181,530,l)
);
},
{
closed = 1;
nodes = (
(88,762,l),
(88,642,l),
(185,642,l),
(185,762,l)
);
}
);
width = 274;
},
{
layerId = "B5FFAA16-DBAD-40DC-8294-46FA18BBC24B";
shapes = (
{
closed = 1;
nodes = (
(110,530,l),
(110,0,l),
(150,0,l),
(150,530,l)
);
},
{
closed = 1;
nodes = (
(105,762,l),
(105,664,l),
(155,664,l),
(155,762,l)
);
}
);
width = 260;
}
);
leftKerningGroup = b2;
rightKerningGroup = d;
unicode = 105;
},
{
glyphname = j;
layers = (
{
layerId = "8DBE427A-3D94-44F6-909C-34E8B708558F";
shapes = (
{
closed = 1;
nodes = (
(234,530,l),
(34,530,l),
(34,29,ls),
(34,7,o),
(23,-6,o),
(-15,-14,c),
(-45,-19,l),
(-44,-153,l),
(-44,-153,o),
(-29,-170,o),
(24,-170,cs),
(166,-170,o),
(234,-103,o),
(234,29,cs)
);
},
{
closed = 1;
nodes = (
(34,762,l),
(34,594,l),
(234,594,l),
(234,762,l)
);
}
);
width = 287;
},
{
layerId = "7F526B41-32D4-4B88-B4BE-8E854E9660E0";
shapes = (
{
closed = 1;
nodes = (
(178,530,l),
(88,530,l),
(88,-23,ls),
(88,-73,o),
(70,-93,o),
(22,-96,c),
(-31,-98,l),
(-31,-159,l),
(-31,-159,o),
(-22,-170,o),
(35,-170,cs),
(142,-170,o),
(178,-124,o),
(178,-26,cs)
);
},
{
closed = 1;
nodes = (
(85,762,l),
(85,642,l),
(182,642,l),
(182,762,l)
);
}
);
width = 271;
},
{
layerId = "B5FFAA16-DBAD-40DC-8294-46FA18BBC24B";
shapes = (
{
closed = 1;
nodes = (
(153,530,l),
(113,530,l),
(113,-46,ls),
(113,-110,o),
(92,-132,o),
(39,-133,cs),
(-25,-134,l),
(-25,-161,l),
(-25,-161,o),
(-19,-170,o),
(40,-170,cs),
(131,-170,o),
(153,-133,o),
(153,-51,cs)
);
},
{
closed = 1;
nodes = (
(108,762,l),
(108,664,l),
(158,664,l),
(158,762,l)
);
}
);
width = 263;
}
);
leftKerningGroup = j;
rightKerningGroup = d;
unicode = 106;
},
{
glyphname = k;
leftMetricsKey = h;
layers = (
{
anchors = (
{
name = bottom;
position = "{310, 0}";
}
);
guides = (
{
angle = 228.491;
position = "{250, 150}";
},
{
angle = 122.;
position = "{411, 0}";
}
);
layerId = "8DBE427A-3D94-44F6-909C-34E8B708558F";
shapes = (
{
closed = 1;
nodes = (
(410,311,l),
(604,530,l),
(407,530,l),
(250,341,l),
(250,762,l),
(50,762,l),
(50,0,l),
(250,0,l),
(250,150,l),
(289,195,l),
(411,0,l),
(605,0,l)
);
}
);
width = 615;
},
{
anchors = (
{
name = bottom;
position = "{294, 0}";
}
);
guides = (
{
angle = 228.491;
position = "{250, 150}";
},
{
angle = 122.;
position = "{411, 0}";
}
);
layerId = "7F526B41-32D4-4B88-B4BE-8E854E9660E0";
shapes = (
{
closed = 1;
nodes = (
(345,329,l),
(536,530,l),
(436,530,l),
(178,257,l),
(178,762,l),
(88,762,l),
(88,0,l),
(178,0,l),
(178,158,l),
(286,270,l),
(454,0,l),
(550,0,l)
);
}
);
width = 581;
},
{
anchors = (
{
name = bottom;
position = "{287, 0}";
}
);
guides = (
{
angle = 121.87;
position = "{380, 152}";
}
);
layerId = "B5FFAA16-DBAD-40DC-8294-46FA18BBC24B";
shapes = (
{
closed = 1;
nodes = (
(316,337,l),
(505,530,l),
(449,530,l),
(145,219,l),
(145,762,l),
(105,762,l),
(105,0,l),
(145,0,l),
(145,162,l),
(285,304,l),
(474,0,l),
(525,0,l)
);
}
);
width = 565;
}
);
leftKerningGroup = b2;
rightKerningGroup = k;
unicode = 107;
},
{
glyphname = l;
leftMetricsKey = h;
widthMetricsKey = idotless;
layers = (
{
anchors = (
{
name = bottom;
position = "{131, 0}";
},
{
name = top;
position = "{145, 785}";
},
{
name = topright;
position = "{394, 785}";
}
);
layerId = "8DBE427A-3D94-44F6-909C-34E8B708558F";
shapes = (
{
closed = 1;
nodes = (
(250,0,l),
(250,762,l),
(50,762,l),
(50,0,l)
);
}
);
width = 305;
},
{
anchors = (
{
name = bottom;
position = "{121, 0}";
},
{
name = top;
position = "{126, 783}";
},
{
name = topright;
position = "{303, 755}";
}
);
layerId = "7F526B41-32D4-4B88-B4BE-8E854E9660E0";
shapes = (
{
closed = 1;
nodes = (
(178,0,l),
(178,762,l),
(88,762,l),
(88,0,l)
);
}
);
width = 267;
},
{
anchors = (
{
name = bottom;
position = "{117, 0}";
},
{
name = top;
position = "{117, 782}";
},
{
name = topright;
position = "{262, 742}";
}
);
layerId = "B5FFAA16-DBAD-40DC-8294-46FA18BBC24B";
shapes = (
{
closed = 1;
nodes = (
(145,0,l),
(145,762,l),
(105,762,l),
(105,0,l)
);
}
);
width = 250;
}
);
leftKerningGroup = b2;
unicode = 108;
},
{
glyphname = m;
leftMetricsKey = n;
layers = (
{
guides = (
{
angle = 90;
position = "{333, 0}";
showMeasurement = 1;
}
);
layerId = "8DBE427A-3D94-44F6-909C-34E8B708558F";
shapes = (
{
closed = 1;
nodes = (
(250,0,l),
(250,350,ls),
(250,380,o),
(283,399,o),
(313,399,cs),
(343,399,o),
(376,380,o),
(376,350,cs),
(376,0,l),
(575,0,l),
(575,318,ls),
(575,327,o),
(575,336,o),
(575,350,cs),
(575,380,o),
(609,399,o),
(639,399,cs),
(669,399,o),
(701,380,o),
(701,350,cs),
(701,0,l),
(901,0,l),
(901,373,ls),
(901,479,o),
(809,540,o),
(727,540,cs),
(670,540,o),
(602,511,o),
(566,467,c),
(531,522,o),
(471,541,o),
(420,541,cs),
(337,541,o),
(280,491,o),
(247,467,c),
(247,530,l),
(50,530,l),
(50,0,l)
);
}
);
width = 951;
},
{
guides = (
{
angle = 90;
position = "{333, 0}";
showMeasurement = 1;
}
);
layerId = "7F526B41-32D4-4B88-B4BE-8E854E9660E0";
shapes = (
{
closed = 1;
nodes = (
(178,0,l),
(178,391,l),
(230,443,o),
(271,470,o),
(327,470,cs),
(391,470,o),
(424,432,o),
(424,369,cs),
(424,0,l),
(514,0,l),
(514,370,ls),
(514,382,o),
(517,389,o),
(526,400,c),
(552,432,o),
(604,470,o),
(663,470,cs),
(727,470,o),
(760,432,o),
(760,369,cs),
(760,0,l),
(850,0,l),
(850,387,ls),
(850,480,o),
(786,540,o),
(691,540,cs),
(631,540,o),
(586,519,o),
(506,454,c),
(482,510,o),
(428,540,o),
(361,540,cs),
(285,540,o),
(237,503,o),
(175,456,c),
(175,530,l),
(88,530,l),
(88,0,l)
);
}
);
width = 928;
},
{
guides = (
{
position = "{0, 454}";
}
);
layerId = "B5FFAA16-DBAD-40DC-8294-46FA18BBC24B";
shapes = (
{
closed = 1;
nodes = (
(145,0,l),
(145,410,l),
(221,471,o),
(266,502,o),
(333,502,cs),
(413,502,o),
(446,455,o),
(446,377,cs),
(446,0,l),
(486,0,l),
(486,393,ls),
(486,407,o),
(491,413,o),
(503,423,cs),
(542,455,o),
(601,502,o),
(674,502,cs),
(754,502,o),
(787,455,o),
(787,377,cs),
(787,0,l),
(827,0,l),
(827,393,ls),
(827,480,o),
(775,540,o),
(675,540,cs),
(613,540,o),
(578,522,o),
(478,448,c),
(460,504,o),
(409,540,o),
(334,540,cs),
(262,540,o),
(217,509,o),
(142,451,c),
(142,530,l),
(105,530,l),
(105,0,l)
);
}
);
width = 917;
}
);
leftKerningGroup = b2;
rightKerningGroup = a;
unicode = 109;
},
{
glyphname = n;
layers = (
{
anchors = (
{
name = bottom;
position = "{313, 0}";
},
{
name = top;
position = "{313, 530}";
}
);
layerId = "8DBE427A-3D94-44F6-909C-34E8B708558F";
shapes = (
{
closed = 1;
nodes = (
(250,0,l),
(250,331,ls),
(250,361,o),
(285,379,o),
(315,379,cs),
(345,379,o),
(377,361,o),
(377,331,cs),
(377,0,l),
(577,0,l),
(577,358,ls),
(577,457,o),
(484,532,o),
(391,532,cs),
(308,532,o),
(281,501,o),
(248,467,c),
(248,530,l),
(50,530,l),
(50,0,l)
);
}
);
width = 627;
},
{
anchors = (
{
name = bottom;
position = "{309, 0}";
},
{
name = top;
position = "{316, 530}";
}
);
layerId = "7F526B41-32D4-4B88-B4BE-8E854E9660E0";
shapes = (
{
closed = 1;
nodes = (
(178,0,l),
(178,385,l),
(233,437,o),
(276,464,o),
(334,464,cs),
(403,464,o),
(438,426,o),
(438,363,cs),
(438,0,l),
(528,0,l),
(528,382,ls),
(528,473,o),
(461,538,o),
(359,538,cs),
(281,538,o),
(240,507,o),
(175,456,c),
(175,530,l),
(88,530,l),
(88,0,l)
);
}
);
width = 606;
},
{
anchors = (
{
name = bottom;
position = "{307, 0}";
},
{
name = top;
position = "{317, 530}";
}
);
layerId = "B5FFAA16-DBAD-40DC-8294-46FA18BBC24B";
shapes = (
{
closed = 1;
nodes = (
(145,0,l),
(145,410,l),
(225,471,o),
(272,502,o),
(343,502,cs),
(430,502,o),
(466,455,o),
(466,377,cs),
(466,0,l),
(506,0,l),
(506,393,ls),
(506,480,o),
(451,540,o),
(344,540,cs),
(268,540,o),
(221,509,o),
(142,451,c),
(142,530,l),
(105,530,l),
(105,0,l)
);
}
);
width = 596;
}
);
leftKerningGroup = b2;
rightKerningGroup = a;
unicode = 110;
},
{
glyphname = o;
leftMetricsKey = e;
layers = (
{
anchors = (
{
name = bottom;
position = "{281, 0}";
},
{
name = ogonek;
position = "{362, 10}";
},
{
name = top;
position = "{284, 530}";
}
);
layerId = "8DBE427A-3D94-44F6-909C-34E8B708558F";
shapes = (
{
closed = 1;
nodes = (
(448,-10,o),
(553,104,o),
(553,262,cs),
(553,423,o),
(451,540,o),
(284,540,cs),
(126,540,o),
(15,429,o),
(15,262,cs),
(15,103,o),
(119,-10,o),
(283,-10,cs)
);
},
{
closed = 1;
nodes = (
(220,134,o),
(208,212,o),
(208,269,cs),
(208,326,o),
(220,398,o),
(284,398,cs),
(348,398,o),
(359,326,o),
(359,269,cs),
(359,212,o),
(348,134,o),
(284,134,cs)
);
}
);
width = 568;
},
{
anchors = (
{
name = bottom;
position = "{282, 0}";
},
{
name = ogonek;
position = "{352, 10}";
},
{
name = top;
position = "{285, 530}";
}
);
layerId = "7F526B41-32D4-4B88-B4BE-8E854E9660E0";
shapes = (
{
closed = 1;
nodes = (
(435,-10,o),
(524,103,o),
(524,263,cs),
(524,425,o),
(436,540,o),
(284,540,cs),
(134,540,o),
(43,426,o),
(43,262,cs),
(43,102,o),
(131,-10,o),
(283,-10,cs)
);
},
{
closed = 1;
nodes = (
(179,61,o),
(132,151,o),
(132,266,cs),
(132,380,o),
(179,470,o),
(284,470,cs),
(388,470,o),
(435,381,o),
(435,266,cs),
(435,150,o),
(389,61,o),
(285,61,cs)
);
}
);
width = 567;
},
{
anchors = (
{
name = bottom;
position = "{282, 0}";
},
{
name = ogonek;
position = "{347, 10}";
},
{
name = top;
position = "{285, 530}";
}
);
layerId = "B5FFAA16-DBAD-40DC-8294-46FA18BBC24B";
shapes = (
{
closed = 1;
nodes = (
(429,-10,o),
(511,102,o),
(511,264,cs),
(511,426,o),
(429,540,o),
(284,540,cs),
(138,540,o),
(55,425,o),
(55,262,cs),
(55,101,o),
(136,-10,o),
(283,-10,cs)
);
},
{
closed = 1;
nodes = (
(161,28,o),
(97,123,o),
(97,264,cs),
(97,405,o),
(161,502,o),
(284,502,cs),
(406,502,o),
(469,406,o),
(469,264,cs),
(469,122,o),
(408,28,o),
(285,28,cs)
);
}
);
width = 566;
}
);
leftKerningGroup = c;
rightKerningGroup = b;
unicode = 111;
},
{
glyphname = p;
layers = (
{
layerId = "8DBE427A-3D94-44F6-909C-34E8B708558F";
shapes = (
{
closed = 1;
nodes = (
(250,-165,l),
(250,59,l),
(283,-4,o),
(344,-10,o),
(376,-10,cs),
(488,-10,o),
(602,65,o),
(602,267,cs),
(602,454,o),
(508,540,o),
(397,540,cs),
(347,540,o),
(291,523,o),
(251,469,c),
(251,530,l),
(50,530,l),
(50,-165,l)
);
},
{
closed = 1;
nodes = (
(290,129,o),
(250,171,o),
(250,227,cs),
(250,307,ls),
(250,353,o),
(290,400,o),
(334,400,cs),
(378,400,o),
(418,353,o),
(418,267,cs),
(418,171,o),
(378,129,o),
(334,129,cs)
);
}
);
width = 622;
},
{
layerId = "7F526B41-32D4-4B88-B4BE-8E854E9660E0";
shapes = (
{
closed = 1;
nodes = (
(178,-165,l),
(178,54,l),
(225,4,o),
(276,-10,o),
(328,-10,cs),
(464,-10,o),
(564,93,o),
(564,273,cs),
(564,453,o),
(465,540,o),
(343,540,cs),
(250,540,o),
(201,487,o),
(177,457,c),
(177,530,l),
(88,530,l),
(88,-165,l)
);
},
{
closed = 1;
nodes = (
(258,60,o),
(212,93,o),
(178,142,c),
(178,346,ls),
(178,402,o),
(237,470,o),
(320,470,cs),
(402,470,o),
(477,406,o),
(477,270,cs),
(477,135,o),
(407,60,o),
(314,60,cs)
);
}
);
width = 608;
},
{
layerId = "B5FFAA16-DBAD-40DC-8294-46FA18BBC24B";
shapes = (
{
closed = 1;
nodes = (
(145,-165,l),
(145,51,l),
(198,8,o),
(245,-10,o),
(306,-10,cs),
(453,-10,o),
(546,105,o),
(546,275,cs),
(546,452,o),
(446,540,o),
(318,540,cs),
(206,540,o),
(160,471,o),
(143,451,c),
(143,530,l),
(105,530,l),
(105,-165,l)
);
},
{
closed = 1;
nodes = (
(244,28,o),
(194,57,o),
(145,104,c),
(145,364,ls),
(145,424,o),
(213,502,o),
(313,502,cs),
(413,502,o),
(504,430,o),
(504,271,cs),
(504,119,o),
(420,28,o),
(305,28,cs)
);
}
);
width = 601;
}
);
leftKerningGroup = b2;
rightKerningGroup = b;
unicode = 112;
},
{
glyphname = q;
leftMetricsKey = e;
layers = (
{
layerId = "8DBE427A-3D94-44F6-909C-34E8B708558F";
shapes = (
{
closed = 1;
nodes = (
(567,530,l),
(366,530,l),
(366,489,l),
(325,523,o),
(271,540,o),
(221,540,cs),
(110,540,o),
(15,454,o),
(15,267,cs),
(15,65,o),
(114,-10,o),
(226,-10,cs),
(271,-10,o),
(317,2,o),
(367,49,c),
(367,-165,l),
(567,-165,l)
);
},
{
closed = 1;
nodes = (
(251,119,o),
(217,175,o),
(217,271,cs),
(217,367,o),
(251,410,o),
(296,410,cs),
(341,410,o),
(367,367,o),
(367,271,c),
(367,271,l),
(367,175,o),
(341,119,o),
(296,119,cs)
);
}
);
width = 617;
},
{
layerId = "7F526B41-32D4-4B88-B4BE-8E854E9660E0";
shapes = (
{
closed = 1;
nodes = (
(518,530,l),
(429,530,l),
(429,463,l),
(405,487,o),
(356,540,o),
(264,540,cs),
(141,540,o),
(43,453,o),
(43,273,cs),
(43,93,o),
(137,-10,o),
(273,-10,cs),
(329,-10,o),
(376,6,o),
(428,50,c),
(428,-165,l),
(518,-165,l)
);
},
{
closed = 1;
nodes = (
(203,56,o),
(135,137,o),
(135,271,cs),
(135,410,o),
(208,473,o),
(291,473,cs),
(373,473,o),
(428,406,o),
(428,335,cs),
(428,156,l),
(395,94,o),
(352,56,o),
(296,56,cs)
);
}
);
width = 603;
},
{
layerId = "B5FFAA16-DBAD-40DC-8294-46FA18BBC24B";
shapes = (
{
closed = 1;
nodes = (
(496,530,l),
(458,530,l),
(458,451,l),
(441,471,o),
(395,540,o),
(283,540,cs),
(155,540,o),
(55,452,o),
(55,275,cs),
(55,105,o),
(148,-10,o),
(295,-10,cs),
(356,-10,o),
(403,8,o),
(456,51,c),
(456,-165,l),
(496,-165,l)
);
},
{
closed = 1;
nodes = (
(181,28,o),
(97,119,o),
(97,271,cs),
(97,430,o),
(188,502,o),
(288,502,cs),
(388,502,o),
(456,424,o),
(456,364,cs),
(456,104,l),
(407,57,o),
(357,28,o),
(296,28,cs)
);
}
);
width = 596;
}
);
leftKerningGroup = c;
rightKerningGroup = d;
unicode = 113;
},
{
glyphname = r;
layers = (
{
anchors = (
{
name = bottom;
position = "{162, 0}";
},
{
name = top;
position = "{241, 530}";
}
);
layerId = "8DBE427A-3D94-44F6-909C-34E8B708558F";
shapes = (
{
closed = 1;
nodes = (
(250,0,l),
(250,254,ls),
(250,310,o),
(274,368,o),
(423,353,c),
(422,540,l),
(323,540,o),
(268,469,o),
(243,384,c),
(243,530,l),
(50,530,l),
(50,0,l)
);
}
);
width = 438;
},
{
anchors = (
{
name = bottom;
position = "{133, 0}";
},
{
name = top;
position = "{221, 530}";
}
);
layerId = "7F526B41-32D4-4B88-B4BE-8E854E9660E0";
shapes = (
{
closed = 1;
nodes = (
(174,0,l),
(174,321,ls),
(174,387,o),
(257,459,o),
(365,453,c),
(365,540,l),
(287,540,o),
(206,488,o),
(170,419,c),
(170,530,l),
(84,530,l),
(84,0,l)
);
}
);
width = 394;
},
{
anchors = (
{
name = bottom;
position = "{120, 0}";
},
{
name = top;
position = "{212, 530}";
}
);
layerId = "B5FFAA16-DBAD-40DC-8294-46FA18BBC24B";
shapes = (
{
closed = 1;
nodes = (
(140,0,l),
(140,351,ls),
(140,422,o),
(249,501,o),
(339,499,c),
(339,540,l),
(270,540,o),
(178,496,o),
(137,435,c),
(137,530,l),
(100,530,l),
(100,0,l)
);
}
);
width = 374;
}
);
leftKerningGroup = b2;
rightKerningGroup = r;
unicode = 114;
},
{
glyphname = s;
layers = (
{
anchors = (
{
name = bottom;
position = "{273, 0}";
},
{
name = top;
position = "{274, 530}";
}
);
layerId = "8DBE427A-3D94-44F6-909C-34E8B708558F";
shapes = (
{
closed = 1;
nodes = (
(410,-10,o),
(508,69,o),
(508,170,cs),
(508,214,o),
(488,288,o),
(353,324,cs),
(285,342,ls),
(230,357,o),
(202,362,o),
(202,381,cs),
(202,404,o),
(243,410,o),
(278,410,cs),
(315,410,o),
(364,389,o),
(376,362,c),
(493,421,l),
(462,482,o),
(410,540,o),
(280,540,cs),
(125,540,o),
(34,463,o),
(35,356,cs),
(36,265,o),
(103,221,o),
(203,199,cs),
(282,182,ls),
(319,174,o),
(334,169,o),
(334,149,cs),
(334,130,o),
(309,122,o),
(276,122,cs),
(210,122,o),
(146,157,o),
(135,182,c),
(5,136,l),
(40,64,o),
(135,-10,o),
(275,-10,cs)
);
}
);
width = 513;
},
{
layerId = "7F526B41-32D4-4B88-B4BE-8E854E9660E0";
shapes = (
{
closed = 1;
nodes = (
(387,-11,o),
(481,57,o),
(481,144,cs),
(481,213,o),
(435,264,o),
(341,290,cs),
(254,314,ls),
(189,332,o),
(140,350,o),
(140,398,cs),
(140,444,o),
(195,470,o),
(266,470,cs),
(325,470,o),
(377,437,o),
(394,401,c),
(463,436,l),
(416,502,o),
(363,539,o),
(260,539,cs),
(141,539,o),
(56,475,o),
(57,391,cs),
(57,300,o),
(130,266,o),
(218,242,cs),
(307,218,ls),
(358,204,o),
(392,182,o),
(392,135,cs),
(392,91,o),
(339,58,o),
(275,58,cs),
(197,58,o),
(127,98,o),
(106,143,c),
(33,112,l),
(77,44,o),
(163,-11,o),
(268,-11,cs)
);
}
);
width = 527;
},
{
layerId = "B5FFAA16-DBAD-40DC-8294-46FA18BBC24B";
shapes = (
{
closed = 1;
nodes = (
(375,-12,o),
(467,50,o),
(467,131,cs),
(467,212,o),
(407,251,o),
(334,272,cs),
(238,299,ls),
(167,319,o),
(107,343,o),
(107,407,cs),
(107,465,o),
(170,501,o),
(260,501,cs),
(330,501,o),
(384,462,o),
(403,422,c),
(447,444,l),
(392,513,o),
(339,538,o),
(250,538,cs),
(149,538,o),
(68,482,o),
(68,410,cs),
(68,318,o),
(144,289,o),
(226,265,cs),
(320,237,ls),
(378,220,o),
(422,189,o),
(422,128,cs),
(422,70,o),
(355,25,o),
(274,25,cs),
(190,25,o),
(117,67,o),
(91,123,c),
(48,100,l),
(97,33,o),
(177,-12,o),
(265,-12,c)
);
}
);
width = 535;
}
);
leftKerningGroup = s2;
rightKerningGroup = s;
unicode = 115;
},
{
glyphname = t;
layers = (
{
anchors = (
{
name = bottom;
position = "{258, 0}";
},
{
name = center;
position = "{213, 265}";
},
{
name = topright;
position = "{428, 815}";
}
);
layerId = "8DBE427A-3D94-44F6-909C-34E8B708558F";
shapes = (
{
closed = 1;
nodes = (
(407,531,l),
(291,531,l),
(291,695,l),
(129,695,l),
(99,530,l),
(5,530,l),
(5,395,l),
(92,395,l),
(92,146,ls),
(92,60,o),
(134,-8,o),
(301,-8,cs),
(364,-8,o),
(392,1,o),
(407,8,c),
(407,126,l),
(323,126,ls),
(306,126,o),
(292,131,o),
(292,155,cs),
(291,395,l),
(407,395,l)
);
}
);
width = 437;
},
{
anchors = (
{
name = bottom;
position = "{249, 0}";
},
{
name = center;
position = "{187, 301}";
},
{
name = topright;
position = "{374, 774}";
}
);
layerId = "7F526B41-32D4-4B88-B4BE-8E854E9660E0";
shapes = (
{
closed = 1;
nodes = (
(346,530,l),
(219,530,l),
(219,705,l),
(141,705,l),
(131,530,l),
(29,530,l),
(29,464,l),
(129,464,l),
(129,127,ls),
(129,42,o),
(159,-3,o),
(267,-3,cs),
(297,-3,o),
(336,1,o),
(350,6,c),
(350,63,l),
(271,63,ls),
(239,63,o),
(219,75,o),
(219,134,c),
(219,464,l),
(346,464,l)
);
}
);
width = 397;
},
{
anchors = (
{
name = bottom;
position = "{245, 0}";
},
{
name = center;
position = "{175, 318}";
},
{
name = topright;
position = "{350, 755}";
}
);
layerId = "B5FFAA16-DBAD-40DC-8294-46FA18BBC24B";
shapes = (
{
closed = 1;
nodes = (
(318,530,l),
(186,530,l),
(186,710,l),
(146,710,l),
(146,530,l),
(40,530,l),
(40,495,l),
(146,495,l),
(146,119,ls),
(146,34,o),
(171,0,o),
(251,0,cs),
(266,0,o),
(310,1,o),
(324,5,c),
(324,35,l),
(248,35,ls),
(208,35,o),
(186,50,o),
(186,124,cs),
(186,495,l),
(318,495,l)
);
}
);
width = 379;
}
);
leftKerningGroup = t2;
rightKerningGroup = t;
unicode = 116;
},
{
glyphname = u;
layers = (
{
anchors = (
{
name = bottom;
position = "{314, 0}";
},
{
name = ogonek;
position = "{545, 10}";
},
{
name = top;
position = "{313, 530}";
}
);
layerId = "8DBE427A-3D94-44F6-909C-34E8B708558F";
shapes = (
{
closed = 1;
nodes = (
(297,-10,o),
(374,11,o),
(410,70,c),
(425,0,l),
(572,0,l),
(576,530,l),
(374,530,l),
(374,185,ls),
(374,154,o),
(352,130,o),
(312,130,cs),
(272,130,o),
(250,154,o),
(250,185,cs),
(250,530,l),
(50,530,l),
(50,157,ls),
(50,50,o),
(160,-10,o),
(246,-10,cs)
);
}
);
width = 626;
},
{
anchors = (
{
name = bottom;
position = "{297, 0}";
},
{
name = ogonek;
position = "{502, 11}";
},
{
name = top;
position = "{289, 530}";
}
);
layerId = "7F526B41-32D4-4B88-B4BE-8E854E9660E0";
shapes = (
{
closed = 1;
nodes = (
(318,-10,o),
(375,19,o),
(440,78,c),
(445,1,l),
(516,1,l),
(518,531,l),
(427,531,l),
(427,142,l),
(372,90,o),
(333,61,o),
(271,61,cs),
(199,61,o),
(167,101,o),
(168,165,c),
(168,531,l),
(78,531,l),
(78,145,ls),
(78,51,o),
(150,-8,o),
(250,-9,cs)
);
}
);
width = 605;
},
{
anchors = (
{
name = bottom;
position = "{289, 0}";
},
{
name = ogonek;
position = "{482, 11}";
},
{
name = top;
position = "{278, 530}";
}
);
layerId = "B5FFAA16-DBAD-40DC-8294-46FA18BBC24B";
shapes = (
{
closed = 1;
nodes = (
(328,-10,o),
(375,23,o),
(454,81,c),
(454,1,l),
(491,1,l),
(491,532,l),
(451,532,l),
(451,122,l),
(371,61,o),
(324,30,o),
(253,30,cs),
(166,30,o),
(129,77,o),
(130,156,c),
(130,532,l),
(90,532,l),
(90,139,ls),
(90,52,o),
(145,-7,o),
(252,-9,cs)
);
}
);
width = 596;
}
);
leftKerningGroup = u;
rightKerningGroup = d;
unicode = 117;
},
{
glyphname = v;
layers = (
{
layerId = "8DBE427A-3D94-44F6-909C-34E8B708558F";
shapes = (
{
closed = 1;
nodes = (
(397,530,l),
(297,259,l),
(194,530,l),
(0,530,l),
(216,0,l),
(354,0,l),
(571,530,l)
);
}
);
width = 571;
},
{
layerId = "7F526B41-32D4-4B88-B4BE-8E854E9660E0";
shapes = (
{
closed = 1;
nodes = (
(434,530,l),
(270,115,l),
(104,530,l),
(14,530,l),
(228,0,l),
(302,0,l),
(517,530,l)
);
}
);
width = 530;
},
{
layerId = "B5FFAA16-DBAD-40DC-8294-46FA18BBC24B";
shapes = (
{
closed = 1;
nodes = (
(451,530,l),
(257,49,l),
(63,530,l),
(20,530,l),
(234,0,l),
(278,0,l),
(492,530,l)
);
}
);
width = 512;
}
);
leftKerningGroup = v2;
rightKerningGroup = v;
unicode = 118;
},
{
glyphname = w;
layers = (
{
anchors = (
{
name = top;
position = "{408, 530}";
}
);
layerId = "8DBE427A-3D94-44F6-909C-34E8B708558F";
shapes = (
{
closed = 1;
nodes = (
(641,530,l),
(559,272,l),
(483,530,l),
(345,530,l),
(267,273,l),
(184,530,l),
(0,530,l),
(180,0,l),
(326,0,l),
(410,257,l),
(489,0,l),
(632,0,l),
(818,530,l)
);
}
);
width = 818;
},
{
anchors = (
{
name = top;
position = "{400, 530}";
}
);
layerId = "7F526B41-32D4-4B88-B4BE-8E854E9660E0";
shapes = (
{
closed = 1;
nodes = (
(689,530,l),
(567,117,l),
(436,530,l),
(365,530,l),
(240,116,l),
(112,530,l),
(24,530,l),
(192,0,l),
(277,0,l),
(398,398,l),
(525,0,l),
(608,0,l),
(771,530,l)
);
}
);
width = 795;
},
{
anchors = (
{
name = top;
position = "{397, 530}";
}
);
layerId = "B5FFAA16-DBAD-40DC-8294-46FA18BBC24B";
shapes = (
{
closed = 1;
nodes = (
(711,530,l),
(570,46,l),
(414,530,l),
(374,530,l),
(227,44,l),
(79,530,l),
(35,530,l),
(197,0,l),
(255,0,l),
(393,462,l),
(541,0,l),
(597,0,l),
(750,530,l)
);
}
);
width = 785;
}
);
leftKerningGroup = v2;
rightKerningGroup = v;
unicode = 119;
},
{
glyphname = x;
layers = (
{
guides = (
{
angle = 306.207;
position = "{224, 530}";
},
{
angle = 53.793;
position = "{5, 0}";
}
);
layerId = "8DBE427A-3D94-44F6-909C-34E8B708558F";
shapes = (
{
closed = 1;
nodes = (
(417,277,l),
(603,530,l),
(398,530,l),
(314,415,l),
(229,530,l),
(24,530,l),
(208,277,l),
(5,0,l),
(210,0,l),
(313,141,l),
(415,0,l),
(620,0,l)
);
}
);
width = 625;
},
{
guides = (
{
angle = 306.207;
position = "{224, 530}";
},
{
angle = 53.793;
position = "{5, 0}";
}
);
layerId = "7F526B41-32D4-4B88-B4BE-8E854E9660E0";
shapes = (
{
closed = 1;
nodes = (
(328,276,l),
(516,530,l),
(418,530,l),
(278,341,l),
(137,530,l),
(38,530,l),
(227,276,l),
(22,0,l),
(121,0,l),
(277,211,l),
(434,0,l),
(532,0,l)
);
}
);
width = 554;
},
{
guides = (
{
angle = 233.337;
position = "{80, 0}";
},
{
angle = 126.663;
position = "{442, 0}";
}
);
layerId = "B5FFAA16-DBAD-40DC-8294-46FA18BBC24B";
shapes = (
{
closed = 1;
nodes = (
(287,275,l),
(477,530,l),
(427,530,l),
(261,307,l),
(95,530,l),
(45,530,l),
(235,275,l),
(30,0,l),
(80,0,l),
(261,243,l),
(442,0,l),
(492,0,l)
);
}
);
width = 522;
}
);
unicode = 120;
},
{
glyphname = y;
layers = (
{
anchors = (
{
name = top;
position = "{302, 530}";
}
);
guides = (
{
angle = 70.244;
position = "{440, 494}";
},
{
angle = 109.398;
position = "{129, 472}";
}
);
layerId = "8DBE427A-3D94-44F6-909C-34E8B708558F";
shapes = (
{
closed = 1;
nodes = (
(250,-169,o),
(320,-136,o),
(389,31,cs),
(596,530,l),
(401,530,l),
(297,242,l),
(196,530,l),
(0,530,l),
(206,31,l),
(204,21,l),
(202,14,o),
(197,-32,o),
(94,-24,cs),
(42,-20,l),
(42,-147,l),
(42,-147,o),
(76,-169,o),
(158,-169,cs)
);
}
);
width = 576;
},
{
anchors = (
{
name = top;
position = "{264, 530}";
}
);
guides = (
{
angle = 70.244;
position = "{440, 494}";
},
{
angle = 109.398;
position = "{129, 472}";
}
);
layerId = "7F526B41-32D4-4B88-B4BE-8E854E9660E0";
shapes = (
{
closed = 1;
nodes = (
(190,-169,o),
(246,-142,o),
(285,-43,c),
(509,530,l),
(422,530,l),
(263,115,l),
(105,530,l),
(14,530,l),
(220,12,l),
(201,-40,ls),
(190,-68,o),
(170,-101,o),
(93,-99,cs),
(38,-98,l),
(38,-157,l),
(38,-157,o),
(57,-169,o),
(118,-169,cs)
);
}
);
width = 517;
},
{
anchors = (
{
name = top;
position = "{247, 530}";
}
);
guides = (
{
angle = 68.849;
position = "{340, 294}";
}
);
layerId = "B5FFAA16-DBAD-40DC-8294-46FA18BBC24B";
shapes = (
{
closed = 1;
nodes = (
(163,-169,o),
(212,-144,o),
(238,-77,cs),
(470,530,l),
(431,530,l),
(248,57,l),
(63,530,l),
(20,530,l),
(227,3,l),
(200,-68,l),
(185,-105,o),
(158,-133,o),
(93,-133,cs),
(36,-133,l),
(36,-161,l),
(36,-161,o),
(48,-169,o),
(100,-169,cs)
);
}
);
width = 490;
}
);
leftKerningGroup = v2;
rightKerningGroup = v;
unicode = 121;
},
{
glyphname = z;
layers = (
{
anchors = (
{
name = top;
position = "{274, 530}";
}
);
layerId = "8DBE427A-3D94-44F6-909C-34E8B708558F";
shapes = (
{
closed = 1;
nodes = (
(516,0,l),
(516,124,l),
(265,124,l),
(515,439,l),
(515,530,l),
(37,530,l),
(37,408,l),
(262,408,l),
(15,94,l),
(15,0,l)
);
}
);
width = 531;
},
{
anchors = (
{
name = top;
position = "{263, 530}";
}
);
layerId = "7F526B41-32D4-4B88-B4BE-8E854E9660E0";
shapes = (
{
closed = 1;
nodes = (
(460,0,l),
(460,63,l),
(147,63,l),
(455,473,l),
(455,530,l),
(61,530,l),
(61,468,l),
(347,468,l),
(39,56,l),
(39,0,l)
);
}
);
width = 495;
},
{
anchors = (
{
name = top;
position = "{258, 530}";
}
);
layerId = "B5FFAA16-DBAD-40DC-8294-46FA18BBC24B";
shapes = (
{
closed = 1;
nodes = (
(434,0,l),
(434,35,l),
(94,35,l),
(427,488,l),
(427,530,l),
(72,530,l),
(72,495,l),
(385,495,l),
(50,39,l),
(50,0,l)
);
}
);
width = 479;
}
);
leftKerningGroup = z2;
rightKerningGroup = z;
unicode = 122;
},
{
glyphname = braceleft;
layers = (
{
layerId = "8DBE427A-3D94-44F6-909C-34E8B708558F";
shapes = (
{
closed = 1;
nodes = (
(116,425,ls),
(116,365,o),
(84,341,o),
(0,341,c),
(0,248,l),
(83,248,o),
(116,216,o),
(116,168,cs),
(116,-29,ls),
(116,-124,o),
(217,-165,o),
(299,-165,cs),
(391,-165,l),
(391,-58,l),
(339,-58,ls),
(289,-58,o),
(275,-43,o),
(275,-5,cs),
(275,187,l),
(272,271,o),
(207,287,o),
(161,291,cs),
(152,292,o),
(153,296,o),
(161,297,cs),
(208,303,o),
(272,324,o),
(275,392,c),
(275,582,ls),
(275,608,o),
(275,635,o),
(339,635,cs),
(391,635,l),
(391,742,l),
(296,742,ls),
(217,742,o),
(116,699,o),
(116,606,cs)
);
}
);
width = 416;
},
{
layerId = "7F526B41-32D4-4B88-B4BE-8E854E9660E0";
shapes = (
{
closed = 1;
nodes = (
(119,421,ls),
(119,361,o),
(83,319,o),
(3,318,c),
(3,262,l),
(82,262,o),
(119,212,o),
(119,164,cs),
(119,-59,ls),
(119,-124,o),
(172,-165,o),
(252,-165,cs),
(299,-165,l),
(299,-106,l),
(264,-106,ls),
(214,-106,o),
(199,-90,o),
(199,-52,cs),
(199,170,l),
(198,253,o),
(149,283,o),
(99,287,cs),
(90,288,o),
(91,293,o),
(99,294,cs),
(150,299,o),
(198,334,o),
(199,411,c),
(199,630,ls),
(199,664,o),
(212,683,o),
(263,683,cs),
(299,683,l),
(299,742,l),
(250,742,ls),
(174,742,o),
(119,702,o),
(119,638,cs)
);
}
);
width = 320;
},
{
layerId = "B5FFAA16-DBAD-40DC-8294-46FA18BBC24B";
shapes = (
{
closed = 1;
nodes = (
(121,419,ls),
(121,359,o),
(83,309,o),
(5,308,c),
(5,269,l),
(82,269,o),
(121,210,o),
(121,162,cs),
(121,-73,ls),
(121,-124,o),
(151,-165,o),
(230,-165,cs),
(257,-165,l),
(257,-128,l),
(230,-128,ls),
(180,-128,o),
(165,-111,o),
(165,-73,cs),
(165,162,ls),
(165,245,o),
(122,281,o),
(71,285,cs),
(62,286,o),
(63,291,o),
(71,292,cs),
(123,297,o),
(165,338,o),
(165,419,cs),
(165,652,ls),
(165,689,o),
(183,705,o),
(229,705,cs),
(257,705,l),
(257,742,l),
(229,742,ls),
(155,742,o),
(121,704,o),
(121,652,cs)
);
}
);
width = 277;
}
);
unicode = 123;
},
{
glyphname = bar;
leftMetricsKey = I;
layers = (
{
layerId = "8DBE427A-3D94-44F6-909C-34E8B708558F";
shapes = (
{
closed = 1;
nodes = (
(201,847,l),
(60,847,l),
(60,-165,l),
(201,-165,l)
);
}
);
width = 261;
},
{
layerId = "7F526B41-32D4-4B88-B4BE-8E854E9660E0";
shapes = (
{
closed = 1;
nodes = (
(169,847,l),
(98,847,l),
(99,-165,l),
(169,-165,l)
);
}
);
width = 267;
},
{
layerId = "B5FFAA16-DBAD-40DC-8294-46FA18BBC24B";
shapes = (
{
closed = 1;
nodes = (
(154,847,l),
(115,847,l),
(116,-165,l),
(154,-165,l)
);
}
);
width = 269;
}
);
leftKerningGroup = bar;
unicode = 124;
},
{
glyphname = asciitilde;
layers = (
{
layerId = "8DBE427A-3D94-44F6-909C-34E8B708558F";
shapes = (
{
closed = 1;
nodes = (
(534,483,l),
(507,435,o),
(466,397,o),
(419,397,cs),
(356,397,o),
(317,468,o),
(229,468,cs),
(157,468,o),
(106,421,o),
(45,356,c),
(102,262,l),
(139,305,o),
(174,348,o),
(226,348,cs),
(293,348,o),
(339,276,o),
(423,276,cs),
(481,276,o),
(548,312,o),
(591,391,c)
);
}
);
width = 646;
},
{
layerId = "7F526B41-32D4-4B88-B4BE-8E854E9660E0";
shapes = (
{
closed = 1;
nodes = (
(487,435,l),
(465,407,o),
(436,379,o),
(384,379,cs),
(315,379,o),
(271,432,o),
(194,432,cs),
(133,432,o),
(95,401,o),
(58,364,c),
(84,312,l),
(110,341,o),
(143,369,o),
(196,369,cs),
(265,369,o),
(303,317,o),
(385,317,cs),
(445,317,o),
(490,345,o),
(513,382,c)
);
}
);
width = 575;
},
{
layerId = "B5FFAA16-DBAD-40DC-8294-46FA18BBC24B";
shapes = (
{
closed = 1;
nodes = (
(465,413,l),
(446,394,o),
(422,371,o),
(368,371,cs),
(297,371,o),
(250,416,o),
(178,416,cs),
(122,416,o),
(90,392,o),
(64,368,c),
(76,335,l),
(97,357,o),
(129,379,o),
(182,379,cs),
(252,379,o),
(287,335,o),
(367,335,cs),
(429,335,o),
(464,360,o),
(478,378,c)
);
}
);
width = 542;
}
);
unicode = 126;
},
{
glyphname = exclamdown;
layers = (
{
layerId = "8DBE427A-3D94-44F6-909C-34E8B708558F";
shapes = (
{
closed = 1;
nodes = (
(256,380,l),
(256,577,l),
(46,577,l),
(46,380,l)
);
},
{
closed = 1;
nodes = (
(266,-165,l),
(210,311,l),
(88,311,l),
(35,-165,l)
);
}
);
width = 287;
},
{
layerId = "7F526B41-32D4-4B88-B4BE-8E854E9660E0";
shapes = (
{
closed = 1;
nodes = (
(183,460,l),
(183,577,l),
(72,577,l),
(72,460,l)
);
},
{
closed = 1;
nodes = (
(182,-165,l),
(158,337,l),
(96,337,l),
(72,-165,l)
);
}
);
width = 250;
},
{
guides = (
{
angle = 90;
position = "{183, 0}";
},
{
angle = 90;
position = "{265, 0}";
}
);
layerId = "B5FFAA16-DBAD-40DC-8294-46FA18BBC24B";
shapes = (
{
closed = 1;
nodes = (
(147,498,l),
(147,577,l),
(85,577,l),
(85,498,l)
);
},
{
closed = 1;
nodes = (
(142,-165,l),
(133,349,l),
(99,349,l),
(89,-165,l)
);
}
);
width = 232;
}
);
unicode = 161;
},
{
glyphname = cent;
layers = (
{
layerId = "8DBE427A-3D94-44F6-909C-34E8B708558F";
shapes = (
{
closed = 1;
nodes = (
(369,196,l),
(244,196,l),
(244,0,l),
(369,0,l)
);
},
{
closed = 1;
nodes = (
(369,742,l),
(244,742,l),
(244,546,l),
(369,546,l)
);
},
{
alignment = -1;
pos = (0,111);
ref = c;
}
);
width = 568;
},
{
anchors = (
{
name = bottom;
position = "{282, 111}";
},
{
name = top;
position = "{281, 641}";
}
);
layerId = "7F526B41-32D4-4B88-B4BE-8E854E9660E0";
shapes = (
{
closed = 1;
nodes = (
(325,144,l),
(258,144,l),
(258,0,l),
(325,0,l)
);
},
{
closed = 1;
nodes = (
(325,742,l),
(258,742,l),
(258,598,l),
(325,598,l)
);
},
{
alignment = -1;
pos = (-3,111);
ref = c;
}
);
width = 550;
},
{
layerId = "B5FFAA16-DBAD-40DC-8294-46FA18BBC24B";
shapes = (
{
closed = 1;
nodes = (
(305,121,l),
(264,121,l),
(264,0,l),
(305,0,l)
);
},
{
closed = 1;
nodes = (
(305,742,l),
(264,742,l),
(264,621,l),
(305,621,l)
);
},
{
alignment = -1;
pos = (-4,111);
ref = c;
}
);
width = 542;
}
);
unicode = 162;
},
{
glyphname = sterling;
layers = (
{
layerId = "8DBE427A-3D94-44F6-909C-34E8B708558F";
shapes = (
{
closed = 1;
nodes = (
(12,-10,l),
(209,-10,o),
(347,121,o),
(347,303,cs),
(347,327,o),
(347,335,o),
(346,343,c),
(470,343,l),
(470,446,l),
(334,446,l),
(326,493,o),
(323,517,o),
(323,536,cs),
(323,575,o),
(342,598,o),
(372,598,cs),
(401,598,o),
(415,581,o),
(435,532,c),
(607,582,l),
(559,694,o),
(464,752,o),
(341,752,cs),
(192,752,o),
(89,675,o),
(89,565,cs),
(89,527,o),
(94,475,o),
(96,446,c),
(12,446,l),
(12,343,l),
(118,343,l),
(124,289,o),
(127,268,o),
(127,248,cs),
(127,163,o),
(71,163,o),
(12,163,c)
);
},
{
closed = 1;
nodes = (
(520,-10,o),
(609,47,o),
(648,211,c),
(481,244,l),
(456,171,o),
(434,154,o),
(360,154,cs),
(333,154,o),
(269,179,o),
(243,193,c),
(138,102,l),
(202,30,o),
(278,-10,o),
(360,-10,cs)
);
}
);
width = 674;
},
{
layerId = "7F526B41-32D4-4B88-B4BE-8E854E9660E0";
shapes = (
{
closed = 1;
nodes = (
(12,-10,l),
(156,-10,o),
(243,87,o),
(243,245,cs),
(243,282,o),
(240,316,o),
(233,354,c),
(392,354,l),
(392,412,l),
(225,412,l),
(210,463,o),
(201,518,o),
(201,557,cs),
(201,631,o),
(255,674,o),
(325,674,cs),
(385,674,o),
(418,650,o),
(441,604,c),
(520,632,l),
(492,700,o),
(410,752,o),
(314,752,cs),
(193,752,o),
(99,675,o),
(99,554,cs),
(99,506,o),
(112,455,o),
(121,412,c),
(29,412,l),
(29,353,l),
(132,353,l),
(141,293,o),
(144,256,o),
(144,225,cs),
(144,125,o),
(114,71,o),
(12,71,c)
);
},
{
closed = 1;
nodes = (
(456,-10,o),
(531,19,o),
(572,142,c),
(495,162,l),
(464,78,o),
(417,69,o),
(337,69,cs),
(292,69,o),
(233,97,o),
(189,133,c),
(143,80,l),
(200,28,o),
(275,-10,o),
(337,-10,cs)
);
}
);
width = 621;
},
{
layerId = "B5FFAA16-DBAD-40DC-8294-46FA18BBC24B";
shapes = (
{
closed = 1;
nodes = (
(12,-10,l),
(132,-10,o),
(196,72,o),
(196,219,cs),
(196,261,o),
(191,307,o),
(181,359,c),
(356,359,l),
(356,397,l),
(175,397,l),
(157,449,o),
(145,518,o),
(145,567,cs),
(145,657,o),
(216,709,o),
(304,709,cs),
(377,709,o),
(419,682,o),
(443,636,c),
(481,655,l),
(462,703,o),
(386,752,o),
(302,752,cs),
(194,752,o),
(103,675,o),
(103,549,cs),
(103,496,o),
(120,446,o),
(133,396,c),
(36,396,l),
(36,358,l),
(138,358,l),
(149,295,o),
(152,251,o),
(152,214,cs),
(152,108,o),
(133,29,o),
(12,29,c)
);
},
{
closed = 1;
nodes = (
(427,-10,o),
(496,6,o),
(538,110,c),
(502,125,l),
(467,36,o),
(409,30,o),
(327,30,cs),
(273,30,o),
(216,59,o),
(165,105,c),
(145,70,l),
(199,27,o),
(273,-10,o),
(327,-10,cs)
);
}
);
width = 597;
}
);
unicode = 163;
},
{
glyphname = currency;
layers = (
{
layerId = "8DBE427A-3D94-44F6-909C-34E8B708558F";
shapes = (
{
closed = 1;
nodes = (
(349,126,o),
(392,141,o),
(432,165,c),
(496,101,l),
(573,180,l),
(511,242,ls),
(510,243,o),
(510,245,o),
(511,247,cs),
(536,283,o),
(547,329,o),
(547,373,cs),
(547,421,o),
(534,463,o),
(509,503,c),
(573,566,l),
(496,646,l),
(437,587,ls),
(434,584,o),
(430,584,o),
(426,586,cs),
(387,608,o),
(343,620,o),
(298,620,cs),
(254,620,o),
(208,605,o),
(169,582,c),
(95,656,l),
(17,575,l),
(82,510,ls),
(88,504,o),
(88,500,o),
(84,492,cs),
(63,455,o),
(53,417,o),
(53,372,cs),
(53,321,o),
(66,285,o),
(90,244,c),
(17,171,l),
(95,91,l),
(161,157,ls),
(165,161,o),
(171,163,o),
(179,159,cs),
(216,137,o),
(259,126,o),
(303,126,cs)
);
},
{
closed = 1;
nodes = (
(230,250,o),
(177,308,o),
(177,373,cs),
(177,438,o),
(230,496,o),
(300,496,cs),
(370,496,o),
(423,438,o),
(423,373,cs),
(423,308,o),
(370,250,o),
(300,250,cs)
);
}
);
width = 610;
},
{
layerId = "7F526B41-32D4-4B88-B4BE-8E854E9660E0";
shapes = (
{
closed = 1;
nodes = (
(311,180,o),
(349,194,o),
(383,217,c),
(442,158,l),
(486,203,l),
(431,257,ls),
(427,261,o),
(428,264,o),
(430,268,c),
(451,297,o),
(462,335,o),
(462,373,cs),
(462,414,o),
(448,452,o),
(426,484,c),
(486,544,l),
(442,590,l),
(387,535,ls),
(383,531,o),
(379,531,o),
(374,534,cs),
(344,554,o),
(307,566,o),
(268,566,cs),
(229,566,o),
(189,552,o),
(157,530,c),
(96,591,l),
(52,546,l),
(106,491,l),
(110,488,o),
(111,484,o),
(107,478,cs),
(88,447,o),
(76,412,o),
(76,373,cs),
(76,330,o),
(89,294,o),
(111,261,c),
(51,201,l),
(95,154,l),
(150,210,ls),
(154,215,o),
(159,215,o),
(164,211,cs),
(195,191,o),
(232,180,o),
(270,180,cs)
);
},
{
closed = 1;
nodes = (
(200,249,o),
(146,307,o),
(146,373,cs),
(146,439,o),
(200,497,o),
(270,497,cs),
(341,497,o),
(395,439,o),
(395,373,cs),
(395,307,o),
(341,249,o),
(270,249,cs)
);
}
);
width = 543;
},
{
layerId = "B5FFAA16-DBAD-40DC-8294-46FA18BBC24B";
shapes = (
{
closed = 1;
nodes = (
(294,204,o),
(330,218,o),
(360,241,c),
(418,184,l),
(447,213,l),
(394,264,ls),
(389,269,o),
(390,273,o),
(393,278,cs),
(412,304,o),
(423,337,o),
(423,373,cs),
(423,411,o),
(409,447,o),
(388,476,c),
(446,534,l),
(417,564,l),
(364,511,ls),
(360,507,o),
(356,507,o),
(351,510,cs),
(324,530,o),
(290,541,o),
(255,541,cs),
(217,541,o),
(180,528,o),
(152,506,c),
(97,562,l),
(68,533,l),
(117,483,ls),
(120,480,o),
(121,476,o),
(118,471,cs),
(99,444,o),
(87,410,o),
(87,373,cs),
(87,334,o),
(99,298,o),
(121,268,c),
(67,214,l),
(95,183,l),
(145,234,ls),
(149,239,o),
(153,238,o),
(157,235,cs),
(185,215,o),
(219,204,o),
(255,204,cs)
);
},
{
closed = 1;
nodes = (
(186,248,o),
(132,307,o),
(132,373,cs),
(132,439,o),
(186,498,o),
(257,498,cs),
(328,498,o),
(382,439,o),
(382,373,cs),
(382,307,o),
(328,248,o),
(257,248,cs)
);
}
);
width = 513;
}
);
unicode = 164;
},
{
glyphname = yen;
layers = (
{
anchors = (
{
name = top;
position = "{376, 742}";
}
);
guides = (
{
angle = 58.823;
position = "{496, 742}";
}
);
layerId = "8DBE427A-3D94-44F6-909C-34E8B708558F";
shapes = (
{
closed = 1;
nodes = (
(89,366,l),
(89,265,l),
(616,265,l),
(616,366,l)
);
},
{
closed = 1;
nodes = (
(89,196,l),
(89,95,l),
(616,95,l),
(616,196,l)
);
},
{
closed = 1;
nodes = (
(496,742,l),
(350,478,l),
(203,742,l),
(-12,742,l),
(250,309,l),
(250,0,l),
(450,0,l),
(450,309,l),
(713,742,l)
);
}
);
width = 700;
},
{
anchors = (
{
name = top;
position = "{313, 742}";
}
);
guides = (
{
angle = 58.823;
position = "{496, 742}";
}
);
layerId = "7F526B41-32D4-4B88-B4BE-8E854E9660E0";
shapes = (
{
closed = 1;
nodes = (
(103,345,l),
(103,288,l),
(519,288,l),
(519,346,l)
);
},
{
closed = 1;
nodes = (
(103,196,l),
(103,138,l),
(519,139,l),
(519,197,l)
);
},
{
closed = 1;
nodes = (
(510,742,l),
(309,393,l),
(107,742,l),
(11,742,l),
(264,317,l),
(264,0,l),
(354,0,l),
(354,316,l),
(604,742,l)
);
}
);
width = 616;
},
{
anchors = (
{
name = top;
position = "{285, 742}";
}
);
guides = (
{
angle = 239.891;
position = "{310, 319}";
},
{
angle = 300.44;
position = "{163, 503}";
}
);
layerId = "B5FFAA16-DBAD-40DC-8294-46FA18BBC24B";
shapes = (
{
closed = 1;
nodes = (
(109,336,l),
(109,298,l),
(475,299,l),
(475,337,l)
);
},
{
closed = 1;
nodes = (
(109,196,l),
(109,158,l),
(475,159,l),
(475,197,l)
);
},
{
closed = 1;
nodes = (
(516,742,l),
(291,354,l),
(63,742,l),
(22,742,l),
(270,320,l),
(270,0,l),
(310,0,l),
(310,319,l),
(555,742,l)
);
}
);
width = 578;
}
);
leftKerningGroup = B;
rightKerningGroup = H;
unicode = 165;
},
{
glyphname = brokenbar;
leftMetricsKey = I;
layers = (
{
layerId = "8DBE427A-3D94-44F6-909C-34E8B708558F";
shapes = (
{
closed = 1;
nodes = (
(201,847,l),
(60,847,l),
(60,423,l),
(201,423,l)
);
},
{
closed = 1;
nodes = (
(201,259,l),
(60,259,l),
(60,-165,l),
(201,-165,l)
);
}
);
width = 261;
},
{
layerId = "7F526B41-32D4-4B88-B4BE-8E854E9660E0";
shapes = (
{
closed = 1;
nodes = (
(169,847,l),
(98,847,l),
(99,437,l),
(169,437,l)
);
},
{
closed = 1;
nodes = (
(169,245,l),
(98,245,l),
(99,-165,l),
(169,-165,l)
);
}
);
width = 267;
},
{
layerId = "B5FFAA16-DBAD-40DC-8294-46FA18BBC24B";
shapes = (
{
closed = 1;
nodes = (
(154,847,l),
(115,847,l),
(116,443,l),
(154,443,l)
);
},
{
closed = 1;
nodes = (
(154,239,l),
(115,239,l),
(116,-165,l),
(154,-165,l)
);
}
);
width = 269;
}
);
leftKerningGroup = bar;
unicode = 166;
},
{
glyphname = section;
layers = (
{
layerId = "8DBE427A-3D94-44F6-909C-34E8B708558F";
shapes = (
{
closed = 1;
nodes = (
(420,-85,o),
(501,-10,o),
(501,97,cs),
(501,154,o),
(478,192,o),
(416,227,c),
(464,257,o),
(491,301,o),
(491,362,cs),
(491,449,o),
(438,493,o),
(317,538,cs),
(242,566,ls),
(230,570,o),
(204,580,o),
(204,600,cs),
(204,623,o),
(224,637,o),
(255,637,cs),
(304,637,o),
(335,604,o),
(362,575,c),
(481,632,l),
(452,693,o),
(366,752,o),
(250,752,cs),
(112,752,o),
(30,677,o),
(30,580,cs),
(30,532,o),
(50,494,o),
(101,460,c),
(49,434,o),
(20,388,o),
(20,325,cs),
(20,238,o),
(73,194,o),
(194,149,cs),
(264,123,ls),
(313,105,o),
(327,90,o),
(327,70,cs),
(327,42,o),
(298,30,o),
(255,30,cs),
(186,30,o),
(155,63,o),
(129,92,c),
(10,35,l),
(39,-26,o),
(126,-85,o),
(260,-85,cs)
);
},
{
closed = 1;
nodes = (
(247,299,ls),
(189,321,o),
(177,331,o),
(177,355,cs),
(177,378,o),
(189,399,o),
(227,402,c),
(264,388,ls),
(309,371,o),
(329,355,o),
(333,335,cs),
(339,305,o),
(322,279,o),
(289,283,c)
);
}
);
width = 527;
},
{
layerId = "7F526B41-32D4-4B88-B4BE-8E854E9660E0";
shapes = (
{
closed = 1;
nodes = (
(377,-73,o),
(454,-11,o),
(454,74,cs),
(454,131,o),
(420,170,o),
(358,205,c),
(408,230,o),
(450,268,o),
(450,336,cs),
(450,407,o),
(408,457,o),
(301,500,cs),
(215,534,ls),
(154,559,o),
(134,587,o),
(134,617,cs),
(134,660,o),
(175,689,o),
(245,689,cs),
(303,689,o),
(345,656,o),
(377,616,c),
(437,648,l),
(404,703,o),
(332,752,o),
(240,752,cs),
(124,752,o),
(49,690,o),
(49,610,cs),
(49,562,o),
(68,519,o),
(148,477,c),
(89,454,o),
(46,407,o),
(46,344,cs),
(46,278,o),
(85,231,o),
(179,195,cs),
(268,161,ls),
(347,130,o),
(369,100,o),
(369,66,cs),
(369,17,o),
(320,-10,o),
(254,-10,cs),
(179,-10,o),
(125,28,o),
(93,78,c),
(33,45,l),
(69,-24,o),
(154,-73,o),
(253,-73,cs)
);
},
{
closed = 1;
nodes = (
(215,267,ls),
(142,297,o),
(125,319,o),
(125,356,cs),
(125,398,o),
(169,439,o),
(226,444,c),
(282,422,ls),
(352,394,o),
(369,365,o),
(370,323,cs),
(372,277,o),
(328,236,o),
(277,241,c)
);
}
);
width = 493;
},
{
layerId = "B5FFAA16-DBAD-40DC-8294-46FA18BBC24B";
shapes = (
{
closed = 1;
nodes = (
(357,-68,o),
(432,-11,o),
(432,64,cs),
(432,120,o),
(394,160,o),
(332,195,c),
(383,218,o),
(432,253,o),
(432,324,cs),
(432,388,o),
(394,441,o),
(293,483,cs),
(203,520,ls),
(120,554,o),
(102,590,o),
(102,625,cs),
(102,677,o),
(153,712,o),
(241,712,cs),
(302,712,o),
(350,679,o),
(384,634,c),
(417,655,l),
(382,707,o),
(317,752,o),
(236,752,cs),
(130,752,o),
(58,696,o),
(58,623,cs),
(58,575,o),
(76,531,o),
(169,485,c),
(107,463,o),
(58,416,o),
(58,353,cs),
(58,296,o),
(90,248,o),
(172,216,cs),
(270,178,ls),
(362,142,o),
(388,105,o),
(388,64,cs),
(388,5,o),
(330,-28,o),
(253,-28,cs),
(176,-28,o),
(111,12,o),
(77,71,c),
(44,50,l),
(82,-23,o),
(167,-68,o),
(250,-68,cs)
);
},
{
closed = 1;
nodes = (
(201,252,ls),
(120,286,o),
(102,313,o),
(102,356,cs),
(102,407,o),
(160,457,o),
(225,463,c),
(290,437,ls),
(371,404,o),
(387,369,o),
(387,318,cs),
(387,264,o),
(331,217,o),
(272,222,c)
);
}
);
width = 477;
}
);
unicode = 167;
},
{
glyphname = copyright;
layers = (
{
layerId = "8DBE427A-3D94-44F6-909C-34E8B708558F";
shapes = (
{
closed = 1;
nodes = (
(625,-10,o),
(796,159,o),
(796,371,cs),
(796,581,o),
(625,752,o),
(415,752,cs),
(204,752,o),
(34,581,o),
(34,371,cs),
(34,159,o),
(204,-10,o),
(415,-10,cs)
);
},
{
closed = 1;
nodes = (
(249,91,o),
(146,200,o),
(146,371,cs),
(146,540,o),
(249,652,o),
(415,652,cs),
(578,652,o),
(684,540,o),
(684,371,cs),
(684,200,o),
(578,91,o),
(415,91,cs)
);
},
{
closed = 1;
nodes = (
(297,584,o),
(206,501,o),
(206,374,cs),
(206,247,o),
(297,161,o),
(418,161,cs),
(530,161,o),
(593,243,o),
(605,311,c),
(471,318,l),
(468,294,o),
(460,258,o),
(422,258,cs),
(385,258,o),
(361,291,o),
(361,373,cs),
(361,455,o),
(385,487,o),
(422,487,cs),
(460,487,o),
(468,451,o),
(471,427,c),
(605,434,l),
(593,502,o),
(530,584,o),
(418,584,cs)
);
}
);
width = 840;
},
{
layerId = "7F526B41-32D4-4B88-B4BE-8E854E9660E0";
shapes = (
{
closed = 1;
nodes = (
(625,-10,o),
(796,159,o),
(796,371,cs),
(796,581,o),
(625,752,o),
(415,752,cs),
(204,752,o),
(34,581,o),
(34,371,cs),
(34,159,o),
(204,-10,o),
(415,-10,cs)
);
},
{
closed = 1;
nodes = (
(239,52,o),
(100,177,o),
(100,371,cs),
(100,563,o),
(239,691,o),
(415,691,cs),
(588,691,o),
(730,563,o),
(730,371,cs),
(730,177,o),
(588,52,o),
(415,52,cs)
);
},
{
closed = 1;
nodes = (
(304,588,o),
(222,502,o),
(222,375,cs),
(222,248,o),
(304,160,o),
(417,160,cs),
(502,160,o),
(555,213,o),
(586,273,c),
(519,289,l),
(496,246,o),
(465,217,o),
(421,217,cs),
(350,217,o),
(301,277,o),
(301,374,cs),
(301,472,o),
(350,531,o),
(421,531,cs),
(465,531,o),
(496,502,o),
(519,459,c),
(586,475,l),
(555,534,o),
(502,588,o),
(417,588,cs)
);
}
);
width = 833;
},
{
layerId = "B5FFAA16-DBAD-40DC-8294-46FA18BBC24B";
shapes = (
{
closed = 1;
nodes = (
(625,-10,o),
(796,159,o),
(796,371,cs),
(796,581,o),
(625,752,o),
(415,752,cs),
(204,752,o),
(34,581,o),
(34,371,cs),
(34,159,o),
(204,-10,o),
(415,-10,cs)
);
},
{
closed = 1;
nodes = (
(234,34,o),
(79,166,o),
(79,371,cs),
(79,573,o),
(234,709,o),
(415,709,cs),
(592,709,o),
(751,573,o),
(751,371,cs),
(751,166,o),
(592,34,o),
(415,34,cs)
);
},
{
closed = 1;
nodes = (
(307,590,o),
(229,503,o),
(229,376,cs),
(229,249,o),
(307,159,o),
(417,159,cs),
(489,159,o),
(538,200,o),
(577,255,c),
(541,276,l),
(508,224,o),
(467,198,o),
(421,198,cs),
(334,198,o),
(273,271,o),
(273,375,cs),
(273,479,o),
(334,551,o),
(421,551,cs),
(467,551,o),
(508,525,o),
(541,473,c),
(577,494,l),
(538,549,o),
(489,590,o),
(417,590,cs)
);
}
);
width = 830;
}
);
unicode = 169;
},
{
glyphname = ordfeminine;
layers = (
{
hints = (
{
horizontal = 1;
place = (470,81);
type = Stem;
},
{
horizontal = 1;
place = (630,71);
type = Stem;
},
{
horizontal = 1;
place = (751,86);
type = Stem;
},
{
place = (24,144);
type = Stem;
},
{
place = (263,136);
type = Stem;
}
);
layerId = "8DBE427A-3D94-44F6-909C-34E8B708558F";
shapes = (
{
closed = 1;
nodes = (
(407,392,l),
(400,411,o),
(399,420,o),
(399,437,cs),
(399,644,ls),
(399,715,o),
(344,752,o),
(234,752,cs),
(130,752,o),
(70,721,o),
(42,653,c),
(163,631,l),
(171,657,o),
(185,666,o),
(218,666,cs),
(249,666,o),
(263,654,o),
(263,634,cs),
(263,616,l),
(105,613,o),
(24,568,o),
(24,484,cs),
(24,428,o),
(78,385,o),
(147,385,cs),
(186,385,o),
(236,405,o),
(270,436,c),
(270,436,ls),
(270,424,o),
(271,409,o),
(273,392,c)
);
},
{
closed = 1;
nodes = (
(183,466,o),
(168,477,o),
(168,497,cs),
(168,527,o),
(199,543,o),
(263,545,c),
(263,483,l),
(244,472,o),
(225,466,o),
(208,466,cs)
);
}
);
width = 431;
},
{
hints = (
{
place = (38,68);
type = Stem;
},
{
place = (284,65);
type = Stem;
}
);
layerId = "7F526B41-32D4-4B88-B4BE-8E854E9660E0";
shapes = (
{
closed = 1;
nodes = (
(358,390,l),
(349,408,o),
(349,418,o),
(349,435,cs),
(349,637,ls),
(349,708,o),
(298,750,o),
(211,750,cs),
(134,750,o),
(81,718,o),
(55,665,c),
(109,648,l),
(131,687,o),
(159,705,o),
(206,705,cs),
(255,705,o),
(284,679,o),
(284,636,cs),
(284,619,l),
(163,595,o),
(38,567,o),
(38,478,cs),
(38,424,o),
(89,383,o),
(153,383,cs),
(202,383,o),
(236,401,o),
(286,449,c),
(286,435,ls),
(286,419,o),
(286,410,o),
(294,390,c)
);
},
{
closed = 1;
nodes = (
(134,428,o),
(106,450,o),
(106,480,cs),
(106,539,o),
(192,555,o),
(284,576,c),
(284,491,l),
(250,458,o),
(216,428,o),
(172,428,cs)
);
}
);
width = 396;
},
{
hints = (
{
horizontal = 1;
place = (472,29);
type = Stem;
},
{
horizontal = 1;
place = (680,30);
type = Stem;
},
{
horizontal = 1;
place = (745,21);
target = up;
type = BottomGhost;
},
{
horizontal = 1;
place = (812,27);
type = Stem;
},
{
place = (45,33);
type = Stem;
},
{
place = (293,33);
type = Stem;
}
);
layerId = "B5FFAA16-DBAD-40DC-8294-46FA18BBC24B";
shapes = (
{
closed = 1;
nodes = (
(335,389,l),
(326,407,o),
(326,417,o),
(326,434,cs),
(326,634,ls),
(326,705,o),
(277,749,o),
(201,749,cs),
(136,749,o),
(87,717,o),
(61,670,c),
(84,655,l),
(113,700,o),
(147,722,o),
(201,722,cs),
(257,722,o),
(293,690,o),
(293,637,cs),
(293,620,l),
(190,587,o),
(45,567,o),
(45,475,cs),
(45,422,o),
(95,382,o),
(156,382,cs),
(209,382,o),
(236,399,o),
(293,455,c),
(293,435,ls),
(293,417,o),
(293,410,o),
(303,389,c)
);
},
{
closed = 1;
nodes = (
(112,411,o),
(78,438,o),
(78,472,cs),
(78,544,o),
(188,560,o),
(293,590,c),
(293,485,l),
(252,441,o),
(212,411,o),
(155,411,cs)
);
}
);
width = 380;
}
);
unicode = 170;
},
{
glyphname = guillemetleft;
layers = (
{
layerId = "8DBE427A-3D94-44F6-909C-34E8B708558F";
shapes = (
{
closed = 1;
nodes = (
(466,463,l),
(362,463,l),
(253,257,l),
(363,60,l),
(466,60,l),
(400,257,l)
);
},
{
closed = 1;
nodes = (
(258,463,l),
(154,463,l),
(45,257,l),
(155,60,l),
(258,60,l),
(192,257,l)
);
}
);
width = 523;
},
{
layerId = "7F526B41-32D4-4B88-B4BE-8E854E9660E0";
shapes = (
{
closed = 1;
nodes = (
(403,451,l),
(352,451,l),
(216,257,l),
(351,72,l),
(402,72,l),
(298,257,l)
);
},
{
closed = 1;
nodes = (
(224,451,l),
(172,451,l),
(36,257,l),
(172,72,l),
(222,72,l),
(118,257,l)
);
}
);
width = 453;
},
{
layerId = "B5FFAA16-DBAD-40DC-8294-46FA18BBC24B";
shapes = (
{
closed = 1;
nodes = (
(375,445,l),
(347,445,l),
(199,257,l),
(346,78,l),
(373,78,l),
(252,257,l)
);
},
{
closed = 1;
nodes = (
(208,445,l),
(180,445,l),
(32,257,l),
(179,78,l),
(206,78,l),
(85,257,l)
);
}
);
width = 421;
}
);
unicode = 171;
},
{
glyphname = logicalnot;
layers = (
{
layerId = "8DBE427A-3D94-44F6-909C-34E8B708558F";
shapes = (
{
closed = 1;
nodes = (
(40,444,l),
(40,303,l),
(562,303,l),
(562,444,l)
);
},
{
closed = 1;
nodes = (
(402,393,l),
(402,141,l),
(562,141,l),
(562,393,l)
);
}
);
width = 610;
},
{
layerId = "7F526B41-32D4-4B88-B4BE-8E854E9660E0";
shapes = (
{
closed = 1;
nodes = (
(61,408,l),
(61,337,l),
(499,338,l),
(499,408,l)
);
},
{
closed = 1;
nodes = (
(423,388,l),
(424,191,l),
(499,191,l),
(499,388,l)
);
}
);
width = 563;
},
{
layerId = "B5FFAA16-DBAD-40DC-8294-46FA18BBC24B";
shapes = (
{
closed = 1;
nodes = (
(70,391,l),
(70,353,l),
(471,354,l),
(471,392,l)
);
},
{
closed = 1;
nodes = (
(433,385,l),
(434,214,l),
(471,214,l),
(471,385,l)
);
}
);
width = 541;
}
);
unicode = 172;
},
{
glyphname = registered;
layers = (
{
layerId = "8DBE427A-3D94-44F6-909C-34E8B708558F";
shapes = (
{
closed = 1;
nodes = (
(404,275,o),
(511,381,o),
(511,513,cs),
(511,645,o),
(404,752,o),
(273,752,cs),
(140,752,o),
(34,645,o),
(34,513,cs),
(34,381,o),
(140,275,o),
(273,275,cs)
);
},
{
closed = 1;
nodes = (
(174,346,o),
(112,411,o),
(112,513,cs),
(112,614,o),
(174,681,o),
(273,681,cs),
(370,681,o),
(433,614,o),
(433,513,cs),
(433,411,o),
(370,346,o),
(273,346,cs)
);
},
{
closed = 1;
nodes = (
(244,394,l),
(244,492,l),
(274,492,l),
(307,394,l),
(386,394,l),
(339,501,l),
(365,512,o),
(385,534,o),
(385,564,cs),
(385,606,o),
(348,630,o),
(287,630,cs),
(172,630,l),
(172,394,l)
);
},
{
closed = 1;
nodes = (
(244,583,l),
(283,583,ls),
(297,583,o),
(310,575,o),
(310,561,cs),
(310,549,o),
(301,539,o),
(286,539,cs),
(244,539,l)
);
}
);
width = 555;
},
{
layerId = "7F526B41-32D4-4B88-B4BE-8E854E9660E0";
shapes = (
{
closed = 1;
nodes = (
(404,275,o),
(511,381,o),
(511,513,cs),
(511,645,o),
(404,752,o),
(273,752,cs),
(140,752,o),
(34,645,o),
(34,513,cs),
(34,381,o),
(140,275,o),
(273,275,cs)
);
},
{
closed = 1;
nodes = (
(160,321,o),
(83,396,o),
(83,513,cs),
(83,629,o),
(160,706,o),
(273,706,cs),
(384,706,o),
(462,629,o),
(462,513,cs),
(462,396,o),
(384,321,o),
(273,321,cs)
);
},
{
closed = 1;
nodes = (
(224,393,l),
(224,502,l),
(279,502,l),
(319,393,l),
(365,393,l),
(320,507,l),
(344,515,o),
(369,533,o),
(369,570,cs),
(369,609,o),
(339,630,o),
(288,630,cs),
(182,630,l),
(182,393,l)
);
},
{
closed = 1;
nodes = (
(224,596,l),
(280,596,ls),
(314,596,o),
(324,583,o),
(324,566,cs),
(324,544,o),
(306,536,o),
(283,536,cs),
(224,536,l)
);
}
);
width = 548;
},
{
layerId = "B5FFAA16-DBAD-40DC-8294-46FA18BBC24B";
shapes = (
{
closed = 1;
nodes = (
(404,275,o),
(511,381,o),
(511,513,cs),
(511,645,o),
(404,752,o),
(273,752,cs),
(140,752,o),
(34,645,o),
(34,513,cs),
(34,381,o),
(140,275,o),
(273,275,cs)
);
},
{
closed = 1;
nodes = (
(153,310,o),
(70,389,o),
(70,513,cs),
(70,636,o),
(153,717,o),
(273,717,cs),
(391,717,o),
(475,636,o),
(475,513,cs),
(475,389,o),
(391,310,o),
(273,310,cs)
);
},
{
closed = 1;
nodes = (
(215,393,l),
(215,507,l),
(281,507,l),
(324,393,l),
(356,393,l),
(311,509,l),
(334,517,o),
(362,532,o),
(362,572,cs),
(362,610,o),
(335,630,o),
(288,630,cs),
(186,630,l),
(186,393,l)
);
},
{
closed = 1;
nodes = (
(215,602,l),
(278,602,ls),
(322,602,o),
(331,586,o),
(331,568,cs),
(331,542,o),
(308,535,o),
(281,535,cs),
(215,535,l)
);
}
);
width = 545;
}
);
unicode = 174;
},
{
glyphname = degree;
layers = (
{
layerId = "8DBE427A-3D94-44F6-909C-34E8B708558F";
shapes = (
{
closed = 1;
nodes = (
(414,781,o),
(336,857,o),
(232,857,cs),
(127,857,o),
(50,781,o),
(50,675,cs),
(50,568,o),
(127,493,o),
(232,493,cs),
(336,493,o),
(414,568,o),
(414,675,cs)
);
},
{
closed = 1;
nodes = (
(302,630,o),
(274,599,o),
(231,599,cs),
(187,599,o),
(160,630,o),
(159,674,cs),
(158,717,o),
(187,748,o),
(230,748,cs),
(274,748,o),
(302,717,o),
(302,674,cs)
);
}
);
width = 474;
},
{
layerId = "7F526B41-32D4-4B88-B4BE-8E854E9660E0";
shapes = (
{
closed = 1;
nodes = (
(392,791,o),
(324,858,o),
(232,858,cs),
(139,858,o),
(72,791,o),
(72,698,cs),
(72,604,o),
(139,538,o),
(232,538,cs),
(324,538,o),
(392,604,o),
(392,698,cs)
);
},
{
closed = 1;
nodes = (
(327,637,o),
(290,596,o),
(231,596,cs),
(171,596,o),
(135,637,o),
(134,697,cs),
(133,756,o),
(171,797,o),
(230,797,cs),
(290,797,o),
(327,756,o),
(327,697,cs)
);
}
);
width = 467;
},
{
layerId = "B5FFAA16-DBAD-40DC-8294-46FA18BBC24B";
shapes = (
{
closed = 1;
nodes = (
(382,796,o),
(318,858,o),
(232,858,cs),
(145,858,o),
(82,796,o),
(82,708,cs),
(82,620,o),
(145,558,o),
(232,558,cs),
(318,558,o),
(382,620,o),
(382,708,cs)
);
},
{
closed = 1;
nodes = (
(339,640,o),
(297,594,o),
(231,594,cs),
(164,594,o),
(123,640,o),
(122,707,cs),
(121,773,o),
(164,819,o),
(230,819,cs),
(297,819,o),
(339,773,o),
(339,707,cs)
);
}
);
width = 464;
}
);
unicode = 176;
},
{
glyphname = plusminus;
layers = (
{
layerId = "8DBE427A-3D94-44F6-909C-34E8B708558F";
shapes = (
{
closed = 1;
nodes = (
(40,156,l),
(40,15,l),
(562,15,l),
(562,156,l)
);
},
{
closed = 1;
nodes = (
(40,539,l),
(40,398,l),
(562,398,l),
(562,539,l)
);
},
{
closed = 1;
nodes = (
(372,730,l),
(231,730,l),
(231,208,l),
(372,208,l)
);
}
);
width = 610;
},
{
layerId = "7F526B41-32D4-4B88-B4BE-8E854E9660E0";
shapes = (
{
closed = 1;
nodes = (
(61,132,l),
(61,62,l),
(499,62,l),
(499,133,l)
);
},
{
closed = 1;
nodes = (
(61,485,l),
(61,415,l),
(499,416,l),
(499,486,l)
);
},
{
closed = 1;
nodes = (
(315,670,l),
(245,670,l),
(245,231,l),
(315,231,l)
);
}
);
width = 563;
},
{
layerId = "B5FFAA16-DBAD-40DC-8294-46FA18BBC24B";
shapes = (
{
closed = 1;
nodes = (
(70,121,l),
(70,83,l),
(471,84,l),
(471,122,l)
);
},
{
closed = 1;
nodes = (
(70,461,l),
(70,423,l),
(471,424,l),
(471,462,l)
);
},
{
closed = 1;
nodes = (
(289,643,l),
(251,643,l),
(252,242,l),
(289,242,l)
);
}
);
width = 541;
}
);
unicode = 177;
},
{
glyphname = micro;
layers = (
{
layerId = "8DBE427A-3D94-44F6-909C-34E8B708558F";
shapes = (
{
closed = 1;
nodes = (
(251,-169,l),
(251,35,l),
(275,31,o),
(301,33,o),
(322,40,cs),
(334,44,o),
(346,50,o),
(356,58,cs),
(366,65,o),
(375,74,o),
(381,84,c),
(381,0,l),
(582,0,l),
(586,544,l),
(378,544,l),
(378,235,l),
(376,201,o),
(352,180,o),
(317,180,cs),
(297,180,o),
(281,186,o),
(270,195,cs),
(258,205,o),
(251,218,o),
(251,235,cs),
(251,544,l),
(46,544,l),
(46,-169,l)
);
}
);
width = 637;
},
{
layerId = "7F526B41-32D4-4B88-B4BE-8E854E9660E0";
shapes = (
{
closed = 1;
nodes = (
(163,-169,l),
(163,37,l),
(195,11,o),
(232,3,o),
(275,6,cs),
(300,7,o),
(324,13,o),
(348,26,cs),
(373,39,o),
(398,58,o),
(429,84,c),
(429,0,l),
(519,0,l),
(520,544,l),
(426,544,l),
(426,168,l),
(380,112,o),
(328,76,o),
(272,76,cs),
(241,76,o),
(214,87,o),
(195,104,cs),
(176,121,o),
(163,144,o),
(163,170,cs),
(163,544,l),
(71,544,l),
(71,-169,l)
);
}
);
width = 599;
},
{
layerId = "B5FFAA16-DBAD-40DC-8294-46FA18BBC24B";
shapes = (
{
closed = 1;
nodes = (
(123,-169,l),
(123,38,l),
(159,2,o),
(200,-10,o),
(253,-10,cs),
(285,-10,o),
(314,-4,o),
(345,12,cs),
(376,27,o),
(409,50,o),
(451,84,c),
(451,0,l),
(490,0,l),
(490,544,l),
(448,544,l),
(448,137,l),
(382,71,o),
(317,29,o),
(251,29,cs),
(216,29,o),
(184,42,o),
(161,63,cs),
(138,83,o),
(123,111,o),
(123,141,cs),
(123,544,l),
(82,544,l),
(82,-169,l)
);
}
);
width = 582;
}
);
leftKerningGroup = u;
rightKerningGroup = d;
unicode = 181;
},
{
glyphname = paragraph;
leftMetricsKey = o;
layers = (
{
layerId = "8DBE427A-3D94-44F6-909C-34E8B708558F";
shapes = (
{
closed = 1;
nodes = (
(589,742,l),
(257,742,ls),
(102,742,o),
(15,648,o),
(15,525,cs),
(15,383,o),
(116,320,o),
(221,308,c),
(221,-85,l),
(339,-85,l),
(339,633,l),
(405,633,l),
(405,-85,l),
(523,-85,l),
(523,633,l),
(589,633,l)
);
}
);
width = 639;
},
{
layerId = "7F526B41-32D4-4B88-B4BE-8E854E9660E0";
shapes = (
{
closed = 1;
nodes = (
(493,742,l),
(278,742,ls),
(121,742,o),
(43,633,o),
(43,517,cs),
(43,400,o),
(126,309,o),
(259,305,c),
(259,-85,l),
(320,-85,l),
(320,686,l),
(371,686,l),
(371,-85,l),
(431,-85,l),
(431,686,l),
(493,686,l)
);
}
);
width = 570;
},
{
layerId = "B5FFAA16-DBAD-40DC-8294-46FA18BBC24B";
shapes = (
{
closed = 1;
nodes = (
(449,742,l),
(287,742,ls),
(130,742,o),
(55,626,o),
(55,514,cs),
(55,408,o),
(131,304,o),
(276,304,c),
(276,-85,l),
(311,-85,l),
(311,710,l),
(355,710,l),
(355,-85,l),
(389,-85,l),
(389,710,l),
(449,710,l)
);
}
);
width = 539;
}
);
unicode = 182;
},
{
glyphname = periodcentered;
layers = (
{
layerId = "8DBE427A-3D94-44F6-909C-34E8B708558F";
shapes = (
{
closed = 1;
nodes = (
(44,463,l),
(44,284,l),
(230,284,l),
(230,463,l)
);
}
);
width = 289;
},
{
layerId = "7F526B41-32D4-4B88-B4BE-8E854E9660E0";
shapes = (
{
closed = 1;
nodes = (
(45,429,l),
(45,318,l),
(159,318,l),
(159,429,l)
);
}
);
width = 209;
},
{
layerId = "B5FFAA16-DBAD-40DC-8294-46FA18BBC24B";
shapes = (
{
closed = 1;
nodes = (
(45,413,l),
(45,334,l),
(127,334,l),
(127,413,l)
);
}
);
width = 172;
}
);
leftKerningGroup = comma2;
rightKerningGroup = comma;
unicode = 183;
},
{
glyphname = ordmasculine;
layers = (
{
hints = (
{
horizontal = 1;
place = (470,108);
type = Stem;
},
{
horizontal = 1;
place = (730,107);
type = Stem;
},
{
place = (10,145);
type = Stem;
},
{
place = (256,146);
type = Stem;
}
);
layerId = "8DBE427A-3D94-44F6-909C-34E8B708558F";
shapes = (
{
closed = 1;
nodes = (
(325,385,o),
(402,461,o),
(402,566,cs),
(402,673,o),
(328,752,o),
(206,752,cs),
(91,752,o),
(10,677,o),
(10,566,cs),
(10,460,o),
(86,385,o),
(205,385,cs)
);
},
{
closed = 1;
nodes = (
(163,493,o),
(155,538,o),
(155,571,cs),
(155,604,o),
(163,645,o),
(206,645,cs),
(249,645,o),
(256,604,o),
(256,571,cs),
(256,538,o),
(249,493,o),
(206,493,cs)
);
}
);
width = 412;
},
{
hints = (
{
place = (29,67);
type = Stem;
},
{
place = (298,68);
type = Stem;
}
);
layerId = "7F526B41-32D4-4B88-B4BE-8E854E9660E0";
shapes = (
{
closed = 1;
nodes = (
(303,383,o),
(366,458,o),
(366,565,cs),
(366,673,o),
(303,750,o),
(197,750,cs),
(93,750,o),
(29,674,o),
(29,564,cs),
(29,457,o),
(90,383,o),
(197,383,cs)
);
},
{
closed = 1;
nodes = (
(127,437,o),
(96,493,o),
(96,567,cs),
(96,640,o),
(127,697,o),
(197,697,cs),
(266,697,o),
(298,641,o),
(298,567,cs),
(298,493,o),
(268,437,o),
(198,437,cs)
);
}
);
width = 393;
},
{
hints = (
{
horizontal = 1;
place = (472,29);
type = Stem;
},
{
horizontal = 1;
place = (810,29);
type = Stem;
},
{
place = (37,32);
type = Stem;
},
{
place = (317,32);
type = Stem;
}
);
layerId = "B5FFAA16-DBAD-40DC-8294-46FA18BBC24B";
shapes = (
{
closed = 1;
nodes = (
(293,382,o),
(349,457,o),
(349,565,cs),
(349,673,o),
(292,749,o),
(193,749,cs),
(93,749,o),
(37,672,o),
(37,563,cs),
(37,456,o),
(92,382,o),
(193,382,cs)
);
},
{
closed = 1;
nodes = (
(111,411,o),
(69,473,o),
(69,565,cs),
(69,657,o),
(111,720,o),
(193,720,cs),
(274,720,o),
(317,658,o),
(317,565,cs),
(317,472,o),
(276,411,o),
(194,411,cs)
);
}
);
width = 385;
}
);
unicode = 186;
},
{
glyphname = guillemetright;
layers = (
{
layerId = "8DBE427A-3D94-44F6-909C-34E8B708558F";
shapes = (
{
closed = 1;
nodes = (
(47,60,l),
(150,60,l),
(260,257,l),
(151,463,l),
(47,463,l),
(113,257,l)
);
},
{
closed = 1;
nodes = (
(255,60,l),
(358,60,l),
(468,257,l),
(359,463,l),
(255,463,l),
(321,257,l)
);
}
);
width = 523;
},
{
layerId = "7F526B41-32D4-4B88-B4BE-8E854E9660E0";
shapes = (
{
closed = 1;
nodes = (
(47,72,l),
(98,72,l),
(233,257,l),
(97,451,l),
(46,451,l),
(151,257,l)
);
},
{
closed = 1;
nodes = (
(227,72,l),
(278,72,l),
(413,257,l),
(277,451,l),
(225,451,l),
(331,257,l)
);
}
);
width = 452;
},
{
layerId = "B5FFAA16-DBAD-40DC-8294-46FA18BBC24B";
shapes = (
{
closed = 1;
nodes = (
(47,78,l),
(74,78,l),
(221,257,l),
(73,445,l),
(45,445,l),
(168,257,l)
);
},
{
closed = 1;
nodes = (
(214,78,l),
(241,78,l),
(388,257,l),
(240,445,l),
(212,445,l),
(335,257,l)
);
}
);
width = 420;
}
);
unicode = 187;
},
{
glyphname = AE;
leftMetricsKey = A;
layers = (
{
anchors = (
{
name = top;
position = "{719, 742}";
}
);
layerId = "8DBE427A-3D94-44F6-909C-34E8B708558F";
shapes = (
{
closed = 1;
nodes = (
(733,164,l),
(733,292,l),
(1022,292,l),
(1022,453,l),
(733,453,l),
(733,578,l),
(1083,578,l),
(1083,742,l),
(395,742,l),
(10,0,l),
(209,0,l),
(280,144,l),
(506,144,l),
(506,0,l),
(1092,0,l),
(1092,164,l)
);
},
{
closed = 1;
nodes = (
(353,314,l),
(506,616,l),
(506,314,l)
);
}
);
width = 1132;
},
{
anchors = (
{
name = top;
position = "{681, 742}";
}
);
layerId = "7F526B41-32D4-4B88-B4BE-8E854E9660E0";
shapes = (
{
closed = 1;
nodes = (
(589,79,l),
(589,335,l),
(902,335,l),
(902,413,l),
(589,413,l),
(589,663,l),
(942,663,l),
(942,742,l),
(436,742,l),
(24,0,l),
(116,0,l),
(232,209,l),
(486,209,l),
(486,0,l),
(955,0,l),
(955,79,l)
);
},
{
closed = 1;
nodes = (
(268,289,l),
(486,676,l),
(486,289,l)
);
}
);
width = 1016;
},
{
anchors = (
{
name = top;
position = "{663, 742}";
}
);
layerId = "B5FFAA16-DBAD-40DC-8294-46FA18BBC24B";
shapes = (
{
closed = 1;
nodes = (
(523,40,l),
(523,355,l),
(848,355,l),
(848,395,l),
(523,395,l),
(523,702,l),
(878,702,l),
(878,742,l),
(454,742,l),
(30,0,l),
(73,0,l),
(210,238,l),
(477,238,l),
(477,0,l),
(893,0,l),
(893,40,l)
);
},
{
closed = 1;
nodes = (
(229,278,l),
(477,703,l),
(477,278,l)
);
}
);
width = 963;
}
);
leftKerningGroup = AE;
rightKerningGroup = E;
unicode = 198;
},
{
glyphname = Eth;
layers = (
{
layerId = "8DBE427A-3D94-44F6-909C-34E8B708558F";
shapes = (
{
closed = 1;
nodes = (
(432,414,ls),
(432,426,o),
(425,434,o),
(414,434,cs),
(43,434,ls),
(31,434,o),
(24,426,o),
(24,411,cs),
(24,318,ls),
(24,301,o),
(30,293,o),
(50,293,cs),
(399,293,ls),
(422,293,o),
(432,301,o),
(432,321,cs)
);
},
{
alignment = -1;
pos = (20,0);
ref = D;
}
);
width = 755;
},
{
anchors = (
{
name = center;
position = "{354, 371}";
},
{
name = top;
position = "{350, 742}";
}
);
layerId = "7F526B41-32D4-4B88-B4BE-8E854E9660E0";
shapes = (
{
closed = 1;
nodes = (
(370,395,ls),
(370,403,o),
(367,407,o),
(360,407,cs),
(42,407,ls),
(35,407,o),
(32,403,o),
(32,394,cs),
(32,349,ls),
(32,339,o),
(35,334,o),
(47,334,cs),
(351,334,ls),
(364,334,o),
(370,339,o),
(370,351,cs)
);
},
{
alignment = -1;
pos = (4,0);
ref = D;
}
);
width = 714;
},
{
layerId = "B5FFAA16-DBAD-40DC-8294-46FA18BBC24B";
shapes = (
{
closed = 1;
nodes = (
(342,387,ls),
(342,392,o),
(340,395,o),
(335,395,cs),
(42,395,ls),
(37,395,o),
(35,392,o),
(35,386,cs),
(35,363,ls),
(35,356,o),
(37,353,o),
(45,353,cs),
(329,353,ls),
(338,353,o),
(342,356,o),
(342,364,cs)
);
},
{
alignment = -1;
pos = (-4,0);
ref = D;
}
);
width = 696;
}
);
leftKerningGroup = B;
rightKerningGroup = D;
unicode = 208;
},
{
glyphname = multiply;
layers = (
{
layerId = "8DBE427A-3D94-44F6-909C-34E8B708558F";
shapes = (
{
closed = 1;
nodes = (
(144,630,l),
(45,529,l),
(456,118,l),
(556,218,l)
);
},
{
closed = 1;
nodes = (
(558,529,l),
(458,630,l),
(46,218,l),
(145,118,l)
);
}
);
width = 610;
},
{
layerId = "7F526B41-32D4-4B88-B4BE-8E854E9660E0";
shapes = (
{
closed = 1;
nodes = (
(110,583,l),
(60,533,l),
(433,162,l),
(482,212,l)
);
},
{
closed = 1;
nodes = (
(482,535,l),
(433,585,l),
(61,212,l),
(111,162,l)
);
}
);
width = 546;
},
{
layerId = "B5FFAA16-DBAD-40DC-8294-46FA18BBC24B";
shapes = (
{
closed = 1;
nodes = (
(94,562,l),
(67,535,l),
(422,182,l),
(449,209,l)
);
},
{
closed = 1;
nodes = (
(448,537,l),
(421,564,l),
(68,209,l),
(95,182,l)
);
}
);
width = 517;
}
);
unicode = 215;
},
{
glyphname = Oslash;
layers = (
{
anchors = (
{
name = top;
position = "{393, 742}";
}
);
layerId = "8DBE427A-3D94-44F6-909C-34E8B708558F";
shapes = (
{
closed = 1;
nodes = (
(710,755,l),
(4,69,l),
(83,-13,l),
(791,668,l)
);
},
{
alignment = -1;
pos = (19,0);
ref = O;
}
);
width = 796;
},
{
anchors = (
{
name = top;
position = "{367, 742}";
}
);
layerId = "7F526B41-32D4-4B88-B4BE-8E854E9660E0";
shapes = (
{
closed = 1;
nodes = (
(680,751,l),
(13,35,l),
(57,-13,l),
(724,701,l)
);
},
{
alignment = -1;
ref = O;
}
);
width = 736;
},
{
anchors = (
{
name = top;
position = "{355, 742}";
}
);
layerId = "B5FFAA16-DBAD-40DC-8294-46FA18BBC24B";
shapes = (
{
closed = 1;
nodes = (
(667,749,l),
(17,20,l),
(45,-13,l),
(694,716,l)
);
},
{
alignment = -1;
pos = (-8,0);
ref = O;
}
);
width = 708;
}
);
leftKerningGroup = Oslash2;
rightKerningGroup = Oslash;
unicode = 216;
},
{
glyphname = Thorn;
leftMetricsKey = P;
layers = (
{
layerId = "8DBE427A-3D94-44F6-909C-34E8B708558F";
shapes = (
{
closed = 1;
nodes = (
(724,530,o),
(587,608,o),
(423,608,cs),
(287,608,l),
(287,742,l),
(60,742,l),
(60,0,l),
(287,0,l),
(287,142,l),
(449,142,ls),
(612,142,o),
(724,229,o),
(724,372,cs)
);
},
{
closed = 1;
nodes = (
(492,335,o),
(463,302,o),
(415,302,cs),
(287,302,l),
(287,448,l),
(409,448,ls),
(455,448,o),
(492,420,o),
(492,375,cs)
);
}
);
width = 734;
},
{
layerId = "7F526B41-32D4-4B88-B4BE-8E854E9660E0";
shapes = (
{
closed = 1;
nodes = (
(647,525,o),
(529,588,o),
(370,588,cs),
(200,588,l),
(200,742,l),
(98,742,l),
(98,0,l),
(200,0,l),
(200,170,l),
(382,170,ls),
(536,170,o),
(647,236,o),
(647,384,cs)
);
},
{
closed = 1;
nodes = (
(542,289,o),
(475,247,o),
(372,247,cs),
(200,247,l),
(200,511,l),
(365,511,ls),
(472,511,o),
(542,476,o),
(542,385,cs)
);
}
);
width = 671;
},
{
layerId = "B5FFAA16-DBAD-40DC-8294-46FA18BBC24B";
shapes = (
{
closed = 1;
nodes = (
(612,522,o),
(502,579,o),
(346,579,cs),
(161,579,l),
(161,742,l),
(115,742,l),
(115,0,l),
(161,0,l),
(161,182,l),
(352,182,ls),
(502,182,o),
(612,239,o),
(612,390,cs)
);
},
{
closed = 1;
nodes = (
(564,268,o),
(480,222,o),
(352,222,cs),
(161,222,l),
(161,539,l),
(345,539,ls),
(480,539,o),
(564,501,o),
(564,390,cs)
);
}
);
width = 642;
}
);
leftKerningGroup = B;
rightKerningGroup = P;
unicode = 222;
},
{
glyphname = germandbls;
layers = (
{
layerId = "8DBE427A-3D94-44F6-909C-34E8B708558F";
shapes = (
{
closed = 1;
nodes = (
(132,742,o),
(69,616,o),
(64,496,c),
(9,496,l),
(9,361,l),
(65,361,l),
(65,0,l),
(261,0,l),
(261,535,ls),
(261,581,o),
(287,617,o),
(340,617,cs),
(382,617,o),
(403,595,o),
(403,568,cs),
(403,535,o),
(374,512,o),
(345,482,cs),
(319,455,o),
(293,421,o),
(293,368,cs),
(293,295,o),
(341,249,o),
(404,221,cs),
(457,198,o),
(481,187,o),
(481,158,cs),
(481,126,o),
(453,113,o),
(423,113,cs),
(387,113,o),
(363,130,o),
(347,142,c),
(292,23,l),
(323,4,o),
(365,-10,o),
(427,-10,cs),
(568,-10,o),
(658,55,o),
(658,179,cs),
(658,313,o),
(553,360,o),
(441,410,cs),
(436,412,o),
(434,415,o),
(434,418,cs),
(434,421,o),
(436,424,o),
(439,425,cs),
(543,467,o),
(582,511,o),
(582,581,cs),
(582,687,o),
(493,742,o),
(347,742,cs)
);
}
);
width = 663;
},
{
layerId = "7F526B41-32D4-4B88-B4BE-8E854E9660E0";
shapes = (
{
closed = 1;
nodes = (
(171,742,o),
(94,648,o),
(92,519,c),
(23,519,l),
(23,453,l),
(93,453,l),
(93,0,l),
(182,0,l),
(182,535,ls),
(182,628,o),
(235,677,o),
(314,677,cs),
(378,677,o),
(415,646,o),
(415,598,cs),
(415,546,o),
(371,526,o),
(333,501,c),
(275,468,o),
(246,439,o),
(246,388,cs),
(246,316,o),
(303,292,o),
(355,273,c),
(423,250,o),
(483,228,o),
(483,156,cs),
(483,91,o),
(434,55,o),
(360,55,cs),
(315,55,o),
(287,69,o),
(259,86,c),
(226,26,l),
(260,3,o),
(316,-10,o),
(367,-10,cs),
(479,-10,o),
(567,50,o),
(567,165,cs),
(567,294,o),
(454,330,o),
(376,360,c),
(333,374,o),
(319,380,o),
(319,404,cs),
(319,429,o),
(334,438,o),
(377,461,c),
(447,494,o),
(500,523,o),
(500,600,cs),
(500,675,o),
(448,742,o),
(322,742,cs)
);
}
);
width = 605;
},
{
layerId = "B5FFAA16-DBAD-40DC-8294-46FA18BBC24B";
shapes = (
{
closed = 1;
nodes = (
(189,742,o),
(105,663,o),
(105,530,c),
(30,530,l),
(30,495,l),
(106,495,l),
(106,0,l),
(146,0,l),
(146,535,ls),
(146,650,o),
(211,704,o),
(302,704,cs),
(376,704,o),
(420,669,o),
(420,612,cs),
(420,551,o),
(370,532,o),
(327,510,cs),
(255,474,o),
(225,447,o),
(225,397,cs),
(225,326,o),
(285,312,o),
(333,297,cs),
(408,274,o),
(484,247,o),
(484,155,cs),
(484,75,o),
(426,28,o),
(331,28,cs),
(282,28,o),
(252,41,o),
(219,60,c),
(196,27,l),
(232,3,o),
(293,-10,o),
(339,-10,cs),
(439,-10,o),
(526,48,o),
(526,158,cs),
(526,286,o),
(409,317,o),
(346,337,cs),
(286,356,o),
(267,364,o),
(267,398,cs),
(267,433,o),
(288,444,o),
(349,477,cs),
(403,506,o),
(462,528,o),
(462,609,cs),
(462,670,o),
(428,742,o),
(310,742,cs)
);
}
);
width = 578;
}
);
leftKerningGroup = b2;
rightKerningGroup = s;
unicode = 223;
},
{
glyphname = ae;
leftMetricsKey = a;
rightMetricsKey = e;
layers = (
{
anchors = (
{
name = top;
position = "{490, 530}";
},
{
name = ogonek;
position = "{-63, 10}";
},
{
name = bottom;
position = "{325, 0}";
}
);
guides = (
{
angle = 90;
position = "{-230, 0}";
}
);
layerId = "8DBE427A-3D94-44F6-909C-34E8B708558F";
shapes = (
{
closed = 1;
nodes = (
(883,208,l),
(883,255,ls),
(883,412,o),
(796,540,o),
(622,540,cs),
(452,540,o),
(353,410,o),
(353,258,cs),
(353,97,o),
(465,-10,o),
(631,-10,cs),
(748,-10,o),
(829,42,o),
(871,138,c),
(728,173,l),
(706,139,o),
(665,124,o),
(628,124,cs),
(585,124,o),
(550,145,o),
(551,208,c)
);
},
{
closed = 1;
nodes = (
(551,335,l),
(551,375,o),
(582,415,o),
(623,415,cs),
(674,415,o),
(695,375,o),
(695,335,c)
);
},
{
closed = 1;
nodes = (
(552,378,l),
(552,484,o),
(476,540,o),
(324,540,cs),
(180,540,o),
(99,496,o),
(60,401,c),
(221,359,l),
(233,407,o),
(255,425,o),
(300,425,cs),
(348,426,o),
(371,404,o),
(371,365,c)
);
},
{
closed = 1;
nodes = (
(297,-10,o),
(378,26,o),
(433,92,c),
(396,164,l),
(362,133,o),
(322,114,o),
(288,114,cs),
(249,114,o),
(228,128,o),
(228,153,cs),
(228,210,o),
(283,240,o),
(396,240,c),
(396,332,l),
(157,332,o),
(36,266,o),
(36,137,cs),
(36,54,o),
(110,-10,o),
(204,-10,cs)
);
}
);
width = 898;
},
{
anchors = (
{
name = top;
position = "{484, 530}";
},
{
name = ogonek;
position = "{310, 13}";
}
);
guides = (
{
angle = 90;
position = "{-244, 0}";
}
);
layerId = "7F526B41-32D4-4B88-B4BE-8E854E9660E0";
shapes = (
{
closed = 1;
nodes = (
(858,240,l),
(858,275,ls),
(858,436,o),
(776,540,o),
(628,540,cs),
(476,540,o),
(388,428,o),
(388,260,cs),
(388,90,o),
(491,-10,o),
(638,-10,cs),
(733,-10,o),
(807,32,o),
(846,118,c),
(774,139,l),
(746,88,o),
(705,59,o),
(637,59,cs),
(532,59,o),
(479,137,o),
(479,240,c)
);
},
{
closed = 1;
nodes = (
(480,307,l),
(479,388,o),
(526,473,o),
(627,473,cs),
(725,473,o),
(770,400,o),
(770,307,c)
);
},
{
closed = 1;
nodes = (
(490,371,l),
(490,477,o),
(431,540,o),
(305,540,cs),
(193,540,o),
(117,493,o),
(79,415,c),
(155,386,l),
(188,448,o),
(229,477,o),
(298,477,cs),
(370,477,o),
(404,437,o),
(404,370,c)
);
},
{
closed = 1;
nodes = (
(299,-10,o),
(354,18,o),
(430,97,c),
(430,163,l),
(375,103,o),
(319,58,o),
(248,58,cs),
(193,58,o),
(152,90,o),
(152,133,cs),
(152,228,o),
(285,254,o),
(430,287,c),
(430,344,l),
(247,310,o),
(57,269,o),
(57,132,cs),
(57,51,o),
(131,-10,o),
(222,-10,cs)
);
}
);
width = 904;
},
{
anchors = (
{
name = top;
position = "{473, 530}";
},
{
name = ogonek;
position = "{471, 14}";
}
);
hints = (
{
horizontal = 1;
place = (4145,208);
type = Stem;
}
);
layerId = "B5FFAA16-DBAD-40DC-8294-46FA18BBC24B";
shapes = (
{
closed = 1;
nodes = (
(864,254,l),
(864,284,ls),
(864,447,o),
(784,540,o),
(648,540,cs),
(504,540,o),
(421,436,o),
(421,261,cs),
(421,87,o),
(520,-10,o),
(659,-10,cs),
(744,-10,o),
(815,28,o),
(852,109,c),
(813,123,l),
(782,65,o),
(741,30,o),
(659,30,cs),
(525,30,o),
(464,134,o),
(464,254,c)
);
},
{
closed = 1;
nodes = (
(465,294,l),
(464,394,o),
(518,500,o),
(647,500,cs),
(766,500,o),
(822,412,o),
(822,294,c)
);
},
{
closed = 1;
nodes = (
(475,367,l),
(475,474,o),
(407,540,o),
(295,540,cs),
(200,540,o),
(127,492,o),
(89,423,c),
(121,400,l),
(165,470,o),
(216,504,o),
(297,504,cs),
(381,504,o),
(435,455,o),
(435,373,c)
);
},
{
closed = 1;
nodes = (
(315,-10,o),
(368,26,o),
(461,119,c),
(448,163,l),
(382,87,o),
(318,29,o),
(227,29,cs),
(163,29,o),
(112,70,o),
(112,123,cs),
(112,238,o),
(286,261,o),
(448,311,c),
(448,350,l),
(294,298,o),
(68,271,o),
(68,129,cs),
(68,50,o),
(142,-10,o),
(232,-10,cs)
);
}
);
width = 924;
}
);
leftKerningGroup = a2;
rightKerningGroup = b;
unicode = 230;
},
{
glyphname = eth;
leftMetricsKey = o;
layers = (
{
layerId = "8DBE427A-3D94-44F6-909C-34E8B708558F";
shapes = (
{
closed = 1;
nodes = (
(573,440,o),
(498,582,o),
(374,669,c),
(429,700,l),
(398,756,l),
(310,707,l),
(269,727,o),
(224,742,o),
(176,753,c),
(73,668,l),
(107,656,o),
(139,643,o),
(168,628,c),
(85,583,l),
(119,528,l),
(230,590,l),
(258,569,o),
(277,551,o),
(296,525,cs),
(298,522,o),
(298,520,o),
(294,520,cs),
(136,520,o),
(15,409,o),
(15,252,cs),
(15,103,o),
(129,-10,o),
(293,-10,cs),
(460,-10,o),
(573,102,o),
(573,282,cs)
);
},
{
closed = 1;
nodes = (
(241,118,o),
(217,162,o),
(217,256,cs),
(217,351,o),
(241,396,o),
(294,396,cs),
(348,396,o),
(371,351,o),
(371,256,cs),
(371,163,o),
(348,118,o),
(294,118,cs)
);
}
);
width = 588;
},
{
layerId = "7F526B41-32D4-4B88-B4BE-8E854E9660E0";
shapes = (
{
closed = 1;
nodes = (
(551,428,o),
(490,569,o),
(344,669,c),
(426,714,l),
(404,755,l),
(300,697,l),
(261,718,o),
(220,737,o),
(173,753,c),
(115,709,l),
(157,693,o),
(195,676,o),
(230,657,c),
(93,581,l),
(118,542,l),
(273,630,l),
(341,583,o),
(383,532,o),
(410,474,c),
(381,503,o),
(341,520,o),
(291,520,cs),
(148,520,o),
(43,408,o),
(43,252,cs),
(43,100,o),
(145,-10,o),
(295,-10,cs),
(453,-10,o),
(551,101,o),
(551,263,cs)
);
},
{
closed = 1;
nodes = (
(202,56,o),
(135,139,o),
(135,255,cs),
(135,371,o),
(202,455,o),
(297,455,cs),
(393,455,o),
(459,372,o),
(459,255,cs),
(459,138,o),
(394,56,o),
(298,56,cs)
);
}
);
width = 594;
},
{
layerId = "B5FFAA16-DBAD-40DC-8294-46FA18BBC24B";
shapes = (
{
closed = 1;
nodes = (
(541,422,o),
(486,563,o),
(330,669,c),
(424,721,l),
(407,754,l),
(296,692,l),
(258,714,o),
(218,734,o),
(171,753,c),
(134,728,l),
(180,710,o),
(221,691,o),
(258,670,c),
(97,580,l),
(117,549,l),
(292,648,l),
(378,590,o),
(431,523,o),
(462,451,c),
(419,494,o),
(360,520,o),
(289,520,cs),
(153,520,o),
(55,408,o),
(55,252,cs),
(55,98,o),
(152,-10,o),
(296,-10,cs),
(450,-10,o),
(541,101,o),
(541,255,cs)
);
},
{
closed = 1;
nodes = (
(184,28,o),
(97,128,o),
(97,254,cs),
(97,380,o),
(184,482,o),
(299,482,cs),
(413,482,o),
(499,381,o),
(499,254,cs),
(499,127,o),
(415,28,o),
(300,28,cs)
);
}
);
width = 596;
}
);
leftKerningGroup = c;
rightKerningGroup = b;
unicode = 240;
},
{
glyphname = divide;
layers = (
{
layerId = "8DBE427A-3D94-44F6-909C-34E8B708558F";
shapes = (
{
closed = 1;
nodes = (
(207,243,l),
(207,61,l),
(397,61,l),
(397,243,l)
);
},
{
closed = 1;
nodes = (
(40,444,l),
(40,303,l),
(562,303,l),
(562,444,l)
);
},
{
closed = 1;
nodes = (
(207,686,l),
(207,504,l),
(397,504,l),
(397,686,l)
);
}
);
width = 612;
},
{
layerId = "7F526B41-32D4-4B88-B4BE-8E854E9660E0";
shapes = (
{
closed = 1;
nodes = (
(223,250,l),
(223,139,l),
(339,139,l),
(339,250,l)
);
},
{
closed = 1;
nodes = (
(61,408,l),
(61,337,l),
(499,338,l),
(499,408,l)
);
},
{
closed = 1;
nodes = (
(223,607,l),
(223,496,l),
(339,496,l),
(339,607,l)
);
}
);
width = 563;
},
{
layerId = "B5FFAA16-DBAD-40DC-8294-46FA18BBC24B";
shapes = (
{
closed = 1;
nodes = (
(230,253,l),
(230,174,l),
(312,174,l),
(312,253,l)
);
},
{
closed = 1;
nodes = (
(70,391,l),
(70,353,l),
(471,354,l),
(471,392,l)
);
},
{
closed = 1;
nodes = (
(230,571,l),
(230,492,l),
(312,492,l),
(312,571,l)
);
}
);
width = 541;
}
);
unicode = 247;
},
{
glyphname = oslash;
layers = (
{
anchors = (
{
name = top;
position = "{302, 530}";
}
);
layerId = "8DBE427A-3D94-44F6-909C-34E8B708558F";
shapes = (
{
closed = 1;
nodes = (
(532,538,l),
(11,54,l),
(71,-9,l),
(591,475,l)
);
},
{
alignment = -1;
ref = o;
}
);
width = 614;
},
{
anchors = (
{
name = top;
position = "{292, 530}";
}
);
layerId = "7F526B41-32D4-4B88-B4BE-8E854E9660E0";
shapes = (
{
closed = 1;
nodes = (
(531,534,l),
(14,34,l),
(52,-6,l),
(569,495,l)
);
},
{
alignment = -1;
pos = (-4,0);
ref = o;
}
);
width = 587;
},
{
anchors = (
{
name = top;
position = "{288, 530}";
}
);
layerId = "B5FFAA16-DBAD-40DC-8294-46FA18BBC24B";
shapes = (
{
closed = 1;
nodes = (
(531,532,l),
(15,25,l),
(43,-4,l),
(559,504,l)
);
},
{
alignment = -1;
pos = (-6,0);
ref = o;
}
);
width = 575;
}
);
leftKerningGroup = c;
rightKerningGroup = b;
unicode = 248;
},
{
glyphname = thorn;
leftMetricsKey = n;
layers = (
{
layerId = "8DBE427A-3D94-44F6-909C-34E8B708558F";
shapes = (
{
closed = 1;
nodes = (
(50,742,l),
(50,-165,l),
(250,-165,l),
(250,36,ls),
(250,56,o),
(255,55,o),
(271,41,cs),
(313,1,o),
(354,-10,o),
(399,-10,cs),
(511,-10,o),
(602,65,o),
(602,267,cs),
(602,454,o),
(517,540,o),
(406,540,cs),
(337,540,o),
(294,514,o),
(251,469,c),
(251,742,l)
);
},
{
closed = 1;
nodes = (
(250,363,ls),
(250,395,o),
(281,419,o),
(320,419,cs),
(372,419,o),
(400,389,o),
(400,273,cs),
(400,145,o),
(370,111,o),
(320,111,cs),
(288,111,o),
(267,127,o),
(250,151,c)
);
}
);
width = 617;
},
{
layerId = "7F526B41-32D4-4B88-B4BE-8E854E9660E0";
shapes = (
{
closed = 1;
nodes = (
(88,742,l),
(88,-165,l),
(178,-165,l),
(178,34,ls),
(178,49,o),
(181,51,o),
(194,40,cs),
(227,11,o),
(274,-10,o),
(335,-10,cs),
(471,-10,o),
(564,93,o),
(564,273,cs),
(564,453,o),
(468,540,o),
(346,540,cs),
(247,540,o),
(202,484,o),
(177,457,c),
(177,742,l)
);
},
{
closed = 1;
nodes = (
(178,364,ls),
(178,415,o),
(234,476,o),
(315,476,cs),
(400,476,o),
(472,417,o),
(472,272,cs),
(472,127,o),
(404,54,o),
(310,54,cs),
(258,54,o),
(217,79,o),
(178,119,c)
);
}
);
width = 606;
},
{
layerId = "B5FFAA16-DBAD-40DC-8294-46FA18BBC24B";
shapes = (
{
closed = 1;
nodes = (
(105,742,l),
(105,-165,l),
(145,-165,l),
(145,33,ls),
(145,46,o),
(148,49,o),
(159,40,cs),
(188,16,o),
(238,-10,o),
(306,-10,cs),
(453,-10,o),
(546,105,o),
(546,275,cs),
(546,452,o),
(446,540,o),
(318,540,cs),
(206,540,o),
(160,471,o),
(143,451,c),
(143,742,l)
);
},
{
closed = 1;
nodes = (
(145,364,ls),
(145,424,o),
(213,502,o),
(313,502,cs),
(413,502,o),
(504,430,o),
(504,271,cs),
(504,119,o),
(420,28,o),
(305,28,cs),
(244,28,o),
(194,57,o),
(145,104,c)
);
}
);
width = 601;
}
);
leftKerningGroup = b2;
rightKerningGroup = b;
unicode = 254;
},
{
glyphname = dcroat;
leftMetricsKey = d;
layers = (
{
layerId = "8DBE427A-3D94-44F6-909C-34E8B708558F";
shapes = (
{
closed = 1;
nodes = (
(242,687,l),
(242,580,l),
(613,580,l),
(613,687,l)
);
},
{
alignment = -1;
ref = d;
}
);
width = 636;
},
{
anchors = (
{
name = bottom;
position = "{290, 0}";
},
{
name = center;
position = "{298, 265}";
},
{
name = topright;
position = "{603, 676}";
}
);
layerId = "7F526B41-32D4-4B88-B4BE-8E854E9660E0";
shapes = (
{
closed = 1;
nodes = (
(276,670,l),
(276,612,l),
(591,612,l),
(591,670,l)
);
},
{
alignment = -1;
ref = d;
}
);
width = 615;
},
{
layerId = "B5FFAA16-DBAD-40DC-8294-46FA18BBC24B";
shapes = (
{
closed = 1;
nodes = (
(292,662,l),
(292,627,l),
(581,627,l),
(581,662,l)
);
},
{
alignment = -1;
ref = d;
}
);
width = 606;
}
);
leftKerningGroup = c;
unicode = 273;
},
{
glyphname = gcommaaccent;
leftMetricsKey = g;
widthMetricsKey = g;
layers = (
{
layerId = "8DBE427A-3D94-44F6-909C-34E8B708558F";
shapes = (
{
closed = 1;
nodes = (
(368,599,l),
(368,702,l),
(306,702,l),
(375,796,l),
(308,796,l),
(239,710,l),
(239,599,l)
);
},
{
alignment = -1;
ref = g;
}
);
width = 652;
},
{
anchors = (
{
name = top;
position = "{293, 530}";
}
);
layerId = "7F526B41-32D4-4B88-B4BE-8E854E9660E0";
shapes = (
{
closed = 1;
nodes = (
(330,622,l),
(330,711,l),
(294,711,l),
(339,789,l),
(296,789,l),
(250,716,l),
(250,622,l)
);
},
{
alignment = -1;
ref = g;
}
);
width = 647;
},
{
layerId = "B5FFAA16-DBAD-40DC-8294-46FA18BBC24B";
shapes = (
{
closed = 1;
nodes = (
(313,632,l),
(313,715,l),
(289,715,l),
(322,786,l),
(290,786,l),
(255,719,l),
(255,632,l)
);
},
{
alignment = -1;
ref = g;
}
);
width = 644;
}
);
leftKerningGroup = g2;
rightKerningGroup = g;
unicode = 291;
},
{
glyphname = Hbar;
layers = (
{
layerId = "8DBE427A-3D94-44F6-909C-34E8B708558F";
shapes = (
{
closed = 1;
nodes = (
(799,640,ls),
(799,651,o),
(793,658,o),
(783,658,cs),
(16,658,ls),
(6,658,o),
(0,651,o),
(0,638,cs),
(0,577,ls),
(0,562,o),
(5,555,o),
(22,555,cs),
(770,555,ls),
(790,555,o),
(799,562,o),
(799,579,cs)
);
},
{
alignment = -1;
pos = (25,0);
ref = H;
}
);
width = 809;
},
{
anchors = (
{
name = bottom;
position = "{367, 0}";
},
{
name = top;
position = "{367, 742}";
}
);
layerId = "7F526B41-32D4-4B88-B4BE-8E854E9660E0";
shapes = (
{
closed = 1;
nodes = (
(732,619,ls),
(732,626,o),
(729,631,o),
(723,631,cs),
(13,631,ls),
(7,631,o),
(3,626,o),
(3,618,cs),
(3,585,ls),
(3,575,o),
(6,571,o),
(17,571,cs),
(714,571,ls),
(727,571,o),
(732,575,o),
(732,586,cs)
);
},
{
alignment = -1;
pos = (4,0);
ref = H;
}
);
width = 739;
},
{
layerId = "B5FFAA16-DBAD-40DC-8294-46FA18BBC24B";
shapes = (
{
closed = 1;
nodes = (
(702,610,ls),
(702,615,o),
(700,618,o),
(695,618,cs),
(12,618,ls),
(7,618,o),
(5,615,o),
(5,609,cs),
(5,588,ls),
(5,581,o),
(7,578,o),
(15,578,cs),
(689,578,ls),
(698,578,o),
(702,581,o),
(702,589,cs)
);
},
{
alignment = -1;
pos = (-5,0);
ref = H;
}
);
width = 707;
}
);
leftKerningGroup = B;
rightKerningGroup = H;
unicode = 294;
},
{
glyphname = hbar;
layers = (
{
layerId = "8DBE427A-3D94-44F6-909C-34E8B708558F";
shapes = (
{
closed = 1;
nodes = (
(3,687,l),
(3,580,l),
(374,580,l),
(374,687,l)
);
},
{
alignment = -1;
pos = (3,0);
ref = h;
}
);
width = 629;
},
{
anchors = (
{
name = bottom;
position = "{314, 0}";
},
{
name = top;
position = "{373, 530}";
}
);
layerId = "7F526B41-32D4-4B88-B4BE-8E854E9660E0";
shapes = (
{
closed = 1;
nodes = (
(15,670,l),
(15,612,l),
(329,612,l),
(329,670,l)
);
},
{
alignment = -1;
pos = (-2,0);
ref = h;
}
);
width = 604;
},
{
layerId = "B5FFAA16-DBAD-40DC-8294-46FA18BBC24B";
shapes = (
{
closed = 1;
nodes = (
(20,662,l),
(20,627,l),
(309,627,l),
(309,662,l)
);
},
{
alignment = -1;
pos = (-4,0);
ref = h;
}
);
width = 592;
}
);
leftKerningGroup = b2;
rightKerningGroup = a;
unicode = 295;
},
{
glyphname = idotless;
leftMetricsKey = i;
layers = (
{
anchors = (
{
name = ogonek;
position = "{222, 9}";
},
{
name = top;
position = "{154, 530}";
}
);
layerId = "8DBE427A-3D94-44F6-909C-34E8B708558F";
shapes = (
{
closed = 1;
nodes = (
(50,530,l),
(50,0,l),
(250,0,l),
(250,530,l)
);
}
);
width = 305;
},
{
anchors = (
{
name = ogonek;
position = "{164, 12}";
},
{
name = top;
position = "{134, 530}";
}
);
layerId = "7F526B41-32D4-4B88-B4BE-8E854E9660E0";
shapes = (
{
closed = 1;
nodes = (
(88,530,l),
(88,0,l),
(178,0,l),
(178,530,l)
);
}
);
width = 267;
},
{
anchors = (
{
name = ogonek;
position = "{137, 13}";
},
{
name = top;
position = "{125, 530}";
}
);
layerId = "B5FFAA16-DBAD-40DC-8294-46FA18BBC24B";
shapes = (
{
closed = 1;
nodes = (
(105,530,l),
(105,0,l),
(145,0,l),
(145,530,l)
);
}
);
width = 250;
}
);
unicode = 305;
},
{
glyphname = kgreenlandic;
leftMetricsKey = k;
layers = (
{
layerId = "8DBE427A-3D94-44F6-909C-34E8B708558F";
shapes = (
{
closed = 1;
nodes = (
(452,359,l),
(623,530,l),
(427,530,l),
(250,330,l),
(250,530,l),
(50,530,l),
(50,0,l),
(250,0,l),
(250,150,l),
(321,216,l),
(411,0,l),
(637,0,l)
);
}
);
width = 647;
},
{
layerId = "7F526B41-32D4-4B88-B4BE-8E854E9660E0";
shapes = (
{
closed = 1;
nodes = (
(359,344,l),
(542,530,l),
(442,530,l),
(178,254,l),
(178,530,l),
(88,530,l),
(88,0,l),
(178,0,l),
(178,158,l),
(296,277,l),
(454,0,l),
(560,0,l)
);
}
);
width = 591;
},
{
layerId = "B5FFAA16-DBAD-40DC-8294-46FA18BBC24B";
shapes = (
{
closed = 1;
nodes = (
(316,337,l),
(505,530,l),
(449,530,l),
(145,219,l),
(145,530,l),
(105,530,l),
(105,0,l),
(145,0,l),
(145,162,l),
(285,304,l),
(474,0,l),
(525,0,l)
);
}
);
width = 565;
}
);
leftKerningGroup = b2;
rightKerningGroup = k;
unicode = 312;
},
{
glyphname = Lslash;
layers = (
{
layerId = "8DBE427A-3D94-44F6-909C-34E8B708558F";
shapes = (
{
closed = 1;
nodes = (
(439,534,ls),
(439,550,o),
(432,557,o),
(415,552,cs),
(10,444,ls),
(-2,441,o),
(-9,436,o),
(-9,421,cs),
(-9,301,ls),
(-9,284,o),
(-3,277,o),
(17,283,cs),
(419,397,ls),
(433,401,o),
(439,409,o),
(439,421,cs)
);
},
{
alignment = -1;
ref = L;
}
);
width = 571;
},
{
anchors = (
{
name = bottom;
position = "{313, 0}";
},
{
name = top;
position = "{140, 742}";
},
{
name = topright;
position = "{441, 742}";
}
);
layerId = "7F526B41-32D4-4B88-B4BE-8E854E9660E0";
shapes = (
{
closed = 1;
nodes = (
(362,464,ls),
(362,472,o),
(358,475,o),
(350,473,cs),
(29,390,ls),
(23,388,o),
(20,384,o),
(20,376,cs),
(20,322,ls),
(20,314,o),
(23,311,o),
(33,313,c),
(352,399,ls),
(359,401,o),
(362,406,o),
(362,412,cs)
);
},
{
alignment = -1;
pos = (-3,0);
ref = L;
}
);
width = 566;
},
{
layerId = "B5FFAA16-DBAD-40DC-8294-46FA18BBC24B";
shapes = (
{
closed = 1;
nodes = (
(327,432,ls),
(327,436,o),
(325,438,o),
(320,437,cs),
(38,365,ls),
(35,364,o),
(33,361,o),
(33,356,cs),
(33,332,ls),
(33,327,o),
(35,326,o),
(40,327,cs),
(321,400,ls),
(325,401,o),
(327,404,o),
(327,408,cs)
);
},
{
alignment = -1;
pos = (-4,0);
ref = L;
}
);
width = 563;
}
);
leftKerningGroup = B;
rightKerningGroup = L;
unicode = 321;
},
{
glyphname = lslash;
rightMetricsKey = "=15";
layers = (
{
layerId = "8DBE427A-3D94-44F6-909C-34E8B708558F";
shapes = (
{
closed = 1;
nodes = (
(15,312,l),
(15,146,l),
(359,371,l),
(359,528,l)
);
},
{
alignment = -1;
pos = (37,0);
ref = l;
}
);
width = 374;
},
{
anchors = (
{
name = bottom;
position = "{125, 0}";
},
{
name = top;
position = "{129, 783}";
},
{
name = topright;
position = "{307, 755}";
}
);
layerId = "7F526B41-32D4-4B88-B4BE-8E854E9660E0";
shapes = (
{
closed = 1;
nodes = (
(7,311,l),
(7,227,l),
(266,441,l),
(266,520,l)
);
},
{
alignment = -1;
pos = (3,0);
ref = l;
}
);
width = 281;
},
{
layerId = "B5FFAA16-DBAD-40DC-8294-46FA18BBC24B";
shapes = (
{
closed = 1;
nodes = (
(3,310,l),
(3,264,l),
(223,473,l),
(223,517,l)
);
},
{
alignment = -1;
pos = (-12,0);
ref = l;
}
);
width = 226;
}
);
leftKerningGroup = b2;
unicode = 322;
},
{
glyphname = Eng;
layers = (
{
layerId = "8DBE427A-3D94-44F6-909C-34E8B708558F";
shapes = (
{
closed = 1;
nodes = (
(550,328,l),
(261,742,l),
(60,742,l),
(60,0,l),
(260,0,l),
(260,442,l),
(554,21,l),
(554,14,ls),
(554,-6,o),
(546,-22,o),
(538,-34,cs),
(526,-51,o),
(504,-60,o),
(469,-60,cs),
(459,-60,o),
(447,-60,o),
(436,-59,cs),
(425,-58,o),
(414,-57,o),
(405,-55,c),
(405,-230,l),
(420,-233,o),
(443,-235,o),
(466,-237,cs),
(490,-239,o),
(516,-240,o),
(536,-240,cs),
(624,-240,o),
(678,-220,o),
(709,-181,cs),
(741,-141,o),
(750,-81,o),
(750,-1,cs),
(750,742,l),
(550,742,l)
);
}
);
width = 810;
},
{
layerId = "7F526B41-32D4-4B88-B4BE-8E854E9660E0";
shapes = (
{
closed = 1;
nodes = (
(580,158,l),
(183,742,l),
(98,742,l),
(98,0,l),
(188,0,l),
(188,591,l),
(583,9,l),
(583,-48,ls),
(583,-86,o),
(576,-111,o),
(564,-129,cs),
(551,-147,o),
(529,-156,o),
(497,-156,cs),
(476,-156,o),
(459,-152,o),
(446,-148,cs),
(432,-143,o),
(420,-137,o),
(410,-133,c),
(403,-217,l),
(410,-220,o),
(426,-225,o),
(447,-231,cs),
(468,-236,o),
(494,-240,o),
(520,-240,cs),
(579,-240,o),
(618,-223,o),
(640,-194,cs),
(663,-164,o),
(670,-119,o),
(670,-62,cs),
(670,742,l),
(580,742,l)
);
}
);
width = 752;
},
{
layerId = "B5FFAA16-DBAD-40DC-8294-46FA18BBC24B";
shapes = (
{
closed = 1;
nodes = (
(594,80,l),
(148,742,l),
(115,742,l),
(115,0,l),
(155,0,l),
(155,659,l),
(596,4,l),
(596,-76,ls),
(596,-122,o),
(590,-152,o),
(576,-172,cs),
(563,-191,o),
(541,-199,o),
(510,-199,cs),
(484,-199,o),
(465,-194,o),
(450,-188,c),
(435,-181,o),
(423,-173,o),
(412,-168,c),
(402,-211,l),
(405,-214,o),
(418,-221,o),
(438,-228,c),
(458,-234,o),
(484,-240,o),
(512,-240,cs),
(559,-240,o),
(590,-225,o),
(608,-200,cs),
(627,-174,o),
(634,-136,o),
(634,-90,cs),
(634,742,l),
(594,742,l)
);
}
);
width = 726;
}
);
leftKerningGroup = B;
rightKerningGroup = H;
unicode = 330;
},
{
glyphname = eng;
leftMetricsKey = n;
layers = (
{
layerId = "8DBE427A-3D94-44F6-909C-34E8B708558F";
shapes = (
{
closed = 1;
nodes = (
(493,-170,o),
(578,-94,o),
(578,29,cs),
(578,378,ls),
(578,477,o),
(514,540,o),
(421,540,cs),
(354,540,o),
(294,501,o),
(249,447,c),
(249,530,l),
(54,530,l),
(50,0,l),
(252,0,l),
(252,349,l),
(271,383,o),
(294,399,o),
(325,399,cs),
(357,399,o),
(378,381,o),
(378,351,cs),
(378,26,ls),
(378,0,o),
(364,-10,o),
(333,-15,c),
(309,-18,l),
(309,-157,l),
(309,-157,o),
(316,-170,o),
(373,-170,cs)
);
}
);
width = 631;
},
{
layerId = "7F526B41-32D4-4B88-B4BE-8E854E9660E0";
shapes = (
{
closed = 1;
nodes = (
(479,-170,o),
(529,-114,o),
(529,-19,cs),
(529,388,ls),
(529,479,o),
(468,540,o),
(368,540,cs),
(302,540,o),
(252,515,o),
(175,449,c),
(175,530,l),
(89,530,l),
(88,0,l),
(178,0,l),
(178,390,l),
(229,440,o),
(282,471,o),
(335,471,cs),
(410,471,o),
(439,428,o),
(439,365,cs),
(439,-24,ls),
(439,-76,o),
(420,-95,o),
(374,-98,c),
(327,-99,l),
(327,-160,ls),
(327,-165,o),
(333,-170,o),
(387,-170,cs)
);
}
);
width = 617;
},
{
layerId = "B5FFAA16-DBAD-40DC-8294-46FA18BBC24B";
shapes = (
{
closed = 1;
nodes = (
(473,-170,o),
(506,-123,o),
(506,-41,cs),
(506,393,ls),
(506,480,o),
(447,540,o),
(344,540,cs),
(279,540,o),
(233,522,o),
(142,450,c),
(142,530,l),
(105,530,l),
(105,0,l),
(145,0,l),
(145,408,l),
(210,466,o),
(276,503,o),
(339,503,cs),
(434,503,o),
(466,449,o),
(466,371,cs),
(466,-46,ls),
(466,-110,o),
(445,-134,o),
(392,-135,cs),
(335,-136,l),
(335,-161,ls),
(335,-169,o),
(341,-170,o),
(393,-170,cs)
);
}
);
width = 611;
}
);
leftKerningGroup = b2;
rightKerningGroup = a;
unicode = 331;
},
{
glyphname = OE;
leftMetricsKey = O;
layers = (
{
layerId = "8DBE427A-3D94-44F6-909C-34E8B708558F";
shapes = (
{
closed = 1;
nodes = (
(727,164,l),
(727,292,l),
(1016,292,l),
(1016,453,l),
(727,453,l),
(727,578,l),
(1077,578,l),
(1077,742,l),
(565,742,l),
(565,742,l),
(511,742,o),
(458,752,o),
(404,752,cs),
(163,752,o),
(20,601,o),
(20,369,cs),
(20,138,o),
(159,-10,o),
(392,-10,cs),
(447,-10,o),
(501,0,o),
(555,0,c),
(555,0,l),
(1086,0,l),
(1086,164,l)
);
},
{
closed = 1;
nodes = (
(291,146,o),
(258,206,o),
(258,366,cs),
(258,531,o),
(293,598,o),
(380,598,cs),
(465,598,o),
(500,531,o),
(500,366,cs),
(500,206,o),
(467,146,o),
(380,146,cs)
);
}
);
width = 1126;
},
{
layerId = "7F526B41-32D4-4B88-B4BE-8E854E9660E0";
shapes = (
{
closed = 1;
nodes = (
(682,79,l),
(682,335,l),
(1002,335,l),
(1002,413,l),
(682,413,l),
(682,663,l),
(1050,663,l),
(1050,742,l),
(600,742,l),
(600,644,l),
(549,713,o),
(472,752,o),
(375,752,cs),
(171,752,o),
(48,612,o),
(48,368,cs),
(48,126,o),
(168,-10,o),
(371,-10,cs),
(468,-10,o),
(546,28,o),
(597,96,c),
(597,0,l),
(1063,0,l),
(1063,79,l)
);
},
{
closed = 1;
nodes = (
(226,68,o),
(155,163,o),
(155,368,cs),
(155,576,o),
(227,675,o),
(368,675,cs),
(507,675,o),
(576,577,o),
(576,368,cs),
(576,162,o),
(509,68,o),
(368,68,cs)
);
}
);
width = 1123;
},
{
layerId = "B5FFAA16-DBAD-40DC-8294-46FA18BBC24B";
shapes = (
{
closed = 1;
nodes = (
(662,40,l),
(662,355,l),
(996,355,l),
(996,395,l),
(662,395,l),
(662,702,l),
(1037,702,l),
(1037,742,l),
(616,742,l),
(616,600,l),
(566,700,o),
(479,752,o),
(362,752,cs),
(174,752,o),
(60,617,o),
(60,367,cs),
(60,121,o),
(172,-10,o),
(361,-10,cs),
(478,-10,o),
(566,41,o),
(616,140,c),
(616,0,l),
(1052,0,l),
(1052,40,l)
);
},
{
closed = 1;
nodes = (
(197,32,o),
(108,143,o),
(108,369,cs),
(108,597,o),
(197,710,o),
(362,710,cs),
(526,710,o),
(611,598,o),
(611,369,cs),
(611,142,o),
(528,32,o),
(363,32,cs)
);
}
);
width = 1122;
}
);
leftKerningGroup = C2;
rightKerningGroup = E;
unicode = 338;
},
{
glyphname = Tbar;
leftMetricsKey = T;
layers = (
{
layerId = "8DBE427A-3D94-44F6-909C-34E8B708558F";
shapes = (
{
closed = 1;
nodes = (
(116,422,l),
(116,281,l),
(554,281,l),
(554,422,l)
);
},
{
alignment = -1;
ref = T;
}
);
width = 633;
},
{
anchors = (
{
name = bottom;
position = "{302, 0}";
},
{
name = top;
position = "{302, 742}";
}
);
layerId = "7F526B41-32D4-4B88-B4BE-8E854E9660E0";
shapes = (
{
closed = 1;
nodes = (
(134,408,l),
(134,335,l),
(522,335,l),
(522,408,l)
);
},
{
alignment = -1;
ref = T;
}
);
width = 582;
},
{
guides = (
{
angle = 90;
position = "{287, 0}";
showMeasurement = 1;
}
);
layerId = "B5FFAA16-DBAD-40DC-8294-46FA18BBC24B";
shapes = (
{
closed = 1;
nodes = (
(142,402,l),
(142,360,l),
(508,360,l),
(508,402,l)
);
},
{
alignment = -1;
ref = T;
}
);
width = 559;
}
);
leftKerningGroup = T2;
rightKerningGroup = T;
unicode = 358;
},
{
glyphname = tbar;
layers = (
{
layerId = "8DBE427A-3D94-44F6-909C-34E8B708558F";
shapes = (
{
closed = 1;
nodes = (
(30,338,l),
(30,231,l),
(401,231,l),
(401,338,l)
);
},
{
alignment = -1;
ref = t;
}
);
width = 472;
},
{
anchors = (
{
name = bottom;
position = "{246, 0}";
},
{
name = center;
position = "{184, 301}";
},
{
name = topright;
position = "{372, 774}";
}
);
layerId = "7F526B41-32D4-4B88-B4BE-8E854E9660E0";
shapes = (
{
closed = 1;
nodes = (
(42,322,l),
(42,265,l),
(315,265,l),
(315,322,l)
);
},
{
alignment = -1;
pos = (-3,0);
ref = t;
}
);
width = 383;
},
{
layerId = "B5FFAA16-DBAD-40DC-8294-46FA18BBC24B";
shapes = (
{
closed = 1;
nodes = (
(47,315,l),
(47,280,l),
(276,280,l),
(276,315,l)
);
},
{
alignment = -1;
pos = (-4,0);
ref = t;
}
);
width = 342;
}
);
leftKerningGroup = t2;
rightKerningGroup = t;
unicode = 359;
},
{
glyphname = Schwa;
leftMetricsKey = O;
layers = (
{
layerId = "8DBE427A-3D94-44F6-909C-34E8B708558F";
shapes = (
{
closed = 1;
nodes = (
(496,425,l),
(20,425,l),
(20,392,ls),
(20,136,o),
(141,-10,o),
(374,-10,cs),
(567,-10,o),
(736,158,o),
(736,380,cs),
(736,599,o),
(599,752,o),
(377,752,cs),
(216,752,o),
(121,684,o),
(51,543,c),
(225,459,l),
(261,544,o),
(305,578,o),
(379,578,cs),
(477,578,o),
(496,506,o),
(496,447,cs)
);
},
{
closed = 1;
nodes = (
(494,284,l),
(482,192,o),
(453,146,o),
(372,146,cs),
(304,146,o),
(263,201,o),
(263,267,cs),
(263,285,l)
);
}
);
width = 756;
},
{
layerId = "7F526B41-32D4-4B88-B4BE-8E854E9660E0";
shapes = (
{
closed = 1;
nodes = (
(574,394,l),
(48,394,l),
(48,376,ls),
(48,162,o),
(131,-10,o),
(365,-10,cs),
(583,-10,o),
(684,173,o),
(684,370,cs),
(684,552,o),
(607,752,o),
(366,752,cs),
(159,752,o),
(98,593,o),
(65,523,c),
(153,487,l),
(174,535,o),
(200,668,o),
(367,668,cs),
(547,668,o),
(574,505,o),
(574,405,cs)
);
},
{
closed = 1;
nodes = (
(573,321,l),
(567,191,o),
(525,68,o),
(364,68,cs),
(208,68,o),
(159,195,o),
(159,312,cs),
(159,321,l)
);
}
);
width = 732;
},
{
layerId = "B5FFAA16-DBAD-40DC-8294-46FA18BBC24B";
shapes = (
{
closed = 1;
nodes = (
(609,380,l),
(60,380,l),
(60,369,ls),
(60,174,o),
(126,-10,o),
(361,-10,cs),
(590,-10,o),
(661,180,o),
(661,366,cs),
(661,531,o),
(611,752,o),
(361,752,cs),
(133,752,o),
(87,552,o),
(72,514,c),
(120,500,l),
(134,531,o),
(152,709,o),
(361,709,cs),
(579,709,o),
(609,504,o),
(609,386,cs)
);
},
{
closed = 1;
nodes = (
(609,338,l),
(606,191,o),
(557,33,o),
(361,33,cs),
(164,33,o),
(112,192,o),
(112,332,cs),
(112,338,l)
);
}
);
width = 721;
}
);
unicode = 399;
},
{
glyphname = florin;
layers = (
{
layerId = "8DBE427A-3D94-44F6-909C-34E8B708558F";
shapes = (
{
closed = 1;
nodes = (
(420,530,l),
(425,561,ls),
(430,589,o),
(456,612,o),
(479,612,cs),
(541,612,l),
(562,742,l),
(420,742,ls),
(323,742,o),
(253,688,o),
(237,601,cs),
(225,530,l),
(139,530,l),
(115,395,l),
(201,395,l),
(135,20,ls),
(126,-31,o),
(114,-42,o),
(79,-42,cs),
(17,-42,l),
(-3,-172,l),
(143,-172,ls),
(240,-172,o),
(311,-118,o),
(326,-31,cs),
(401,395,l),
(497,395,l),
(521,530,l)
);
}
);
width = 568;
},
{
layerId = "7F526B41-32D4-4B88-B4BE-8E854E9660E0";
shapes = (
{
closed = 1;
nodes = (
(254,530,l),
(267,604,ls),
(275,647,o),
(305,677,o),
(342,677,cs),
(417,677,l),
(427,742,l),
(330,742,ls),
(248,742,o),
(195,696,o),
(180,613,cs),
(166,530,l),
(80,530,l),
(68,464,l),
(154,464,l),
(68,-25,ls),
(58,-85,o),
(37,-105,o),
(-10,-106,cs),
(-70,-107,l),
(-79,-171,l),
(6,-171,ls),
(91,-171,o),
(142,-121,o),
(156,-38,cs),
(244,464,l),
(375,464,l),
(386,530,l)
);
}
);
width = 456;
},
{
layerId = "B5FFAA16-DBAD-40DC-8294-46FA18BBC24B";
shapes = (
{
closed = 1;
nodes = (
(179,530,l),
(195,623,ls),
(204,674,o),
(236,707,o),
(279,707,cs),
(361,707,l),
(366,742,l),
(289,742,ls),
(214,742,o),
(168,700,o),
(154,618,cs),
(139,530,l),
(53,530,l),
(47,495,l),
(132,495,l),
(38,-46,ls),
(27,-110,o),
(2,-134,o),
(-51,-135,cs),
(-109,-136,l),
(-114,-170,l),
(-57,-170,ls),
(23,-170,o),
(65,-123,o),
(79,-41,cs),
(172,495,l),
(319,495,l),
(325,530,l)
);
}
);
width = 405;
}
);
unicode = 402;
},
